<svg width="1198" height="872" viewBox="0 0 1198 872" fill="none" xmlns="http://www.w3.org/2000/svg">
<g opacity="0.1">
<path d="M1198 0H0.0012207V871.669H1198V0Z" fill="black"/>
<path d="M1171.03 -1.90735e-06H1161.62C1171.99 7.68667 1183.8 15.4329 1198 23.2285V16.8276C1187.89 11.1908 1179.02 5.58013 1171.03 -1.90735e-06Z" fill="#525154"/>
<path d="M1124.79 -1.90735e-06H1116.72C1136.73 18.1525 1159.57 36.7002 1198 55.3496V49.0822C1164.42 32.5699 1143.03 16.139 1124.79 -1.90735e-06Z" fill="#525154"/>
<path d="M1091.37 7.87553C1088.6 5.25907 1085.81 2.63389 1082.97 -1.90735e-06H1075.05C1079.63 4.17529 1084.05 8.3317 1088.43 12.4649C1114.11 36.6668 1140.64 61.6662 1198 86.4943V80.3171C1142.47 56.0265 1116.5 31.5646 1091.37 7.87553Z" fill="#525154"/>
<path d="M1187.12 106.284C1126.93 81.0536 1100 55.2885 1073.97 30.3719C1063.5 20.3535 1052.88 10.2 1040.08 -1.90735e-06H1031.15C1046.75 11.7341 1058.97 23.4232 1071 34.9321C1097.35 60.1495 1124.6 86.2255 1185.56 111.776C1189.83 113.568 1193.97 115.222 1198 116.772V110.679C1194.47 109.306 1190.84 107.844 1187.12 106.284Z" fill="#525154"/>
<path d="M1169.53 129.369C1109.35 104.143 1082.51 78.074 1056.56 52.8638C1038.65 35.4668 1020.32 17.6658 991.152 -1.90735e-06H980.084C1014.18 19.1375 1034.12 38.5089 1053.57 57.3994C1079.84 82.9175 1107 109.306 1167.97 134.86C1178.76 139.383 1188.71 143.077 1198 146.116V140.09C1189.16 137.163 1179.73 133.641 1169.53 129.369Z" fill="#525154"/>
<path d="M1151.94 152.455C1091.76 127.232 1065.02 100.861 1039.16 75.3587C1013.9 50.4522 987.797 24.7278 931.259 -1.90735e-06H916.564C918.792 0.890553 921.045 1.80435 923.347 2.77045C983.524 27.9937 1010.27 54.3645 1036.13 79.8667C1062.32 105.687 1089.4 132.388 1150.38 157.946C1168.29 165.457 1183.95 170.686 1198 174.325V168.373C1184.38 164.793 1169.22 159.699 1151.94 152.455Z" fill="#525154"/>
<path d="M1134.35 175.54C1074.18 150.321 1047.53 123.648 1021.75 97.8522C995.649 71.7297 968.656 44.7166 907.669 19.1549C884.309 9.36318 864.775 3.48377 847.647 -1.90735e-06H726.142C745.471 2.38837 761.859 1.91041 777.98 1.4368C811.387 0.447455 845.936 -0.5724 906.103 24.6479C966.273 49.8667 992.927 76.5413 1018.7 102.335C1044.81 128.458 1071.8 155.471 1132.78 181.033C1158.54 191.828 1179.65 197.867 1198 201.183V195.292C1180.05 191.994 1159.43 186.051 1134.35 175.54Z" fill="#525154"/>
<path d="M1116.76 198.624C1056.6 173.408 1030.03 146.433 1004.35 120.346C978.323 93.9209 951.416 66.5955 890.422 41.0295C829.427 15.4649 794.345 16.8087 760.426 18.1075C729.073 19.3075 696.712 20.5452 643.337 -1.90735e-06H628.262C629.037 0.331232 629.795 0.662467 630.583 0.992248C691.576 26.5583 726.654 25.2145 760.578 23.9157C794.066 22.6329 828.7 21.3079 888.857 46.5224C949.017 71.7384 975.581 98.7136 1001.27 124.801C1027.29 151.226 1054.2 178.551 1115.19 204.117C1149.54 218.513 1175.67 224.376 1198 226.519V220.675C1176.06 218.523 1150.4 212.727 1116.76 198.624Z" fill="#525154"/>
<path d="M1099.17 221.709C1039.02 196.498 1012.54 169.219 986.939 142.839C961 116.112 934.177 88.4744 873.174 62.9055C812.173 37.338 777.006 38.9898 742.99 40.5878C709.42 42.1641 674.707 43.797 614.557 18.5854C600.031 12.4983 587.484 6.28764 576.423 -1.90735e-06H565.469C578.727 8.16318 594.24 16.2189 612.991 24.0784C673.992 49.6474 709.158 47.9941 743.175 46.3961C776.74 44.8198 811.456 43.1854 871.608 68.3984C931.76 93.61 958.234 120.889 983.837 147.269C1009.78 173.995 1036.6 201.633 1097.6 227.202C1141.3 245.517 1171.74 249.863 1198 250.268V244.448C1172.13 244.03 1142.14 239.722 1099.17 221.709Z" fill="#525154"/>
<path d="M1081.58 244.795C1021.43 219.585 995.049 192.005 969.534 165.334C943.676 138.305 916.94 110.355 855.929 84.7829C794.918 59.211 759.655 61.1737 725.554 63.0711C691.908 64.9437 657.106 66.8803 596.964 41.6716C565.03 28.2857 542.612 14.2315 524.79 -1.90735e-06H516.234C535.245 16.0983 559.333 32.0455 595.398 47.1631C656.41 72.7364 691.674 70.7737 725.773 68.8749C759.427 67.0023 794.222 65.0658 854.363 90.273C914.505 115.482 940.89 143.061 966.405 169.734C992.262 196.763 1019 224.713 1080.01 250.287C1133.69 272.786 1167.43 273.97 1198 272.636V266.819C1167.82 268.14 1134.52 266.987 1081.58 244.795Z" fill="#525154"/>
<path d="M1192.73 288.677C1159 290.844 1124.12 293.086 1063.98 267.881C1003.85 242.677 977.556 214.794 952.128 187.829C926.353 160.498 899.701 132.234 838.683 106.657C777.665 81.0827 742.313 83.3534 708.119 85.5515C674.389 87.719 639.507 89.9621 579.373 64.7563C530.553 44.2939 504.038 22.0678 482.182 -1.90735e-06H474.748C497.817 23.8634 524.885 48.0668 577.807 70.2493C638.828 95.8255 674.181 93.5548 708.372 91.3553C742.099 89.1878 776.983 86.9461 837.117 112.15C897.251 137.356 923.546 165.239 948.973 192.203C974.748 219.536 1001.4 247.798 1062.42 273.374C1123.43 298.949 1158.79 296.678 1192.98 294.479C1194.65 294.371 1196.32 294.267 1198 294.161V288.342C1196.24 288.453 1194.48 288.563 1192.73 288.677Z" fill="#525154"/>
<path d="M1175.3 311.158C1141.48 313.621 1106.52 316.167 1046.4 290.968C986.27 265.765 960.066 237.581 934.723 210.324C909.032 182.69 882.465 154.114 821.439 128.536C760.413 102.957 724.964 105.537 690.684 108.036C656.873 110.5 621.909 113.045 561.784 87.8453C501.655 62.6425 475.45 34.457 450.106 7.19994C447.883 4.80721 445.649 2.40721 443.39 0.00285721H436.087C439.777 3.86145 443.362 7.71423 446.927 11.5467C472.619 39.1815 499.188 67.7563 560.218 93.3369C621.245 118.916 656.695 116.334 690.971 113.837C724.783 111.372 759.747 108.828 819.873 134.028C879.998 159.229 906.203 187.415 931.544 214.672C957.236 242.305 983.804 270.88 1044.83 296.46C1105.85 322.038 1141.3 319.459 1175.58 316.959C1182.92 316.426 1190.31 315.889 1198 315.631V309.812C1190.21 310.073 1182.73 310.616 1175.3 311.158Z" fill="#525154"/>
<path d="M1157.86 333.639C1123.97 336.396 1088.92 339.248 1028.8 314.052C968.684 288.852 942.57 260.366 917.317 232.817C891.707 204.88 865.225 175.993 804.189 150.411C743.152 124.827 707.613 127.72 673.246 130.516C639.356 133.274 604.31 136.126 544.191 110.929C484.07 85.7287 457.956 57.2411 432.698 29.6905C423.679 19.8494 414.543 9.89054 403.833 -1.90735e-06H395.775C408.674 11.3012 419.159 22.7331 429.495 34.0111C455.106 61.9481 481.587 90.8367 542.627 116.42C603.662 142.002 639.198 139.111 673.568 136.315C707.461 133.557 742.507 130.705 802.624 155.902C862.743 181.101 888.857 209.589 914.111 237.138C939.72 265.073 966.202 293.96 1027.24 319.544C1088.27 345.126 1123.81 342.233 1158.18 339.44C1170.87 338.405 1183.73 337.359 1198 337.779V331.953C1183.62 331.547 1170.66 332.599 1157.86 333.639Z" fill="#525154"/>
<path d="M1140.42 356.12C1106.44 359.173 1071.32 362.328 1011.21 337.136C951.102 311.941 925.077 283.153 899.91 255.31C874.383 227.071 847.986 197.872 786.942 172.287C725.898 146.699 690.269 149.901 655.811 152.998C621.833 156.052 586.705 159.206 526.598 134.013C466.488 108.818 440.462 80.028 415.294 52.1854C399.575 34.7985 383.514 17.0484 359.254 -1.90735e-06H349.382C377.553 18.3196 395.013 37.6169 412.064 56.4784C437.591 84.7175 463.987 113.918 525.033 139.505C586.075 165.091 621.705 161.889 656.165 158.793C690.138 155.741 725.267 152.584 785.376 177.778C845.487 202.973 871.511 231.762 896.68 259.603C922.207 287.843 948.603 317.042 1009.65 342.629C1070.69 368.213 1106.32 365.012 1140.78 361.917C1158.42 360.329 1176.39 358.727 1198 361.072V355.221C1176.28 352.911 1158.19 354.525 1140.42 356.12Z" fill="#525154"/>
<path d="M1122.99 378.604C1088.94 381.952 1053.72 385.414 993.621 360.222C933.52 335.029 907.585 305.94 882.504 277.805C857.06 249.264 830.749 219.752 769.698 194.163C708.645 168.572 672.923 172.085 638.378 175.48C604.321 178.829 569.111 182.289 509.011 157.098C448.906 131.905 422.971 102.813 397.888 74.6788C375.366 49.4149 352.143 23.3927 304.768 -1.90735e-06H291.504C345.956 24.3733 370.696 52.0939 394.634 78.9442C420.079 107.486 446.39 136.999 507.445 162.59C568.494 188.179 604.214 184.667 638.764 181.272C672.816 177.924 708.028 174.462 768.133 199.654C828.234 224.846 854.168 253.938 879.249 282.071C904.693 310.612 931.004 340.124 992.055 365.713C1053.11 391.303 1088.83 387.79 1123.37 384.395C1145.56 382.212 1168.25 379.99 1198 385.672V379.776C1168.16 374.176 1145.32 376.409 1122.99 378.604Z" fill="#525154"/>
<path d="M1105.55 401.087C1071.42 404.729 1036.12 408.498 976.031 383.309C915.938 358.12 890.092 328.727 865.097 300.3C839.736 271.455 813.512 241.631 752.451 216.037C691.39 190.444 655.574 194.266 620.943 197.962C586.809 201.604 551.514 205.371 491.42 180.183C431.325 154.994 405.478 125.599 380.482 97.1723C355.119 68.3287 328.895 38.5031 267.832 12.9094C254.433 7.29442 242.252 3.09588 231.03 -3.8147e-06H203.067C221.037 2.5874 241.552 8.0426 266.266 18.4024C326.361 43.5922 352.208 72.9863 377.204 101.413C402.567 130.256 428.792 160.082 489.854 185.676C550.913 211.269 586.726 207.447 621.363 203.751C655.498 200.111 690.794 196.344 750.885 221.53C810.979 246.719 836.825 276.113 861.82 304.538C887.181 333.382 913.407 363.207 974.465 388.799C1035.52 414.393 1071.34 410.572 1105.97 406.875C1132.33 404.064 1159.38 401.192 1198 411.612V405.653C1159.3 395.37 1132.07 398.259 1105.55 401.087Z" fill="#525154"/>
<path d="M136.738 0.620336C138.693 0.411135 140.652 0.203388 142.618 -1.90735e-06H61.843C91.5881 5.42178 114.412 3.00145 136.738 0.620336Z" fill="#525154"/>
<path d="M1088.12 423.569C1053.9 427.506 1018.52 431.578 958.44 406.393C898.355 381.207 872.598 351.514 847.69 322.795C822.411 293.649 796.272 263.511 735.204 237.915C674.137 212.318 638.231 216.452 603.507 220.447C569.292 224.384 533.913 228.454 473.828 203.27C413.74 178.085 387.983 148.387 363.074 119.669C337.794 90.5229 311.655 60.3849 250.586 34.7869C189.515 9.18744 153.606 13.3177 118.882 17.3143C86.7697 21.0073 53.6283 24.8179 0.0012207 4.45283V10.5313C53.6822 30.6378 87.0273 26.817 119.334 23.0993C153.551 19.1622 188.932 15.093 249.02 40.2784C309.107 65.4639 334.864 95.1602 359.773 123.879C385.053 153.024 411.192 183.164 472.262 208.762C533.33 234.358 569.234 230.228 603.96 226.23C638.174 222.295 673.556 218.222 733.639 243.406C793.723 268.59 819.479 298.287 844.387 327.005C869.666 356.151 895.805 386.289 956.873 411.886C1017.94 437.482 1053.85 433.35 1088.57 429.355C1118.75 425.882 1149.85 422.319 1198 438.807V432.759C1149.77 416.475 1118.49 420.073 1088.12 423.569Z" fill="#525154"/>
<path d="M1070.68 446.051C1036.38 450.283 1000.92 454.657 940.849 429.477C880.772 404.296 855.105 374.299 830.282 345.289C805.087 315.841 779.033 285.392 717.956 259.791C656.883 234.19 620.883 238.631 586.071 242.928C551.778 247.16 516.312 251.536 456.235 226.355C396.157 201.173 370.49 171.174 345.667 142.163C320.471 112.716 294.417 82.2638 233.337 56.6629C172.262 31.0605 136.263 35.5031 101.449 39.7975C72.9364 43.3147 43.6023 46.9147 0.0012207 33.5651V39.5636C43.7077 52.7433 73.2335 49.12 101.933 45.5782C136.236 41.3477 171.698 36.9733 231.774 62.1544C291.854 87.3369 317.521 117.335 342.343 146.347C367.539 175.795 393.593 206.246 454.672 231.847C515.747 257.446 551.742 253.005 586.558 248.709C620.853 244.477 656.318 240.103 716.392 265.282C776.469 290.465 802.136 320.463 826.959 349.473C852.154 378.92 878.208 409.372 939.286 434.972C1000.36 460.571 1036.36 456.13 1071.17 451.834C1104.89 447.675 1139.75 443.393 1198 467.177V461.045C1139.69 437.552 1104.62 441.864 1070.68 446.051Z" fill="#525154"/>
<path d="M1185.32 484.791C1124.24 459.185 1088.15 463.939 1053.25 468.535C1018.87 473.061 983.326 477.74 923.258 452.563C863.188 427.387 837.612 397.085 812.877 367.783C787.764 338.035 761.796 307.272 700.712 281.668C639.626 256.063 603.539 260.817 568.638 265.41C534.262 269.939 498.714 274.618 438.645 249.44C378.574 224.26 352.996 193.96 328.259 164.657C303.146 134.905 277.177 104.143 216.091 78.5389C155.005 52.9336 118.914 57.6857 84.0119 62.2808C59.447 65.5132 34.2795 68.8183 0.0012207 61.2595V67.1767C34.4269 74.6367 59.7836 71.3142 84.5307 68.0556C118.904 63.5288 154.455 58.8493 214.528 84.029C274.6 109.209 300.177 139.508 324.913 168.812C350.027 198.562 375.996 229.325 437.082 254.93C498.165 280.534 534.253 275.782 569.156 271.187C603.533 266.66 639.08 261.98 699.148 287.157C759.218 312.335 784.796 342.636 809.531 371.937C834.643 401.688 860.611 432.45 921.694 458.054C982.777 483.656 1018.87 478.907 1053.77 474.31C1088.15 469.785 1123.69 465.104 1183.76 490.279C1188.74 492.368 1193.47 494.497 1198 496.654V490.416C1193.94 488.517 1189.73 486.638 1185.32 484.791Z" fill="#525154"/>
<path d="M1168.08 506.666C1106.98 481.06 1070.8 486.121 1035.81 491.017C1001.36 495.839 965.727 500.823 905.666 475.65C845.605 450.476 820.117 419.871 795.47 390.277C770.44 360.225 744.558 329.15 683.468 303.543C622.377 277.936 586.195 282.996 551.205 287.895C516.749 292.714 481.117 297.7 421.056 272.526C360.992 247.351 335.504 216.748 310.855 187.152C285.824 157.098 259.941 126.023 198.847 100.415C137.752 74.8067 101.57 79.8682 66.5787 84.7626C46.3577 87.5911 25.727 90.4662 0.0012207 87.2817V93.1437C25.9115 96.2875 46.7267 93.3892 67.1262 90.5359C101.585 85.7171 137.216 80.7311 197.28 105.908C257.344 131.085 282.833 161.687 307.481 191.282C332.511 221.336 358.395 252.411 419.489 278.019C480.58 303.624 516.761 298.563 551.752 293.667C586.212 288.847 621.842 283.862 681.901 309.036C741.961 334.211 767.449 364.814 792.096 394.409C817.126 424.461 843.007 455.536 904.099 481.143C965.187 506.749 1001.37 501.689 1036.36 496.793C1070.82 491.973 1106.45 486.987 1166.51 512.161C1178.25 517.081 1188.65 522.21 1198 527.496V521.085C1189.04 516.124 1179.14 511.304 1168.08 506.666Z" fill="#525154"/>
<path d="M1150.83 528.543C1089.73 502.931 1053.46 508.305 1018.38 513.5C983.845 518.616 948.128 523.905 888.076 498.734C828.022 473.563 802.624 442.658 778.063 412.77C753.116 382.417 727.32 351.027 666.22 325.419C605.124 299.809 568.849 305.18 533.77 310.375C499.229 315.491 463.514 320.779 403.464 295.611C343.408 270.437 318.009 239.532 293.447 209.645C268.5 179.289 242.703 147.901 181.601 122.289C120.498 96.6783 84.2252 102.051 49.1442 107.246C33.6925 109.533 17.9963 111.847 0.0012207 111.462V117.298C18.2072 117.672 34.0878 115.329 49.7241 113.013C84.2647 107.898 119.978 102.61 180.035 127.781C240.09 152.953 265.489 183.86 290.052 213.746C314.999 244.102 340.796 275.49 401.898 301.101C462.999 326.712 499.271 321.338 534.351 316.143C568.888 311.029 604.601 305.737 664.656 330.908C724.71 356.078 750.107 386.985 774.669 416.872C799.616 447.227 825.412 478.615 886.511 504.226C947.612 529.835 983.883 524.463 1018.96 519.268C1053.5 514.153 1089.21 508.863 1149.27 534.031C1168.79 542.218 1184.64 551.008 1198 560.174V553.493C1184.92 544.766 1169.54 536.382 1150.83 528.543Z" fill="#525154"/>
<path d="M1133.58 550.419C1072.47 524.805 1036.11 530.488 1000.94 535.982C966.327 541.391 930.529 546.986 870.483 521.819C810.439 496.651 785.13 465.444 760.655 435.265C735.79 404.607 710.081 372.906 648.973 347.293C587.864 321.681 551.5 327.361 516.333 332.857C481.714 338.269 445.918 343.861 385.872 318.693C325.825 293.525 300.515 262.317 276.038 232.137C251.173 201.479 225.463 169.778 164.352 144.164C103.242 118.55 66.8758 124.232 31.7062 129.726C21.4454 131.332 11.0731 132.946 0.0012207 133.775V139.61C11.2911 138.77 21.8623 137.125 32.322 135.492C66.9429 130.084 102.741 124.49 162.789 149.658C222.836 174.828 248.146 206.035 272.623 236.214C297.488 266.872 323.198 298.573 384.308 324.188C445.414 349.799 481.775 344.119 516.947 338.623C551.564 333.212 587.361 327.62 647.408 352.788C707.453 377.956 732.762 409.163 757.238 439.342C782.101 470 807.811 501.699 868.919 527.312C930.025 552.925 966.389 547.243 1001.56 541.748C1036.18 536.338 1071.98 530.746 1132.02 555.911C1160.72 567.941 1181.47 581.351 1198 595.366V588.285C1181.64 574.854 1161.25 562.013 1133.58 550.419Z" fill="#525154"/>
<path d="M1116.34 572.293C1055.22 546.676 1018.77 552.669 983.512 558.465C948.812 564.171 912.933 570.069 852.894 544.905C792.857 519.74 767.638 488.231 743.249 457.76C718.468 426.801 692.844 394.786 631.729 369.171C570.614 343.554 534.159 349.547 498.901 355.343C464.198 361.047 428.318 366.944 368.282 341.78C308.242 316.615 283.02 285.106 258.63 254.633C233.849 223.673 208.226 191.66 147.108 166.043C85.992 140.426 49.5346 146.419 14.2763 152.212C9.56101 152.988 4.81934 153.764 0.00219727 154.467V160.322C5.03977 159.591 9.99349 158.78 14.9196 157.97C49.6196 152.266 85.502 146.368 145.542 171.534C205.581 196.699 230.801 228.209 255.191 258.681C279.973 289.641 305.597 321.655 366.716 347.273C427.831 372.89 464.284 366.897 499.544 361.101C534.246 355.397 570.126 349.5 630.163 374.664C690.2 399.827 715.419 431.337 739.808 461.807C764.59 492.768 790.213 524.781 851.328 550.397C912.445 576.017 948.899 570.021 984.155 564.226C1018.86 558.521 1054.73 552.622 1114.77 577.787C1154.46 594.42 1178.92 613.827 1198 633.872V626.212C1179.04 606.946 1154.67 588.361 1116.34 572.293Z" fill="#525154"/>
<path d="M1099.09 594.169C1037.97 568.549 1001.42 574.854 966.077 580.949C931.298 586.947 895.331 593.149 835.304 567.99C775.275 542.828 750.142 511.016 725.84 480.252C701.142 448.99 675.603 416.664 614.48 391.045C553.357 365.423 516.808 371.728 481.466 377.822C446.685 383.824 410.719 390.023 350.692 364.863C290.66 339.701 265.528 307.89 241.224 277.126C216.526 245.862 190.987 213.536 129.86 187.915C70.5548 163.059 34.3837 168.253 0.0012207 174.149V180.019C34.0219 174.171 69.6899 168.845 128.295 193.409C188.326 218.571 213.459 250.383 237.763 281.147C262.461 312.409 288 344.735 349.126 370.356C410.249 395.978 446.795 389.673 482.141 383.578C516.92 377.581 552.886 371.378 612.914 396.537C672.943 421.699 698.075 453.511 722.379 484.275C747.075 515.536 772.614 547.863 833.738 573.481C894.861 599.103 931.41 592.799 966.752 586.703C1001.54 580.703 1037.5 574.503 1097.53 599.662C1150.24 621.755 1176.04 648.975 1198 676.112V667.854C1176.35 641.631 1150.13 615.563 1099.09 594.169Z" fill="#525154"/>
<path d="M1193.04 705.872C1168.42 674.307 1142.97 641.669 1081.84 616.046C1020.71 590.424 984.074 597.037 948.642 603.433C913.781 609.724 877.732 616.232 817.711 591.075C757.688 565.917 732.647 533.802 708.429 502.747C683.816 471.181 658.365 438.544 597.235 412.92C536.105 387.297 499.465 393.91 464.032 400.307C429.17 406.597 393.123 413.107 333.099 387.95C273.075 362.79 248.032 330.675 223.814 299.62C199.199 268.054 173.747 235.416 112.612 209.792C63.1524 189.061 29.7271 189.433 0 193.717V199.572C29.3365 195.305 62.279 194.843 111.046 215.285C171.07 240.444 196.114 272.558 220.333 303.614C244.947 335.18 270.401 367.818 331.534 393.441C392.661 419.064 429.3 412.451 464.736 406.057C499.596 399.764 535.646 393.257 595.668 418.414C655.69 443.571 680.73 475.686 704.947 506.741C729.561 538.307 755.012 570.945 816.143 596.568C877.275 622.192 913.912 615.576 949.345 609.181C984.208 602.89 1020.26 596.383 1080.28 621.539C1140.3 646.697 1165.34 678.81 1189.55 709.866C1192.34 713.438 1195.14 717.024 1198 720.61V712.216C1196.33 710.097 1194.68 707.981 1193.04 705.872Z" fill="#525154"/>
<path d="M1175.63 728.364C1151.1 696.497 1125.74 663.547 1064.6 637.92C1003.46 612.293 966.73 619.218 931.207 625.914C896.268 632.502 860.134 639.313 800.118 614.158C740.103 589.003 715.151 556.588 691.021 525.24C666.491 493.372 641.126 460.422 579.986 434.796C518.847 409.167 482.118 416.094 446.595 422.789C411.652 429.377 375.519 436.186 315.507 411.034C255.49 385.878 230.536 353.462 206.405 322.114C181.874 290.246 156.507 257.295 95.3653 231.668C55.2564 214.859 25.6515 212.055 0.0012207 214.006V219.847C25.249 217.907 54.3699 220.636 93.8019 237.162C153.819 262.319 178.772 294.733 202.903 326.081C227.435 357.948 252.801 390.9 313.943 416.527C375.079 442.154 411.81 435.229 447.334 428.533C482.275 421.948 518.407 415.134 578.423 440.289C638.437 465.445 663.389 497.861 687.519 529.208C712.05 561.075 737.415 594.025 798.554 619.654C859.694 645.281 896.426 638.355 931.947 631.66C966.888 625.071 1003.02 618.261 1063.03 643.415C1123.05 668.569 1148 700.985 1172.13 732.33C1180.24 742.866 1188.44 753.516 1198 763.983V756.071C1189.89 746.884 1182.72 737.578 1175.63 728.364Z" fill="#525154"/>
<path d="M1158.22 750.86C1133.78 718.691 1108.5 685.427 1047.35 659.797C986.205 634.167 949.386 641.403 913.775 648.398C878.75 655.279 842.533 662.394 782.529 637.244C722.522 612.093 697.659 579.375 673.615 547.737C649.168 515.566 623.889 482.302 562.741 456.672C501.593 431.042 464.771 438.278 429.164 445.273C394.141 452.152 357.924 459.269 297.918 434.119C237.908 408.965 213.043 376.249 188.998 344.609C164.551 312.44 139.27 279.175 78.1202 253.544C46.6991 240.376 21.7113 235.894 0.0012207 235.588V241.428C21.3004 241.743 45.7994 246.148 76.5556 259.038C136.566 284.19 161.43 316.908 185.475 348.549C209.923 380.718 235.204 413.982 296.353 439.613C357.499 465.243 394.321 458.008 429.931 451.012C464.951 444.131 501.169 437.014 561.176 462.166C621.184 487.317 646.047 520.036 670.092 551.677C694.538 583.846 719.817 617.108 780.964 642.74C842.111 668.37 878.933 661.135 914.542 654.138C949.564 647.257 985.781 640.141 1045.79 665.293C1105.79 690.443 1130.66 723.16 1154.7 754.8C1167.31 771.388 1180.15 788.265 1198 804.237V796.935C1181.89 781.987 1169.95 766.296 1158.22 750.86Z" fill="#525154"/>
<path d="M1140.81 773.355C1116.45 740.883 1091.26 707.306 1030.11 681.675C968.95 656.04 932.04 663.586 896.342 670.883C861.235 678.058 824.937 685.479 764.94 660.33C704.942 635.183 680.167 602.162 656.209 570.229C631.845 537.758 606.652 504.181 545.498 478.548C484.343 452.916 447.43 460.462 411.732 467.758C376.626 474.933 340.328 482.354 280.328 457.207C220.327 432.056 195.551 399.036 171.591 367.102C147.227 334.631 122.033 301.054 60.8762 275.421C37.4578 265.606 17.6022 260.667 0.0012207 258.704V264.566C17.1781 266.522 36.5329 271.368 59.3092 280.913C119.31 306.063 144.085 339.084 168.045 371.014C192.41 403.487 217.604 437.064 278.761 462.697C339.917 488.329 376.831 480.785 412.526 473.488C447.63 466.313 483.931 458.892 543.932 484.041C603.93 509.19 628.705 542.209 652.664 574.142C677.027 606.614 702.22 640.19 763.374 665.825C824.528 691.456 861.44 683.91 897.139 676.616C932.245 669.441 968.543 662.02 1028.54 687.169C1088.54 712.315 1113.31 745.334 1137.27 777.268C1153.61 799.039 1170.33 821.301 1198 841.34V834.517C1172.3 815.307 1156.38 794.102 1140.81 773.355Z" fill="#525154"/>
<path d="M1198 869.381C1161.46 847.196 1142.17 821.185 1123.41 795.849C1099.13 763.075 1074.02 729.185 1012.86 703.551C951.695 677.913 914.692 685.77 878.908 693.368C843.721 700.84 807.338 708.561 747.348 683.416C687.357 658.27 662.672 624.949 638.799 592.725C614.519 559.95 589.413 526.061 528.252 500.425C467.088 474.79 430.084 482.646 394.3 490.241C359.114 497.713 322.732 505.438 262.74 480.291C202.746 455.144 178.059 421.824 154.186 389.598C129.905 356.822 104.797 322.933 43.6333 297.296C27.5549 290.556 13.1598 286.15 0.00341797 283.426V289.339C12.7154 292.021 26.6025 296.305 42.0675 302.789C102.061 327.935 126.748 361.256 150.62 393.482C174.903 426.256 200.01 460.147 261.174 485.783C322.334 511.419 359.339 503.562 395.125 495.967C430.314 488.495 466.696 480.772 526.686 505.917C586.677 531.063 611.363 564.384 635.234 596.608C659.515 629.383 684.621 663.274 745.783 688.908C806.945 714.545 843.948 706.686 879.733 699.09C914.922 691.622 951.305 683.899 1011.29 709.042C1071.28 734.188 1095.97 767.508 1119.84 799.733C1138.12 824.413 1156.88 849.725 1191.15 871.671H1198V869.381Z" fill="#525154"/>
<path d="M1106 818.342C1081.8 785.267 1056.78 751.064 995.613 725.426C934.444 699.789 897.348 707.955 861.473 715.851C826.205 723.615 789.738 731.641 729.756 706.503C669.772 681.359 645.175 647.736 621.389 615.22C597.193 582.143 572.173 547.942 511.002 522.303C449.831 496.663 412.736 504.829 376.862 512.726C341.592 520.49 305.125 528.518 245.142 503.376C185.158 478.233 160.558 444.611 136.77 412.095C112.573 379.016 87.552 344.813 26.3799 319.173C17.0523 315.264 8.29014 312.149 0 309.691V315.694C7.82172 318.053 16.0603 320.998 24.8141 324.668C84.8002 349.811 109.397 383.434 133.186 415.952C157.383 449.029 182.406 483.23 243.577 508.87C304.746 534.509 341.842 526.34 377.718 518.444C412.985 510.682 449.452 502.654 509.436 527.794C569.42 552.938 594.017 586.561 617.803 619.078C641.999 652.155 667.019 686.357 728.19 711.995C789.357 737.633 826.453 729.47 862.33 721.571C897.596 713.807 934.063 705.779 994.047 730.921C1054.03 756.063 1078.62 789.684 1102.41 822.202C1114.56 838.818 1126.93 855.715 1143.98 871.672H1152.05C1132.56 854.634 1119.15 836.32 1106 818.342Z" fill="#525154"/>
<path d="M1088.59 840.836C1064.48 807.458 1039.54 772.943 978.367 747.301C917.19 721.659 880.002 730.136 844.041 738.335C808.694 746.393 772.141 754.723 712.166 729.586C652.19 704.445 627.682 670.522 603.981 637.712C579.869 604.334 554.936 569.82 493.758 544.177C432.581 518.534 395.393 527.011 359.43 535.208C324.082 543.266 287.53 551.6 227.555 526.461C167.577 501.32 143.067 467.396 119.365 434.587C95.2503 401.206 70.3164 366.692 9.13712 341.049C6.02472 339.745 2.9902 338.551 0 337.417V343.51C2.48704 344.468 5.00044 345.463 7.57134 346.539C67.5478 371.68 92.0564 405.607 115.76 438.413C139.874 471.794 164.808 506.308 225.989 531.954C287.163 557.595 324.352 549.117 360.315 540.92C395.666 532.863 432.218 524.531 492.192 549.667C552.167 574.808 576.675 608.732 600.377 641.541C624.489 674.919 649.422 709.433 710.6 735.076C771.774 760.719 808.963 752.242 844.927 744.045C880.276 735.987 916.828 727.656 976.801 752.793C1036.77 777.93 1061.28 811.854 1084.98 844.664C1091.47 853.648 1098.03 862.713 1105.33 871.666H1112.14C1103.5 861.484 1096.01 851.107 1088.59 840.836Z" fill="#525154"/>
<path d="M961.119 769.179C899.937 743.534 862.661 752.32 826.606 760.819C791.175 769.17 754.54 777.807 694.573 752.672C634.605 727.536 610.186 693.308 586.571 660.21C562.542 626.528 537.694 591.701 476.509 566.053C415.325 540.409 378.048 549.197 341.996 557.694C306.566 566.048 269.93 574.683 209.962 549.548C149.992 524.411 125.573 490.183 101.957 457.083C79.0199 424.934 55.3151 391.747 0.0012207 366.492V372.703C52.9958 397.368 76.0309 429.625 98.3316 460.884C122.362 494.566 147.21 529.392 208.396 555.04C269.58 580.686 306.86 571.898 342.91 563.401C378.339 555.047 414.976 546.412 474.943 571.546C534.913 596.682 559.331 630.908 582.946 664.01C606.976 697.691 631.823 732.518 693.007 758.163C754.192 783.808 791.47 775.02 827.52 766.523C862.95 758.171 899.586 749.535 959.553 774.669C1019.52 799.805 1043.94 834.031 1067.55 867.134C1068.63 868.643 1069.71 870.156 1070.79 871.669H1077.15C1075.14 868.886 1073.15 866.104 1071.18 863.332C1047.15 829.651 1022.3 794.823 961.119 769.179Z" fill="#525154"/>
<path d="M943.875 791.056C882.683 765.407 845.313 774.506 809.175 783.304C773.663 791.949 736.943 800.89 676.984 775.76C617.023 750.625 592.693 716.097 569.163 682.703C545.218 648.72 520.456 613.58 459.264 587.931C398.071 562.283 360.704 571.382 324.564 580.18C289.051 588.827 252.33 597.766 192.372 572.634C132.409 547.501 108.077 512.972 84.5462 479.576C64.2186 450.729 43.292 421.05 0.0012207 397.048V403.467C41.0362 426.801 61.2584 455.472 80.9043 483.352C104.851 517.336 129.612 552.476 190.807 578.126C252 603.773 289.368 594.676 325.508 585.877C361.019 577.23 397.737 568.289 457.699 593.422C517.661 618.554 541.992 653.084 565.521 686.477C589.467 720.462 614.227 755.601 675.42 781.248C736.607 806.897 773.979 797.8 810.119 789C845.629 780.355 882.349 771.414 942.31 796.544C991.566 817.191 1016.77 844.178 1037.25 871.668H1043.68C1022.26 842.291 996.592 813.151 943.875 791.056Z" fill="#525154"/>
<path d="M791.743 805.787C756.151 814.725 719.346 823.972 659.393 798.843C599.44 773.713 575.199 738.881 551.754 705.197C527.892 670.909 503.218 635.457 442.019 609.805C380.817 584.152 343.358 593.562 307.13 602.662C271.54 611.602 234.734 620.848 174.781 595.719C114.824 570.587 90.5817 535.756 67.1357 502.07C49.7792 477.127 31.9733 451.57 0.0012207 429.614V436.35C29.8349 457.509 46.8644 481.95 63.4759 505.818C87.3388 540.105 112.015 575.559 173.216 601.211C234.416 626.862 271.877 617.453 308.103 608.354C343.697 599.414 380.502 590.168 440.454 615.297C500.407 640.427 524.648 675.258 548.093 708.945C571.955 743.23 596.629 778.684 657.828 804.334C719.028 829.986 756.488 820.576 792.715 811.476C828.307 802.536 865.11 793.292 925.064 818.421C960.962 833.467 984.05 851.993 1001.84 871.668H1008.87C990.231 849.979 965.989 829.425 926.63 812.928C865.43 787.279 827.97 796.688 791.743 805.787Z" fill="#525154"/>
<path d="M774.309 828.272C738.637 837.506 701.749 847.055 641.803 821.929C581.856 796.802 557.703 761.669 534.346 727.691C510.568 693.104 485.98 657.337 424.774 631.683C363.567 606.027 326.013 615.749 289.699 625.148C254.026 634.384 217.137 643.931 157.192 618.805C97.2426 593.678 73.0886 558.544 49.73 524.566C35.8213 504.336 21.6263 483.708 0.0012207 464.931V472.164C19.6747 489.932 32.988 509.29 46.0486 528.287C69.8276 562.876 94.4165 598.642 155.626 624.298C216.833 649.954 254.385 640.231 290.7 630.831C326.375 621.598 363.264 612.048 423.208 637.174C483.154 662.3 507.307 697.434 530.664 731.412C554.442 766.001 579.03 801.766 640.237 827.421C701.442 853.077 738.994 843.356 775.31 833.955C810.985 824.721 847.871 815.172 907.816 840.298C929.954 849.577 947.199 860.223 961.337 871.669H969.784C954.338 858.156 935.102 845.586 909.382 834.806C848.178 809.15 810.624 818.871 774.309 828.272Z" fill="#525154"/>
<path d="M756.876 850.755C721.121 860.284 684.148 870.135 624.213 845.012C564.274 819.889 540.209 784.453 516.937 750.185C493.243 715.293 468.741 679.216 407.527 653.557C346.314 627.901 308.669 637.931 272.267 647.633C236.511 657.162 199.541 667.013 139.601 641.89C79.6608 616.764 55.5942 581.328 32.3208 547.06C22.5319 532.645 12.597 518.03 0.0012207 504.028V512.023C10.915 524.687 19.8269 537.803 28.6214 550.753C52.3165 585.643 76.818 621.723 138.036 647.38C199.25 673.039 236.891 663.008 273.295 653.308C309.05 643.779 346.022 633.927 405.961 659.05C465.9 684.173 489.965 719.61 513.237 753.878C536.931 788.768 561.433 824.846 622.647 850.505C683.86 876.161 721.501 866.131 757.905 856.43C793.661 846.901 830.635 837.05 890.57 862.173C897.78 865.194 904.457 868.369 910.691 871.668H922.13C913.202 866.374 903.283 861.352 892.136 856.68C830.922 831.022 793.28 841.055 756.876 850.755Z" fill="#525154"/>
<path d="M606.62 868.098C546.688 842.978 522.712 807.24 499.525 772.678C475.915 737.485 451.5 701.094 390.278 675.433C329.056 649.771 291.323 660.114 254.832 670.116C218.995 679.937 181.939 690.095 122.006 664.975C62.0742 639.853 38.0963 604.113 14.9091 569.552C10.0788 562.353 5.20771 555.102 0.0012207 547.904V556.795C3.8432 562.269 7.52823 567.759 11.1929 573.221C34.8042 608.415 59.2194 644.806 120.442 670.468C181.665 696.131 219.4 685.787 255.89 675.785C291.727 665.964 328.784 655.808 388.714 680.926C448.646 706.048 472.622 741.786 495.809 776.348C518.838 810.674 542.649 846.134 600.613 871.671H615.652C612.695 870.561 609.695 869.388 606.62 868.098Z" fill="#525154"/>
<path d="M745.203 871.669H769.805C788.678 867.959 809.28 866.515 834.245 871.669H856.445C808.774 856.049 776.126 863.291 745.203 871.669Z" fill="#525154"/>
<path d="M482.117 795.173C458.591 759.679 434.264 722.974 373.035 697.312C311.804 671.644 273.979 682.299 237.4 692.602C201.484 702.718 164.342 713.178 104.417 688.062C46.6488 663.846 22.3702 629.483 0.0012207 595.815V605.048C21.8455 637.536 46.9926 670.138 102.854 693.551C164.08 719.216 201.906 708.564 238.486 698.261C274.405 688.145 311.549 677.685 371.471 702.801C431.396 727.918 455.283 763.96 478.384 798.814C495.039 823.944 512.115 849.674 542.383 871.668H552.091C517.863 849.067 499.75 821.778 482.117 795.173Z" fill="#525154"/>
<path d="M464.705 817.667C441.263 781.867 417.021 744.853 355.786 719.185C294.55 693.518 256.634 704.482 219.967 715.086C183.966 725.496 146.739 736.258 86.8248 711.146C43.3891 692.939 18.938 668.83 0.0012207 643.555V652.126C18.8469 676.256 43.413 699.096 85.2602 716.636C146.495 742.302 184.411 731.339 221.078 720.735C257.078 710.326 294.302 699.563 354.221 724.675C414.139 749.79 437.937 786.134 460.953 821.278C472.066 838.248 483.365 855.49 498.692 871.668H506.182C488.846 854.505 476.664 835.928 464.705 817.667Z" fill="#525154"/>
<path d="M338.541 741.063C277.299 715.392 239.291 726.667 202.537 737.57C166.457 748.274 129.149 759.344 69.2358 734.23C37.9753 721.128 16.5815 704.883 0.0012207 687.311V695.005C16.4845 711.703 37.6015 727.119 67.6689 739.723C128.914 765.394 166.92 754.117 203.674 743.214C239.756 732.51 277.065 721.443 336.975 746.554C396.885 771.666 420.596 808.311 443.526 843.748C449.542 853.048 455.618 862.427 462.362 871.669H468.831C460.971 861.282 454.095 850.669 447.296 840.161C423.939 804.063 399.785 766.733 338.541 741.063Z" fill="#525154"/>
<path d="M321.293 762.936C260.042 737.262 221.944 748.851 185.101 760.053C148.939 771.051 111.545 782.423 51.6432 757.315C30.3836 748.405 13.7087 737.997 0.0012207 726.687V733.717C13.4811 744.41 29.7175 754.273 50.0787 762.808C111.326 788.48 149.425 776.896 186.269 765.69C222.432 754.691 259.826 743.32 319.728 768.429C379.631 793.536 403.254 830.484 426.099 866.214C427.259 868.03 428.424 869.849 429.593 871.669H435.678C433.727 868.661 431.803 865.652 429.885 862.653C406.611 826.251 382.543 788.609 321.293 762.936Z" fill="#525154"/>
<path d="M304.049 784.815C242.793 759.138 204.606 771.035 167.673 782.541C131.429 793.831 93.9517 805.508 34.0543 780.401C21.1255 774.982 9.89907 768.996 0.0012207 762.58V769.157C9.54686 775.151 20.2641 780.769 32.4885 785.894C93.7444 811.568 131.933 799.673 168.865 788.168C205.111 776.878 242.591 765.202 302.483 790.308C352.971 811.469 377.623 841.26 397.753 871.671H403.877C382.873 839.358 357.825 807.353 304.049 784.815Z" fill="#525154"/>
<path d="M286.804 806.691C225.54 781.011 187.26 793.219 150.242 805.024C113.915 816.609 76.3507 828.587 16.4641 803.486C10.6406 801.044 5.16938 798.481 0.0012207 795.818V802.117C4.71654 804.488 9.66067 806.782 14.8995 808.977C76.1638 834.657 114.443 822.449 151.462 810.644C187.786 799.059 225.352 787.08 285.239 812.184C323.33 828.148 346.669 849.153 364.453 871.669H371.047C352.494 847.113 328.174 824.031 286.804 806.691Z" fill="#525154"/>
<path d="M132.808 827.508C94.9676 839.855 59.2014 851.502 0.0012207 827.03V833.153C59.701 857.348 97.4978 845.049 134.052 833.12C172.138 820.696 208.109 808.96 267.989 834.058C293.618 844.8 312.352 857.576 327.266 871.671H334.744C318.717 855.445 298.242 840.591 269.554 828.567C208.286 802.885 169.917 815.402 132.808 827.508Z" fill="#525154"/>
<path d="M115.377 849.994C81.3607 861.342 49.0113 872.102 0.0012207 856.555V862.528C49.8235 877.864 83.7364 866.574 116.647 855.597C154.816 842.865 190.866 830.839 250.743 855.934C262.298 860.778 272.435 866.047 281.467 871.669H291.378C280.272 863.935 267.44 856.786 252.308 850.443C191.029 824.756 152.571 837.587 115.377 849.994Z" fill="#525154"/>
<path d="M100.325 871.669H118.706C146.859 863.04 176.24 858.174 217.139 871.669H233.458C174.408 847.417 136.549 859.344 100.325 871.669Z" fill="#525154"/>
<path d="M1198 0H0.0012207V871.669H1198V0Z" fill="url(#paint0_linear_12_276)"/>
</g>
<defs>
<linearGradient id="paint0_linear_12_276" x1="-6.20824" y1="954.849" x2="1446.4" y2="107.751" gradientUnits="userSpaceOnUse">
<stop offset="0.1433" stop-opacity="0"/>
<stop offset="0.3393"/>
<stop offset="0.6012" stop-opacity="0.619"/>
<stop offset="0.7272" stop-opacity="0.0315"/>
</linearGradient>
</defs>
</svg>
