<svg width="72" height="72" viewBox="0 0 72 72" fill="none" xmlns="http://www.w3.org/2000/svg">
<rect x="0.453063" y="0.453063" width="70.3389" height="70.3389" rx="35.1695" stroke="#30B778" stroke-width="0.906126"/>
<path d="M26.8726 32.7058H32.7059" stroke="#30B778" stroke-width="1.5" stroke-linecap="round" stroke-linejoin="round"/>
<path d="M50.203 36.3518C50.203 36.2395 50.2059 35.5745 50.203 35.5278C50.1505 34.7972 49.5248 34.2153 48.7373 34.1672C48.6863 34.1643 48.6265 34.1643 48.504 34.1643H44.7094C42.1063 34.1643 39.9976 36.1228 39.9976 38.5393C39.9976 40.9558 42.1078 42.9143 44.708 42.9143H48.504C48.6265 42.9143 48.6863 42.9143 48.7373 42.9114C49.5248 42.8633 50.1519 42.2814 50.203 41.5508C50.2059 41.5041 50.2059 40.8391 50.2059 40.7268" stroke="#30B778" stroke-width="1.5" stroke-linecap="round"/>
<path d="M44.3726 39.9975C45.1781 39.9975 45.831 39.3446 45.831 38.5391C45.831 37.7337 45.1781 37.0808 44.3726 37.0808C43.5672 37.0808 42.9143 37.7337 42.9143 38.5391C42.9143 39.3446 43.5672 39.9975 44.3726 39.9975Z" fill="#30B778"/>
<path d="M32.706 50.2059H37.081C42.5803 50.2059 45.3308 50.2059 47.0385 48.4968C48.2183 47.3184 48.5843 45.6443 48.6966 42.9143M48.6966 34.1643C48.5828 31.4343 48.2183 29.7601 47.0385 28.5818C45.3308 26.8726 42.5803 26.8726 37.081 26.8726H32.706C27.2066 26.8726 24.4562 26.8726 22.7485 28.5818C21.0393 30.2895 21.0393 33.0399 21.0393 38.5393C21.0393 44.0386 21.0393 46.7891 22.7485 48.4968C23.7008 49.4505 24.9768 49.872 26.8726 50.0572M26.8726 26.8726L32.3195 23.2603C33.0855 22.762 33.9797 22.4968 34.8935 22.4968C35.8073 22.4968 36.7014 22.762 37.4674 23.2603L42.9143 26.8726" stroke="#30B778" stroke-width="1.5" stroke-linecap="round"/>
</svg>
