<svg width="72" height="72" viewBox="0 0 72 72" fill="none" xmlns="http://www.w3.org/2000/svg">
<rect x="0.453063" y="0.453063" width="70.3389" height="70.3389" rx="35.1695" stroke="#30B778" stroke-width="0.906126"/>
<path d="M48.7476 36.7163V42.1851H22.4976V24.6851H33.4351V22.4976H22.4976C21.9174 22.4976 21.361 22.728 20.9508 23.1383C20.5405 23.5485 20.3101 24.1049 20.3101 24.6851V42.1851C20.3101 42.7652 20.5405 43.3216 20.9508 43.7319C21.361 44.1421 21.9174 44.3726 22.4976 44.3726H31.2476V48.7476H26.8726V50.9351H44.3726V48.7476H39.9976V44.3726H48.7476C49.3277 44.3726 49.8841 44.1421 50.2944 43.7319C50.7046 43.3216 50.9351 42.7652 50.9351 42.1851V36.7163H48.7476ZM37.8101 48.7476H33.4351V44.3726H37.8101V48.7476Z" fill="#30B778"/>
<path d="M50.9351 29.0601V26.8726H48.6371C48.496 26.1879 48.2242 25.5369 47.8365 24.9552L49.4662 23.3255L47.9196 21.779L46.2899 23.4087C45.7082 23.0209 45.0572 22.7491 44.3726 22.608V20.3101H42.1851V22.608C41.5004 22.7491 40.8494 23.0209 40.2677 23.4087L38.638 21.779L37.0915 23.3255L38.7212 24.9552C38.3334 25.5369 38.0616 26.1879 37.9205 26.8726H35.6226V29.0601H37.9205C38.0616 29.7447 38.3334 30.3957 38.7212 30.9774L37.0915 32.6071L38.638 34.1537L40.2677 32.524C40.8494 32.9117 41.5004 33.1835 42.1851 33.3246V35.6226H44.3726V33.3246C45.0572 33.1835 45.7082 32.9117 46.2899 32.524L47.9196 34.1537L49.4662 32.6071L47.8365 30.9774C48.2242 30.3957 48.496 29.7447 48.6371 29.0601H50.9351ZM43.2788 31.2476C42.6298 31.2476 41.9954 31.0551 41.4558 30.6946C40.9162 30.334 40.4957 29.8216 40.2473 29.222C39.999 28.6224 39.934 27.9627 40.0606 27.3262C40.1872 26.6897 40.4997 26.105 40.9586 25.6461C41.4175 25.1872 42.0022 24.8747 42.6387 24.7481C43.2752 24.6215 43.9349 24.6865 44.5345 24.9348C45.1341 25.1832 45.6465 25.6037 46.0071 26.1433C46.3676 26.6829 46.5601 27.3173 46.5601 27.9663C46.5592 28.8363 46.2132 29.6704 45.598 30.2855C44.9829 30.9007 44.1488 31.2467 43.2788 31.2476Z" fill="#30B778"/>
</svg>
