<svg width="72" height="72" viewBox="0 0 72 72" fill="none" xmlns="http://www.w3.org/2000/svg">
<rect x="0.453063" y="0.453063" width="70.3389" height="70.3389" rx="35.1695" stroke="#30B778" stroke-width="0.906126"/>
<path d="M45.097 31.7799C46.1225 30.7005 46.1225 28.9652 46.1225 25.491C46.1225 22.0168 46.1225 20.2815 45.097 19.202M45.097 31.7799C44.0714 32.8594 42.4229 32.8594 39.1224 32.8594H32.1224C28.8218 32.8594 27.1733 32.8594 26.1478 31.7799M45.097 19.202C44.0714 18.1226 42.4229 18.1226 39.1224 18.1226H32.1224C28.8218 18.1226 27.1733 18.1226 26.1478 19.202M26.1478 19.202C25.1223 20.2815 25.1223 22.0168 25.1223 25.491C25.1223 28.9652 25.1223 30.7005 26.1478 31.7799M37.3724 25.491C37.3724 25.9795 37.188 26.4481 36.8598 26.7935C36.5316 27.139 36.0865 27.3331 35.6224 27.3331C35.1583 27.3331 34.7131 27.139 34.3849 26.7935C34.0568 26.4481 33.8724 25.9795 33.8724 25.491C33.8724 25.0024 34.0568 24.5339 34.3849 24.1884C34.7131 23.843 35.1583 23.6489 35.6224 23.6489C36.0865 23.6489 36.5316 23.843 36.8598 24.1884C37.188 24.5339 37.3724 25.0024 37.3724 25.491Z" stroke="#30B778" stroke-width="1.35919"/>
<path d="M46.1225 23.6489C44.7301 23.6489 43.3947 23.0666 42.4101 22.0303C41.4256 20.9939 40.8724 19.5882 40.8724 18.1226M46.1225 27.3331C44.7301 27.3331 43.3947 27.9153 42.4101 28.9517C41.4256 29.9881 40.8724 31.3937 40.8724 32.8594M25.1223 23.6489C26.5147 23.6489 27.8501 23.0666 28.8347 22.0303C29.8192 20.9939 30.3724 19.5882 30.3724 18.1226M25.1223 27.3331C26.5147 27.3331 27.8501 27.9153 28.8347 28.9517C29.8192 29.9881 30.3724 31.3937 30.3724 32.8594M23.3723 50.1531H27.3273C29.0949 50.1531 30.8851 50.3483 32.6054 50.7205C35.6767 51.3846 38.8368 51.4583 41.9329 50.9378C43.452 50.6799 44.943 50.2839 46.294 49.5986C47.512 48.9778 49.0047 48.1065 50.0075 47.1283C51.0085 46.152 52.0515 44.5549 52.79 43.306C53.427 42.2339 53.119 40.9205 52.1145 40.1228C51.5501 39.6906 50.87 39.4578 50.172 39.4578C49.474 39.4578 48.794 39.6906 48.2295 40.1228L45.0672 42.6373C43.8422 43.6136 42.5035 44.5107 40.9092 44.7778C40.7167 44.8091 40.5154 44.8386 40.3054 44.8644M40.3054 44.8644C40.2413 44.8722 40.1771 44.8796 40.1129 44.8865M40.3054 44.8644C40.5855 44.7847 40.8424 44.6327 41.0527 44.4223C41.3164 44.1822 41.5317 43.8888 41.686 43.5597C41.8403 43.2305 41.9303 42.8721 41.9509 42.5057C41.9714 42.1393 41.9221 41.7723 41.8057 41.4263C41.6893 41.0803 41.5082 40.7624 41.2732 40.4912C41.0451 40.2247 40.7795 39.9967 40.4857 39.8152C35.5909 36.7407 27.9731 39.082 23.3723 42.5176M40.3054 44.8644C40.2422 44.8789 40.1777 44.8863 40.1129 44.8865M40.1129 44.8865C39.0575 44.9982 37.9943 45.0006 36.9384 44.8939" stroke="#30B778" stroke-width="1.35919" stroke-linecap="round"/>
<path d="M23.3726 41.1489C23.3726 39.6229 22.1973 38.3857 20.7476 38.3857C19.2978 38.3857 18.1226 39.6229 18.1226 41.1489V50.3594C18.1226 51.8855 19.2978 53.1226 20.7476 53.1226C22.1973 53.1226 23.3726 51.8855 23.3726 50.3594V41.1489Z" stroke="#30B778" stroke-width="1.35919"/>
</svg>
