<?xml version="1.0" encoding="utf-8"?>
<!-- Generator: Adobe Illustrator 26.3.1, SVG Export Plug-In . SVG Version: 6.00 Build 0)  -->
<svg version="1.1" id="Слой_2" xmlns="http://www.w3.org/2000/svg" xmlns:xlink="http://www.w3.org/1999/xlink" x="0px" y="0px"
	 viewBox="0 0 747.4 315.7" style="enable-background:new 0 0 747.4 315.7;" xml:space="preserve">
<style type="text/css">
	.st0{fill:#30B677;}
	.st1{fill:none;stroke:#1C6641;stroke-miterlimit:10;}
</style>
<g>
	<path class="st0" d="M425.9,237.2h-14.6l-12.7-34.5h-39.1l-12.9,34.5h-8.4l37-98.5h14.6L425.9,237.2z M395.7,194.8l-16.3-44.7
		l-16.9,44.7H395.7z"/>
	<path class="st0" d="M465.7,232.2c-4.7,4.2-9.4,6.3-14.1,6.3c-3.8,0-6.7-1.9-8.7-5.6c-1.9-3.7-2.9-8.2-2.9-13.4v-38.4H431v-6.6
		c4.6,0,8.2-2.2,10.7-6.5c2.5-4.3,3.8-9.4,3.8-15.3h7.9v21.1h12.4v7.3h-12.4v38.4c0,7.4,1.6,11.1,4.9,11.1c2.3,0,4.8-1.2,7.5-3.7
		V232.2z"/>
	<path class="st0" d="M532.6,237.2h-13.2v-45.7c0-3.1-1-5.7-3.1-7.9c-2.1-2.2-4.6-3.2-7.6-3.2c-5.3,0-10.6,2.9-15.9,8.7v48.1h-13.2
		v-98.5h13.2v45.1c7.2-7.6,14.5-11.4,21.8-11.4c5.1,0,9.3,1.9,12.8,5.6c3.5,3.8,5.2,8.2,5.2,13.4V237.2z"/>
	<path class="st0" d="M605.9,206.9h-42.1c0,7.4,1,13.2,3,17.4c2,4.2,5.6,6.3,10.8,6.3c7.1,0,14-1.8,20.5-5.5v7.3
		c-6.4,4-13.2,6-20.5,6c-8.5,0-15.4-3-20.6-9.1c-5.2-6-7.8-14-7.8-24c0-9.9,2.6-17.9,7.8-24s12.1-9.1,20.6-9.1
		c8.4,0,15.3,3,20.5,9.1s7.8,14,7.8,24V206.9z M591.3,200.3c0-5.5-1.2-10.3-3.7-14.4c-2.4-4.1-5.8-6.1-10-6.1c-4.3,0-7.7,2-10.1,6.1
		c-2.4,4.1-3.7,8.9-3.7,14.4H591.3z"/>
	<path class="st0" d="M675.4,237.2h-13.2v-45.7c0-3.1-1-5.7-3.1-7.9c-2.1-2.2-4.6-3.2-7.6-3.2c-5.3,0-10.6,2.9-15.9,8.7v48.1h-13.2
		v-63.3h13.2v10c7.2-7.6,14.5-11.4,21.8-11.4c5.1,0,9.3,1.9,12.8,5.6c3.5,3.8,5.2,8.2,5.2,13.4V237.2z"/>
	<path class="st0" d="M747.4,237.2h-13.2v-6.3c-6.5,5.2-12.9,7.7-19.4,7.7c-7.2,0-13-1.8-17.4-5.5c-4.4-3.7-6.6-8.8-6.6-15.5
		c0-6.8,2.4-12.1,7.2-15.7c4.8-3.6,11.1-5.4,19-5.4c5.7,0,11.5,1.3,17.3,3.8v-2.5c0-4.7-1.3-8.8-3.9-12.2c-2.6-3.5-5.9-5.2-9.9-5.2
		c-6.8,0-13.7,1.7-20.7,5.2v-5.2c8.8-5.3,17.5-7.9,26.2-7.9c6.2,0,11.3,2.5,15.4,7.5c4.1,5,6.1,10.9,6.1,17.8V237.2z M734.2,206.9
		c-4.7-2.1-9.5-3.1-14.3-3.1c-3.9,0-7.3,1.3-10.2,4c-2.9,2.7-4.3,5.9-4.3,9.8c0,3.8,1.4,7,4.3,9.6c2.9,2.7,6.3,4,10.2,4
		c4.9,0,9.7-2.3,14.3-7V206.9z"/>
</g>
<g>
	<g>
		<g>
			<path class="st0" d="M391,114.5c0,0-21.6-5.4-52.7-3.6c-7.6,0.4-15.9,1.3-24.5,2.9h0c-18.9-30.7-52.1-51.5-90.3-53.3
				c-1.7-0.1-3.5-0.1-5.2-0.1c-34,0-64.5,15.2-85.1,39.1c-8.5,9.8-15.2,21.1-19.9,33.5c-4.7,12.3-7.2,25.7-7.2,39.7
				c0,9,1,17.7,3,26.1l-25.9,8.9l-36.9,12.6c-2.7-12.3-4.1-25.1-4.1-38.3c0-45.3,16.6-86.7,44.2-118.5C119.5,25.2,168.4,1,223,1h0.4
				C299.4,1.2,364.3,48.1,391,114.5z"/>
			<path class="st0" d="M299.2,117c-4.4,1.1-8.8,2.4-13.3,3.8c-15.6-18.1-38.7-29.6-64.4-29.6c-46.9,0-85,38.1-85,85
				c0,4.3,0.3,8.6,1,12.8l-13.7,4.7c-1.1-6-1.7-12.2-1.7-18.5c0-54.2,43.9-98.2,98.1-98.2C252.6,77.1,281.3,92.7,299.2,117z"/>
			<path class="st0" d="M323.9,210.4L323.9,210.4c-0.2-0.1-4.6-1.6-10.6-4c-3.2-1.3-7-2.8-10.7-4.5c-2.1-0.9-4.2-1.9-6.3-3
				c-3.8-1.9-7.5-3.9-10.4-5.8l8.4-3l4-1.4l7.8-2.8c0,0-1-1.8-3.1-4.1c-1.1-1.2-2.5-2.5-4.2-3.7c-6.1-4.4-16.1-7.9-30.3-1.2
				c-1.5,0.7-3.1,1.5-4.7,2.5l20.8,44.5l2.9,6.2l5.3,11.4l5,10.6l9.5,20.3l4.1,8.8c0,0-14.1-4.9-33.7-13.1c-4-1.7-8.2-3.5-12.6-5.4
				c-4.6-2-9.4-4.2-14.3-6.5c-2.3-1.1-4.6-2.1-6.9-3.3c-0.5-0.3-1.1-0.5-1.6-0.8c-17-8.3-34.5-17.9-49.1-28.1c3-1,5.7-1.9,8.1-2.7
				c8.4-2.7,13.3-4,13.5-4.1l2.9-6.2l8.5-18.6l-31.6,10.8l-34.8,11.9l-11.6,4l-13.3,4.5l-14.1,4.8l-27.5,9.4l-37.5,12.8l-0.6,0.2
				L0,270.5c0-7.6,0-13,0-20l49.2-16.8l0.4-0.1l37-12.6l26.4-9l14.3-4.9l13.3-4.5l12.6-4.3c-0.4-1.6-0.7-3.2-1-4.9
				c-0.5-2.9-0.9-5.9-1-8.9c-0.1-1.3-0.1-2.7-0.1-4c0-12.4,3-24.1,8.5-34.3c0,0,0,0,0,0c0,0,0,0,0,0c3.2-6.1,7.3-11.7,12.1-16.7
				c13.1-13.7,31.5-22.3,51.9-22.7c0.5,0,0.9,0,1.4,0c17,0,32.6,5.7,45,15.3c1.4,1,2.7,2.2,4,3.3c-11.9,4.7-24,10.9-36,18.9
				c-4.9,3.2-9.7,6.7-14.4,10.6c-2.1,1.7-4.1,3.4-6.2,5.2l-7.7-1.3l-14.1-2.4l24.7,19.1l0.3,0.2l0,0l0,0c0.5-0.4,8.6-7.9,23.2-16.7
				c2.8-1.7,5.8-3.4,9-5.1c9.3-5,20.5-10.1,33.4-14.3c3.3-1.1,6.8-2.1,10.3-3.1c4-1.1,8.1-2.1,12.4-3c0.1,1.5,2.4,30.3,8.5,55.9
				c1,4.5,2.2,8.8,3.5,12.9C321.8,205,322.8,207.8,323.9,210.4z"/>
			<path class="st0" d="M216.6,253.7c-5.4,1.6-10.7,3.3-15.8,5c-6.6,2.2-13,4.5-19.1,6.8h0c-5.5,2.1-10.9,4.2-16,6.4
				c-12,5-23,10.3-33,15.6C118.4,295,106,302.6,95.3,310c-0.3,0.2-0.6,0.4-1,0.7h0c-33.2-3.1-62.2,4.8-63,5
				c12.6-12,26.4-22.9,40.6-32.6c0.2-0.2,0.5-0.3,0.8-0.5c11.5-7.8,23.2-14.8,34.7-21.1c9.2-5.1,18.4-9.7,27.2-13.9
				c4.5-2.1,9-4.1,13.3-6c4.5-2,8.9-3.9,13.2-5.6c3.7-1.5,7.3-3,10.8-4.3C183.4,243.7,199.1,251.7,216.6,253.7z"/>
		</g>
	</g>
</g>
</svg>
