<?xml version="1.0" encoding="utf-8"?>
<!-- Generator: Adobe Illustrator 26.3.1, SVG Export Plug-In . SVG Version: 6.00 Build 0)  -->
<svg version="1.1" id="Слой_1" xmlns="http://www.w3.org/2000/svg" xmlns:xlink="http://www.w3.org/1999/xlink" x="0px" y="0px"
	 viewBox="0 0 1080 462" style="enable-background:new 0 0 1080 462;" xml:space="preserve">
<style type="text/css">
	.st0{fill:none;stroke:#1D1D1B;stroke-miterlimit:10;}
	.st1{fill:#30B677;}
</style>
<line class="st0" x1="50.1" y1="309.6" x2="50.1" y2="308.8"/>
<g>
	<g>
		<g>
			<g>
				<path class="st1" d="M548.8,171.6"/>
				<path class="st1" d="M622.5,418.8"/>
			</g>
		</g>
		<g>
			<path class="st1" d="M545.1,162.8c1.6,3.7-1.5,7.7-5.4,7c-12.6-2.2-37.6-5.3-69.1-3.5c-8.8,0.5-17.4,1.4-33.1,3.8
				c-2,0.3-3.9-0.6-5-2.3c-28.3-44-76.8-73.8-132.4-76.4c-2.6-0.1-5.2-0.2-7.8-0.2c-50.5,0-95.8,22.5-126.3,58
				c-12.5,14.6-22.6,31.4-29.5,49.7s-10.7,38.2-10.7,58.9c0,11.8,1.2,23.3,3.5,34.4c0.5,2.5-0.9,4.9-3.3,5.8l-34.3,11.7l-49.3,16.9
				c-2.9,1-6-0.8-6.5-3.8c-3.2-16.6-4.8-33.7-4.8-51.2c0-67.2,24.7-128.7,65.6-175.8c49.2-56.8,121.9-92.7,203-92.7h0.6
				C409.4,3.4,503.4,68.9,545.1,162.8z"/>
			<path class="st1" d="M409,176.1c-4.8,1.3-9.6,2.7-14.5,4.3c-1,0.3-2,0-2.7-0.7c-23.1-26.2-56.9-42.7-94.5-42.7
				c-69.7,0-126.2,56.5-126.2,126.2c0,5.8,0.4,11.4,1.1,17c0.2,1.2-0.5,2.3-1.7,2.7l-15.6,5.3c-1.4,0.5-3-0.4-3.3-1.9
				c-1.4-8-2.1-16.1-2.1-24.5c0-80.5,65.2-145.7,145.7-145.7c46.7,0,88.4,22,115,56.2C411.4,173.6,410.7,175.7,409,176.1z"/>
			<path class="st1" d="M447.3,308.9c0.7,2-1.2,3.8-3.2,3.1c-2.7-1-6.4-2.4-10.6-4c-4.8-2-10.3-4.2-15.9-6.8
				c-3.1-1.4-6.3-2.9-9.4-4.4c-4.2-2.1-8.3-4.2-11.9-6.4c-1.5-0.9-1.2-3,0.4-3.6l8.5-3l5.9-2.1l9.2-3.3c1.3-0.5,1.7-2,0.9-3.1
				c-0.8-1-1.8-2.4-3.2-3.8c-1.7-1.8-3.8-3.7-6.3-5.6c-9.1-6.6-24-11.7-45-1.8c-0.9,0.4-1.8,0.9-2.7,1.4c-2.4,1.2-3.3,4.1-2.2,6.5
				l28.9,61.8l4.3,9.2l7.9,16.9l7.4,15.7l14.1,30.1l3.6,7.7c0.9,2-1,4.2-3.1,3.4c-8.1-3-24.3-9.1-44.3-17.5
				c-5.9-2.5-12.2-5.1-18.7-8c-6.9-3-14-6.2-21.2-9.6c-3.4-1.6-6.8-3.2-10.2-4.8c-0.8-0.4-1.6-0.8-2.4-1.2
				c-23.6-11.5-47.9-24.7-68.7-38.8c-1.7-1.2-1.4-3.8,0.6-4.5c2.6-0.9,5.1-1.6,7.3-2.4c8.6-2.8,14.8-4.6,17.9-5.4
				c1.4-0.4,2.6-1.4,3.2-2.7l3.2-7l10.2-22.2c0.9-2-1-4.1-3.1-3.4l-41.3,14.1L205.6,321l-17.3,5.9l-19.7,6.7l-20.9,7.1l-40.9,14
				l-55.7,19.1l-0.2,0.1l-44.3,15C3.4,390,0,387.6,0,384.1v-18c0-2.1,1.4-4,3.4-4.7L42,348.3l0.2-0.1L97,329.5l39.2-13.4l21.3-7.3
				l19.7-6.8l14.5-5c2.4-0.8,3.8-3.2,3.3-5.7c-0.2-1-0.4-2-0.5-3.1c-0.8-4.3-1.3-8.7-1.5-13.2c-0.1-2-0.1-4-0.1-6
				c0-18.4,4.5-35.7,12.6-51l0,0l0,0c4.8-9.1,10.8-17.4,17.9-24.8c19.5-20.3,46.7-33.1,77-33.7c0.7,0,1.4,0,2.1,0
				c25.2,0,48.4,8.5,66.8,22.8c0.9,0.7,1.8,1.5,2.7,2.2c1.5,1.2,1.1,3.5-0.6,4.2c-16.5,6.8-33.1,15.5-49.6,26.6
				c-7.2,4.8-14.3,10-21.4,15.7c-2.8,2.3-5.5,4.5-8.3,6.9c-0.6,0.5-1.3,0.7-2,0.6l-10.2-1.7h0c-5.4-0.9-8.5,6.1-4.1,9.4l17.2,13.2
				c1.9,1.4,4.5,1.4,6.3-0.1c4.9-4.1,15.6-12.6,31.5-22.2c4.1-2.5,8.6-5,13.4-7.6c13.9-7.4,30.5-14.9,49.6-21.2
				c4.9-1.6,10-3.2,15.3-4.6c5-1.4,10.3-2.7,15.7-3.8c1.4-0.3,2.8,0.7,3,2.2c0.9,10.4,4.4,47.1,12.3,80.1c1.6,6.6,3.3,13.1,5.3,19.2
				C445.7,304.1,446.4,306.5,447.3,308.9z"/>
			<path class="st1" d="M279.5,376.4c2.5,0.5,2.7,4.1,0.3,4.8c-4.5,1.4-8.9,2.9-13.3,4.4c-9.8,3.3-19.3,6.7-28.4,10.2l0,0
				c-8.2,3.1-16.1,6.3-23.8,9.5c-17.8,7.5-34.1,15.2-49,23.1c-20.4,10.7-38.3,21.6-53.8,32.3c-1.1,0.8-2.7,1.5-3.8,0.8
				c-21.6-13.6-53.2-10.8-65.3-9.3c-2.5,0.3-3.9-2.8-1.9-4.4c11.5-9.3,23.4-18.1,35.5-26.3c0.1-0.1,0.2-0.1,0.3-0.2
				c17-11.5,34.4-22,51.4-31.4c13.7-7.5,27.3-14.4,40.4-20.6c6.7-3.2,13.3-6.2,19.7-9c6.7-3,13.3-5.7,19.5-8.3c5-2.1,9.8-4,14.5-5.8
				c0.9-0.4,1.9-0.1,2.6,0.6C239.4,361.4,258.4,371.9,279.5,376.4z"/>
		</g>
	</g>
</g>
<g>
	<path class="st1" d="M589.6,311h-18.9v-25.6h-66.5V311h-18.9v-52.2c0-7.6,1.3-14.6,3.9-21c2.6-6.4,6.3-11.9,10.9-16.5
		c4.7-4.6,10.2-8.2,16.5-10.8c6.4-2.6,13.3-3.9,20.8-3.9h42.6c1.3,0,2.5,0.2,3.7,0.7c1.2,0.5,2.2,1.2,3.1,2c0.9,0.9,1.6,1.9,2,3.1
		c0.5,1.2,0.7,2.4,0.7,3.7V311z M504.2,266.4h66.5v-40.9h-33.3c-0.6,0-1.8,0.1-3.7,0.3c-1.9,0.2-4,0.6-6.5,1.3
		c-2.5,0.7-5,1.7-7.8,3.1c-2.7,1.4-5.2,3.3-7.5,5.8c-2.3,2.5-4.2,5.6-5.6,9.3c-1.5,3.7-2.2,8.2-2.2,13.5V266.4z"/>
	<path class="st1" d="M681,251.2h-33V311h-19.1v-59.7h-24.6v-18.9h24.6v-25.7H648v25.7h33V251.2z"/>
	<path class="st1" d="M712.7,311h-18.9V199h18.9V311z M780.9,311H762v-52.2c0-2.5-0.6-4.4-1.9-5.6c-1.3-1.3-3.2-1.9-5.7-1.9h-34.1
		v-18.9h34.1c1.8,0,3.7,0.2,5.7,0.6c2,0.4,4,1.1,5.9,1.9c2,0.9,3.8,2,5.6,3.4c1.8,1.4,3.4,3.1,4.7,5s2.4,4.2,3.3,6.8
		c0.8,2.6,1.2,5.5,1.2,8.7V311z"/>
	<path class="st1" d="M882.9,258.4c0,2.6-0.5,5.4-1.4,8.5s-2.4,5.8-4.5,8.4c-2.1,2.6-4.8,4.8-8.1,6.5c-3.3,1.7-7.4,2.6-12.1,2.6
		h-34.1v-18h34.1c2.6,0,4.6-0.8,6-2.4c1.4-1.6,2.1-3.5,2.1-5.9c0-2.5-0.8-4.4-2.4-5.8c-1.6-1.4-3.5-2.1-5.7-2.1h-34.1
		c-2.6,0-4.6,0.8-6,2.4c-1.4,1.6-2.1,3.5-2.1,5.9v26.4c0,2.5,0.8,4.5,2.4,5.9c1.6,1.4,3.5,2.1,5.9,2.1h34v18h-34.1
		c-2.6,0-5.4-0.5-8.5-1.4c-3-0.9-5.8-2.4-8.4-4.5c-2.6-2.1-4.8-4.8-6.5-8.1c-1.7-3.3-2.6-7.4-2.6-12.1v-26.6c0-2.6,0.5-5.4,1.4-8.5
		c0.9-3,2.4-5.8,4.5-8.4c2.1-2.6,4.8-4.8,8.1-6.5c3.3-1.7,7.4-2.6,12.1-2.6h34.1c2.6,0,5.4,0.5,8.5,1.4c3,0.9,5.8,2.4,8.4,4.5
		c2.6,2.1,4.8,4.8,6.5,8.1C882,249.6,882.9,253.6,882.9,258.4z"/>
	<path class="st1" d="M982.8,311h-18.9v-43.7c0-2.5-0.4-4.7-1.3-6.7c-0.8-2-2-3.6-3.5-5.1c-1.5-1.4-3.2-2.5-5.1-3.2
		c-2-0.8-4.1-1.1-6.4-1.1h-33.1V311h-18.9v-69.3c0-1.3,0.2-2.5,0.7-3.7c0.5-1.1,1.2-2.1,2-3c0.9-0.8,1.9-1.5,3.1-2
		c1.2-0.5,2.4-0.7,3.7-0.7h42.6c2.4,0,4.9,0.3,7.5,0.8c2.6,0.5,5.3,1.4,7.9,2.6c2.6,1.2,5.1,2.7,7.4,4.5c2.4,1.8,4.4,4,6.3,6.6
		c1.8,2.6,3.3,5.6,4.3,9c1.1,3.4,1.6,7.2,1.6,11.5V311z"/>
	<path class="st1" d="M1080.6,284.9c0,2.6-0.5,5.4-1.4,8.5c-0.9,3-2.4,5.8-4.5,8.4c-2.1,2.6-4.8,4.8-8.1,6.5
		c-3.3,1.7-7.4,2.6-12.1,2.6h-34.1c-2.6,0-5.4-0.5-8.5-1.4c-3-0.9-5.8-2.4-8.4-4.5c-2.6-2.1-4.8-4.8-6.5-8.1
		c-1.7-3.3-2.6-7.4-2.6-12.1c0-2.6,0.5-5.5,1.4-8.5c0.9-3.1,2.4-5.9,4.5-8.5c2.1-2.6,4.8-4.8,8.1-6.5c3.3-1.7,7.4-2.6,12.1-2.6h34.1
		v18h-34.1c-2.6,0-4.6,0.8-6,2.4c-1.4,1.6-2.1,3.5-2.1,5.9c0,2.5,0.8,4.4,2.4,5.8c1.6,1.4,3.6,2.1,5.8,2.1h34c2.6,0,4.6-0.8,6-2.3
		c1.4-1.6,2.1-3.5,2.1-5.8v-26.4c0-2.5-0.8-4.4-2.3-5.9c-1.5-1.5-3.5-2.2-5.8-2.2H1013v-18h41.6c2.6,0,5.4,0.5,8.5,1.4
		c3,0.9,5.8,2.4,8.4,4.5c2.6,2.1,4.8,4.8,6.5,8.1c1.7,3.3,2.6,7.4,2.6,12.1V284.9z"/>
</g>
</svg>
