<svg width="94" height="31" viewBox="0 0 94 31" fill="none" xmlns="http://www.w3.org/2000/svg">
<path d="M1 28.3851C4.05467 25.03 7.10933 21.6736 10.164 21.6212C13.2187 21.5688 16.2733 24.8204 19.328 27.1382C22.3827 29.456 25.4373 30.8399 28.492 30.0223C31.5467 29.2047 34.6013 26.1855 37.656 21.628C40.7107 17.0705 43.7653 10.9746 46.82 10.881C49.8747 10.7874 52.9293 16.6961 55.984 19.4988C59.0387 22.3016 62.0933 21.9984 65.148 19.1789C68.2027 16.3594 71.2573 11.0236 74.312 12.4529C77.3667 13.8822 80.4213 22.0767 83.476 21.2955C86.5307 20.5142 89.5853 10.7571 91.1127 5.87854L92.64 1" stroke="#59AD18"/>
</svg>
