<svg width="72" height="72" viewBox="0 0 72 72" fill="none" xmlns="http://www.w3.org/2000/svg">
<rect x="0.453063" y="0.453063" width="70.3389" height="70.3389" rx="35.1695" stroke="#30B778" stroke-width="0.906126"/>
<path d="M34.5288 48.8159C35.0757 48.8159 35.634 48.7988 36.2036 48.7646C36.4884 49.5166 36.8416 50.2173 37.2632 50.8667C36.8075 50.9123 36.3517 50.9465 35.896 50.9692C35.4403 50.992 34.9845 51.0034 34.5288 51.0034C33.0021 51.0034 31.5096 50.8781 30.0513 50.6274C29.6297 50.5591 29.1512 50.4622 28.6157 50.3369C28.0802 50.2116 27.5334 50.0464 26.9751 49.8413C26.4168 49.6362 25.87 49.4027 25.3345 49.1406C24.799 48.8786 24.3205 48.5653 23.8989 48.2007C23.4774 47.8361 23.1413 47.443 22.8906 47.0215C22.64 46.5999 22.509 46.1043 22.4976 45.5347V25.8472C22.4976 25.3345 22.6058 24.8787 22.8223 24.48C23.0387 24.0812 23.3293 23.7052 23.6938 23.3521C24.0812 22.9647 24.5426 22.6229 25.0781 22.3267C25.6136 22.0304 26.2004 21.7741 26.8384 21.5576C27.4764 21.3411 28.1315 21.1532 28.8037 20.9937C29.4759 20.8341 30.1538 20.7145 30.8374 20.6348C31.521 20.555 32.1704 20.4924 32.7856 20.4468C33.4009 20.4012 33.9819 20.3784 34.5288 20.3784C35.3491 20.3784 36.2549 20.424 37.2461 20.5151C38.2373 20.6063 39.2342 20.7601 40.2368 20.9766C41.2394 21.193 42.1908 21.5007 43.0908 21.8994C43.9909 22.2982 44.7485 22.7824 45.3638 23.3521C45.717 23.6825 46.0018 24.0584 46.2183 24.48C46.4347 24.9015 46.5487 25.3573 46.5601 25.8472V35.6226H44.3726V29.0942C43.689 29.5158 42.9427 29.869 42.1338 30.1538C41.3249 30.4386 40.4875 30.6665 39.6216 30.8374C38.7557 31.0083 37.8898 31.1279 37.0239 31.1963C36.158 31.2646 35.3263 31.3045 34.5288 31.3159C33.7427 31.3159 32.9167 31.2817 32.0508 31.2134C31.1849 31.145 30.3133 31.0197 29.436 30.8374C28.5588 30.6551 27.7214 30.4272 26.9238 30.1538C26.1263 29.8804 25.38 29.5272 24.6851 29.0942V45.5347C24.6851 45.7625 24.7648 45.9733 24.9243 46.167C25.0838 46.3607 25.249 46.5202 25.4199 46.6455C25.9554 47.0671 26.6048 47.4146 27.3682 47.688C28.1315 47.9614 28.9404 48.1836 29.7949 48.3545C30.6494 48.5254 31.4868 48.645 32.3071 48.7134C33.1274 48.7817 33.868 48.8159 34.5288 48.8159ZM34.5288 22.5659C33.9478 22.5659 33.3439 22.583 32.7173 22.6172C32.0907 22.6514 31.4526 22.7197 30.8032 22.8223C30.1538 22.9248 29.5272 23.0501 28.9233 23.1982C28.3195 23.3464 27.7441 23.5343 27.1973 23.7622C27.0264 23.8306 26.7985 23.9331 26.5137 24.0698C26.2288 24.2065 25.9497 24.3717 25.6763 24.5654C25.4028 24.7591 25.1693 24.9585 24.9756 25.1636C24.7819 25.3687 24.6851 25.5965 24.6851 25.8472C24.6851 25.9383 24.7021 26.0238 24.7363 26.1035C24.7705 26.1833 24.8161 26.263 24.873 26.3428C25.1237 26.7074 25.4826 27.0321 25.9497 27.3169C26.4168 27.6017 26.9409 27.8467 27.522 28.0518C28.103 28.2568 28.7183 28.4277 29.3677 28.5645C30.0171 28.7012 30.6608 28.8094 31.2988 28.8892C31.9368 28.9689 32.5293 29.0316 33.0762 29.0771C33.623 29.1227 34.1073 29.1398 34.5288 29.1284C34.9276 29.1284 35.4061 29.1113 35.9644 29.0771C36.5226 29.043 37.1208 28.986 37.7588 28.9062C38.3968 28.8265 39.0348 28.7126 39.6729 28.5645C40.3109 28.4163 40.9318 28.2454 41.5356 28.0518C42.1395 27.8581 42.6579 27.6188 43.0908 27.334C43.5238 27.0492 43.8883 26.7188 44.1846 26.3428C44.2415 26.263 44.2871 26.1833 44.3213 26.1035C44.3555 26.0238 44.3726 25.9383 44.3726 25.8472C44.3726 25.6079 44.2757 25.38 44.082 25.1636C43.8883 24.9471 43.6548 24.7477 43.3813 24.5654C43.1079 24.3831 42.8288 24.2236 42.5439 24.0869C42.2591 23.9502 42.0312 23.842 41.8604 23.7622C41.3249 23.5457 40.7495 23.3634 40.1343 23.2153C39.519 23.0672 38.8924 22.9419 38.2544 22.8394C37.6164 22.7368 36.984 22.6685 36.3574 22.6343C35.7308 22.6001 35.1213 22.5773 34.5288 22.5659ZM50.8325 44.4238C50.9009 44.7656 50.9351 45.1131 50.9351 45.4663C50.9351 45.8195 50.9009 46.167 50.8325 46.5088L52.9517 47.3804L52.1143 49.4141L49.9951 48.5254C49.5964 49.1064 49.1064 49.5964 48.5254 49.9951L49.4141 52.1143L47.3804 52.9517L46.5088 50.8325C46.167 50.9009 45.8195 50.9351 45.4663 50.9351C45.1131 50.9351 44.7656 50.9009 44.4238 50.8325L43.5522 52.9517L41.5186 52.1143L42.4072 49.9951C41.8262 49.5964 41.3363 49.1064 40.9375 48.5254L38.8184 49.4141L37.981 47.3804L40.1001 46.5088C40.0317 46.167 39.9976 45.8195 39.9976 45.4663C39.9976 45.1131 40.0317 44.7656 40.1001 44.4238L37.981 43.5522L38.8184 41.5186L40.9375 42.4072C41.3363 41.8262 41.8262 41.3363 42.4072 40.9375L41.5186 38.8184L43.5522 37.981L44.4238 40.1001C44.7656 40.0317 45.1131 39.9976 45.4663 39.9976C45.8195 39.9976 46.167 40.0317 46.5088 40.1001L47.3804 37.981L49.4141 38.8184L48.5254 40.9375C49.1064 41.3363 49.5964 41.8262 49.9951 42.4072L52.1143 41.5186L52.9517 43.5522L50.8325 44.4238ZM45.4663 48.7476C45.922 48.7476 46.3493 48.6621 46.748 48.4912C47.1468 48.3203 47.4943 48.0868 47.7905 47.7905C48.0868 47.4943 48.3203 47.1468 48.4912 46.748C48.6621 46.3493 48.7476 45.922 48.7476 45.4663C48.7476 45.0106 48.6621 44.5833 48.4912 44.1846C48.3203 43.7858 48.0868 43.4383 47.7905 43.1421C47.4943 42.8459 47.1468 42.6123 46.748 42.4414C46.3493 42.2705 45.922 42.1851 45.4663 42.1851C45.0106 42.1851 44.5833 42.2705 44.1846 42.4414C43.7858 42.6123 43.4383 42.8459 43.1421 43.1421C42.8459 43.4383 42.6123 43.7858 42.4414 44.1846C42.2705 44.5833 42.1851 45.0106 42.1851 45.4663C42.1851 45.922 42.2705 46.3493 42.4414 46.748C42.6123 47.1468 42.8459 47.4943 43.1421 47.7905C43.4383 48.0868 43.7858 48.3203 44.1846 48.4912C44.5833 48.6621 45.0106 48.7476 45.4663 48.7476Z" fill="#30B778"/>
</svg>
