<svg width="72" height="72" viewBox="0 0 72 72" fill="none" xmlns="http://www.w3.org/2000/svg">
<rect x="0.453063" y="0.453063" width="70.3389" height="70.3389" rx="35.1695" stroke="#30B778" stroke-width="0.906126"/>
<g clip-path="url(#clip0_309_10501)">
<path d="M36.7163 37.8101V35.6226H34.5288V37.8101H21.4038V44.3726H23.5913V39.9976H34.5288V44.3726H36.7163V39.9976H47.6538V44.3726H49.8413V37.8101H36.7163Z" fill="#30B778"/>
<path d="M22.4976 53.1226C21.6273 53.1226 20.7927 52.7769 20.1774 52.1615C19.562 51.5462 19.2163 50.7116 19.2163 49.8413C19.2163 48.9711 19.562 48.1365 20.1774 47.5211C20.7927 46.9058 21.6273 46.5601 22.4976 46.5601C23.3678 46.5601 24.2024 46.9058 24.8178 47.5211C25.4331 48.1365 25.7788 48.9711 25.7788 49.8413C25.7788 50.7116 25.4331 51.5462 24.8178 52.1615C24.2024 52.7769 23.3678 53.1226 22.4976 53.1226ZM22.4976 48.7476C22.2075 48.7476 21.9293 48.8628 21.7242 49.0679C21.519 49.273 21.4038 49.5512 21.4038 49.8413C21.4038 50.1314 21.519 50.4096 21.7242 50.6147C21.9293 50.8198 22.2075 50.9351 22.4976 50.9351C22.7876 50.9351 23.0658 50.8198 23.271 50.6147C23.4761 50.4096 23.5913 50.1314 23.5913 49.8413C23.5913 49.5512 23.4761 49.273 23.271 49.0679C23.0658 48.8628 22.7876 48.7476 22.4976 48.7476ZM35.6226 53.1226C34.7523 53.1226 33.9177 52.7769 33.3024 52.1615C32.687 51.5462 32.3413 50.7116 32.3413 49.8413C32.3413 48.9711 32.687 48.1365 33.3024 47.5211C33.9177 46.9058 34.7523 46.5601 35.6226 46.5601C36.4928 46.5601 37.3274 46.9058 37.9428 47.5211C38.5581 48.1365 38.9038 48.9711 38.9038 49.8413C38.9038 50.7116 38.5581 51.5462 37.9428 52.1615C37.3274 52.7769 36.4928 53.1226 35.6226 53.1226ZM35.6226 48.7476C35.3325 48.7476 35.0543 48.8628 34.8492 49.0679C34.644 49.273 34.5288 49.5512 34.5288 49.8413C34.5288 50.1314 34.644 50.4096 34.8492 50.6147C35.0543 50.8198 35.3325 50.9351 35.6226 50.9351C35.9126 50.9351 36.1908 50.8198 36.396 50.6147C36.6011 50.4096 36.7163 50.1314 36.7163 49.8413C36.7163 49.5512 36.6011 49.273 36.396 49.0679C36.1908 48.8628 35.9126 48.7476 35.6226 48.7476ZM48.7476 53.1226C47.8773 53.1226 47.0427 52.7769 46.4274 52.1615C45.812 51.5462 45.4663 50.7116 45.4663 49.8413C45.4663 48.9711 45.812 48.1365 46.4274 47.5211C47.0427 46.9058 47.8773 46.5601 48.7476 46.5601C49.6178 46.5601 50.4524 46.9058 51.0678 47.5211C51.6831 48.1365 52.0288 48.9711 52.0288 49.8413C52.0288 50.7116 51.6831 51.5462 51.0678 52.1615C50.4524 52.7769 49.6178 53.1226 48.7476 53.1226ZM48.7476 48.7476C48.4575 48.7476 48.1793 48.8628 47.9742 49.0679C47.769 49.273 47.6538 49.5512 47.6538 49.8413C47.6538 50.1314 47.769 50.4096 47.9742 50.6147C48.1793 50.8198 48.4575 50.9351 48.7476 50.9351C49.0376 50.9351 49.3158 50.8198 49.521 50.6147C49.7261 50.4096 49.8413 50.1314 49.8413 49.8413C49.8413 49.5512 49.7261 49.273 49.521 49.0679C49.3158 48.8628 49.0376 48.7476 48.7476 48.7476ZM43.2788 26.8726V24.6851H40.9819C40.8403 24.002 40.5693 23.3522 40.1835 22.771L41.8132 21.1413L40.2601 19.5882L38.6304 21.2179C38.0491 20.8321 37.3994 20.5611 36.7163 20.4194V18.1226H34.5288V20.4194C33.8457 20.5611 33.196 20.8321 32.6147 21.2179L30.9851 19.5882L29.4319 21.1413L31.0616 22.771C30.6758 23.3522 30.4048 24.002 30.2632 24.6851H27.9663V26.8726H30.2632C30.4048 27.5557 30.6758 28.2054 31.0616 28.7866L29.4319 30.4163L30.9741 31.9585L32.6038 30.3288C33.1875 30.7197 33.8411 30.9945 34.5288 31.1382V33.4351H36.7163V31.1382C37.3994 30.9966 38.0491 30.7255 38.6304 30.3397L40.2601 31.9694L41.8022 30.4272L40.1835 28.7866C40.5693 28.2054 40.8403 27.5557 40.9819 26.8726H43.2788ZM35.6226 29.0601C35.1917 29.0601 34.765 28.9752 34.3669 28.8103C33.9688 28.6454 33.6071 28.4037 33.3024 28.099C32.9977 27.7943 32.756 27.4326 32.5911 27.0345C32.4262 26.6364 32.3413 26.2097 32.3413 25.7788C32.3413 25.3479 32.4262 24.9212 32.5911 24.5231C32.756 24.125 32.9977 23.7633 33.3024 23.4586C33.6071 23.1539 33.9688 22.9122 34.3669 22.7473C34.765 22.5824 35.1917 22.4976 35.6226 22.4976C36.4928 22.4976 37.3274 22.8433 37.9428 23.4586C38.5581 24.074 38.9038 24.9086 38.9038 25.7788C38.9038 26.649 38.5581 27.4836 37.9428 28.099C37.3274 28.7144 36.4928 29.0601 35.6226 29.0601Z" fill="#30B778"/>
<path d="M35.6226 26.8725C35.3325 26.8725 35.0543 26.7573 34.8492 26.5522C34.6441 26.3471 34.5288 26.0689 34.5288 25.7788C34.5236 25.706 34.5236 25.6329 34.5288 25.56C34.541 25.4915 34.5631 25.4252 34.5945 25.3632C34.6182 25.2934 34.6513 25.2271 34.6929 25.1663C34.7333 25.109 34.7772 25.0542 34.8242 25.0022C34.9268 24.9009 35.0499 24.8226 35.1851 24.7725C35.3843 24.6888 35.6038 24.6659 35.816 24.7068C36.0282 24.7476 36.2235 24.8504 36.3773 25.0022L36.5085 25.1663C36.5497 25.2274 36.5828 25.2936 36.607 25.3632C36.6541 25.4222 36.6911 25.4888 36.7163 25.56C36.7221 25.6328 36.7221 25.706 36.7163 25.7788C36.7163 26.0689 36.6011 26.3471 36.396 26.5522C36.1909 26.7573 35.9127 26.8725 35.6226 26.8725Z" fill="#30B778"/>
</g>
<defs>
<clipPath id="clip0_309_10501">
<rect width="35" height="35" fill="white" transform="translate(18.1226 18.1226)"/>
</clipPath>
</defs>
</svg>
