<svg width="203" height="1022" viewBox="0 0 203 1022" fill="none" xmlns="http://www.w3.org/2000/svg">
<path opacity="0.6" fill-rule="evenodd" clip-rule="evenodd" d="M858.349 817.004L846.49 828.54C818.135 813.834 788.825 798.545 760.556 743.447C732.224 688.227 732.771 647.276 733.3 607.673C733.838 567.473 734.392 525.905 705.59 469.766C676.79 413.629 646.971 398.162 618.133 383.208C589.727 368.476 560.35 353.24 532.019 298.021C503.688 242.8 504.235 201.849 504.764 162.245L504.764 162.243L504.764 162.24C505.301 122.04 505.856 80.4706 477.053 24.3318C472.998 16.4284 468.923 9.3311 464.834 2.9279C475.786 5.19278 486.557 8.87936 496.871 14.0313C497.643 15.4764 498.415 16.9502 499.186 18.4535C527.522 73.6813 527.24 114.409 526.968 153.796L526.968 153.805C526.692 193.775 526.406 235.107 555.203 291.235C584.002 347.364 613.545 363.059 642.121 378.237L642.127 378.24C670.277 393.195 699.389 408.662 727.721 463.883C756.055 519.106 755.773 559.832 755.501 599.217L755.501 599.218L755.501 599.221L755.501 599.222C755.224 639.194 754.938 680.527 783.736 736.656C808.42 784.766 833.651 803.17 858.349 817.004ZM472.274 28.4411C466.989 18.1408 461.668 9.2318 456.324 1.4577C447.317 0.204663 438.236 -0.107293 429.233 0.498026C436.252 9.80956 443.228 20.9142 450.131 34.3679C478.937 90.5108 478.112 132.313 477.313 172.741L477.313 172.742C476.528 212.56 475.716 253.734 504.042 308.945C532.368 364.153 562.005 379.16 590.666 393.668L590.676 393.673C619.77 408.405 649.856 423.639 678.657 479.777C707.461 535.918 706.637 577.72 705.839 618.143L705.839 618.145L705.839 618.157C705.053 657.97 704.241 699.142 732.566 754.344C760.892 809.551 790.53 824.558 819.188 839.068L819.191 839.069C822.772 840.882 826.368 842.703 829.975 844.606L841.618 833.279C813.283 818.569 784.04 802.649 755.775 747.558C726.971 691.421 727.527 649.85 728.065 609.65L728.065 609.644C728.594 570.043 729.139 529.093 700.81 473.875C672.48 418.658 643.105 403.421 614.697 388.688C585.857 373.731 556.041 358.267 527.239 302.13C498.436 245.99 498.991 204.421 499.528 164.22C500.058 124.615 500.606 83.663 472.274 28.4411ZM825.112 849.336L813.335 860.794C806.085 856.602 798.858 853.03 791.69 849.489C762.778 835.203 732.881 820.429 704.562 765.236C676.242 710.043 677.321 668.649 678.365 628.621L678.365 628.618C679.424 587.969 680.52 545.937 651.715 489.796C622.91 433.655 592.552 418.651 563.191 404.146L563.184 404.143C534.275 389.855 504.379 375.08 476.062 319.891C447.741 264.694 448.819 223.301 449.863 183.27C450.922 142.619 452.016 100.586 423.21 44.4416C415.171 28.7732 407.011 16.309 398.785 6.16547C406.278 3.83969 413.959 2.18504 421.729 1.21711C429.671 11.1461 437.562 23.2902 445.353 38.4757C473.68 93.6876 472.868 134.86 472.081 174.68C471.284 215.106 470.459 256.908 499.264 313.052C528.067 369.192 558.154 384.425 587.253 399.159L587.256 399.16C615.917 413.67 645.554 428.676 673.88 483.883C702.206 539.091 701.393 580.263 700.608 620.078L700.608 620.083C699.808 660.51 698.984 702.31 727.788 758.452C756.592 814.591 786.681 829.829 815.779 844.559L815.783 844.561C818.882 846.13 821.993 847.705 825.112 849.336ZM796.33 877.335L808.506 865.491C801.741 861.637 794.997 858.304 788.305 854.998L788.302 854.996C758.94 840.487 728.582 825.484 699.779 769.344C670.974 713.202 672.069 671.17 673.128 630.521C674.172 590.492 675.251 549.099 646.933 493.904C618.615 438.712 588.719 423.938 559.806 409.65L559.804 409.649C530.443 395.141 500.085 380.139 471.28 323.999C442.473 267.854 443.567 225.821 444.627 185.171C445.67 145.141 446.748 103.748 418.428 48.5496C409.838 31.8076 401.103 18.7845 392.295 8.36595C385.576 10.8396 379.037 13.8666 372.753 17.4352C380.698 27.3377 388.567 39.4328 396.305 54.5129C425.112 110.657 423.747 152.92 422.426 193.792L422.426 193.794C421.127 234.034 419.783 275.646 448.096 330.828C476.408 386.003 506.564 400.546 535.729 414.61C565.349 428.894 595.977 443.665 624.781 499.804C653.585 555.938 652.222 598.199 650.903 639.064L650.903 639.077C649.602 679.319 648.257 720.93 676.57 776.11C704.882 831.288 735.04 845.832 764.201 859.893L764.206 859.895L764.207 859.896C774.829 865.018 785.58 870.202 796.33 877.335ZM791.56 881.976L778.815 894.374C764.776 883.468 750.643 876.818 736.731 870.272L736.725 870.269L736.72 870.267C707.31 856.429 676.897 842.119 648.592 786.96C620.288 731.798 621.898 689.97 623.455 649.52L623.455 649.519L623.455 649.515L623.455 649.514C625.036 608.423 626.67 565.933 597.865 509.797C569.058 453.658 538.164 439.12 508.284 425.063C478.87 411.227 448.458 396.916 420.153 341.753C391.847 286.59 393.456 244.761 395.012 204.309L395.012 204.307L395.012 204.307C396.593 163.214 398.228 120.723 369.42 64.5822C363.162 52.3855 356.805 42.1523 350.381 33.4611C355.694 28.7371 361.328 24.5 367.219 20.7603C375.425 30.7533 383.548 43.0738 391.525 58.6196C419.837 113.799 418.494 155.41 417.194 195.649L417.194 195.655C415.874 236.527 414.51 278.79 443.317 334.933C472.121 391.073 502.747 405.841 532.366 420.124L532.371 420.127L532.383 420.133C561.541 434.194 591.694 448.737 620.004 503.909C648.316 559.086 646.972 600.697 645.672 640.936L645.671 640.942C644.351 681.814 642.987 724.075 671.791 780.217C700.597 836.358 731.224 851.126 760.843 865.409L760.844 865.41L760.845 865.41C771.003 870.308 781.281 875.265 791.56 881.976ZM760.724 911.973L774.099 898.962C760.519 888.564 746.852 882.133 733.393 875.801L733.391 875.8C703.512 861.741 672.617 847.204 643.813 791.068C615.007 734.93 616.641 692.44 618.223 651.348L618.223 651.343C619.779 610.894 621.388 569.066 593.085 513.906C564.778 458.742 534.366 444.431 504.953 430.596C475.07 416.536 444.178 401.999 415.372 345.863C386.567 289.722 388.201 247.231 389.782 206.138L389.782 206.138L389.782 206.133C391.337 165.683 392.945 123.855 364.641 68.6922C358.422 56.5726 352.101 46.4249 345.712 37.8209C340.508 42.9224 335.658 48.5246 331.231 54.6167L331.165 54.7085C335 60.7058 338.803 67.3247 342.566 74.6574C371.37 130.79 369.466 173.505 367.625 214.815L367.625 214.822C365.812 255.482 363.938 297.527 392.235 352.672C420.531 407.815 451.201 421.892 480.865 435.508C511.005 449.34 542.168 463.642 570.971 519.776C599.774 575.906 597.87 618.623 596.029 659.931L596.029 659.938L596.029 659.942C594.216 700.599 592.341 742.641 620.636 797.784C648.934 852.927 679.604 867.003 709.267 880.616C726.296 888.431 743.651 896.396 760.724 911.973ZM756.058 916.512L742.041 930.148C722.218 909.012 701.804 899.873 681.836 890.934L681.826 890.93C651.918 877.542 620.988 863.696 592.702 808.577C564.417 753.454 566.556 711.195 568.626 670.329C570.728 628.8 572.901 585.858 544.099 529.733C515.302 473.607 483.873 459.538 453.483 445.934L453.476 445.931C423.564 432.545 392.637 418.696 364.351 363.577C336.064 308.453 338.203 266.194 340.272 225.327C342.375 183.797 344.548 140.855 315.745 84.7251C314.853 82.9855 313.957 81.2862 313.059 79.6261L327.211 60.1495C330.768 65.7795 334.296 71.9585 337.787 78.7626C366.084 133.907 364.209 175.952 362.396 216.612L362.396 216.615L362.396 216.615C360.555 257.926 358.651 300.642 387.456 356.779C416.259 412.913 447.421 427.214 477.562 441.047C507.225 454.662 537.895 468.74 566.191 523.883C594.487 579.023 592.612 621.066 590.8 661.723L590.8 661.724L590.799 661.727L590.799 661.734C588.958 703.044 587.054 745.759 615.858 801.889C644.658 858.021 675.818 872.323 705.952 886.154L705.961 886.158C722.542 893.767 739.438 901.521 756.058 916.512ZM722.773 948.892L737.415 934.647C718.039 914.159 698.078 905.223 678.549 896.482C648.156 882.878 616.725 868.809 587.925 812.681C559.122 756.555 561.296 713.612 563.398 672.085C565.467 631.218 567.607 588.96 539.321 533.837C511.036 478.719 480.108 464.874 450.201 451.486L450.197 451.484L450.188 451.48C419.796 437.874 388.37 423.805 359.573 367.683C330.77 311.553 332.943 268.611 335.045 227.082C337.115 186.215 339.253 143.956 310.966 88.832C310.326 87.5852 309.685 86.3596 309.042 85.1546L294.18 105.609C317.423 156.541 315.144 196.808 312.935 235.834L312.934 235.839C310.61 276.909 308.206 319.38 336.483 374.481C364.756 429.573 395.936 443.186 426.087 456.349L426.101 456.355C456.753 469.733 488.447 483.568 517.246 539.686C546.043 595.805 543.6 638.968 541.235 680.714L541.234 680.723C538.91 721.791 536.507 764.261 564.781 819.357C593.055 874.452 624.237 888.065 654.389 901.228L654.397 901.232C677.151 911.163 700.48 921.346 722.773 948.892ZM718.174 953.366L702.934 968.191C678.463 933.468 652.365 922.362 626.977 911.558L626.971 911.556C596.568 898.62 565.127 885.24 536.859 830.159C508.592 775.08 511.262 732.397 513.844 691.119C516.469 649.156 519.182 605.768 490.385 549.656C461.594 493.55 429.637 479.949 398.733 466.796L398.72 466.79C368.314 453.853 336.876 440.472 308.609 385.396C280.341 330.314 283.01 287.63 285.591 246.351L285.591 246.351C287.763 211.628 289.994 175.929 274.385 132.853L290.086 111.243C312.075 160.45 309.86 199.599 307.712 237.553C305.348 279.299 302.906 322.465 331.706 378.584C360.5 434.697 392.192 448.533 422.842 461.915L422.849 461.918C453.005 475.079 484.19 488.691 512.466 543.791C540.742 598.886 538.337 641.355 536.012 682.423L536.012 682.432C533.647 724.178 531.204 767.342 560.003 823.461C588.798 879.575 620.49 893.409 651.138 906.787L651.147 906.791L651.153 906.794C673.463 916.534 696.334 926.519 718.174 953.366ZM687.035 983.657L698.35 972.65C674.336 938.657 648.694 927.745 623.749 917.132L623.746 917.13C592.839 903.978 560.878 890.378 532.083 834.267C503.287 778.153 506 734.764 508.624 692.802L508.625 692.799C511.206 651.523 513.875 608.84 485.61 553.761C457.345 498.686 425.907 485.307 395.508 472.369L395.499 472.365L395.494 472.363C364.585 459.209 332.626 445.609 303.834 389.501C275.036 333.387 277.749 289.997 280.372 248.035L280.372 248.034C282.471 214.473 284.627 179.984 270.168 138.657L253.343 161.811C262.335 196.785 260.257 227.19 258.227 256.882C255.39 298.369 252.457 341.268 280.716 396.332C308.972 451.386 340.666 464.535 371.315 477.25L371.324 477.254L371.331 477.257C402.492 490.182 434.718 503.549 463.511 559.654C492.307 615.762 489.324 659.378 486.439 701.56L486.438 701.563C483.601 743.046 480.667 785.945 508.925 841.004C537.181 896.061 568.877 909.209 599.53 921.925L599.534 921.926L599.543 921.93C627.407 933.489 656.119 945.399 682.468 987.897C684.016 986.526 685.539 985.112 687.035 983.657ZM677.648 991.966C671.85 996.628 665.739 1000.74 659.388 1004.29C631.972 956.533 601.563 944.243 572.093 932.332L572.092 932.331L572.086 932.329C541.183 919.837 509.231 906.921 480.984 851.88C452.734 796.835 455.933 753.718 459.027 712.02L459.027 712.019C462.172 669.619 465.424 625.775 436.63 569.67C407.835 513.568 375.341 500.433 343.918 487.731L343.914 487.729L343.909 487.727C313.007 475.236 281.055 462.321 252.804 407.278C224.554 352.23 227.752 309.112 230.845 267.413L230.845 267.412C232.601 243.722 234.391 219.581 230.607 193.103L248.932 167.883C256.94 201.06 254.953 230.126 253.01 258.529C250.126 300.709 247.145 344.327 275.94 400.437C304.734 456.543 336.961 469.91 368.127 482.837L368.128 482.837L368.131 482.839C398.78 495.551 430.478 508.699 458.735 563.759C486.993 618.816 484.06 661.716 481.222 703.2L481.222 703.207C478.337 745.386 475.355 789.001 504.149 845.11C532.943 901.218 565.17 914.584 596.336 927.511C623.669 938.847 651.833 950.528 677.648 991.966ZM633.103 1015.43C640.218 1013.29 647.18 1010.54 653.906 1007.18C627.211 961.486 597.616 949.523 568.927 937.927L568.922 937.925L568.913 937.921C537.491 925.218 505.001 912.082 476.208 855.983C447.415 799.877 450.667 756.033 453.812 713.633L453.812 713.632C456.906 671.934 460.104 628.818 431.855 573.772C403.603 518.726 371.648 505.81 340.746 493.32L340.744 493.319C309.321 480.619 276.826 467.483 248.03 411.377C219.234 355.27 222.485 311.425 225.63 269.022L225.63 269.017C227.277 246.808 228.953 224.196 225.891 199.593L205.555 227.581C206.051 244.983 204.725 261.572 203.417 277.947C200.068 319.859 196.607 363.196 224.852 418.234C253.098 473.271 285.312 485.956 316.469 498.223L316.476 498.226C348.157 510.704 380.92 523.608 409.716 579.713C438.512 635.822 434.991 679.898 431.584 722.524C428.235 764.435 424.773 807.772 453.017 862.808C481.262 917.842 513.475 930.53 544.632 942.797C574.578 954.589 605.489 966.76 633.103 1015.43ZM626.934 1017.12C619.116 1019.07 611.146 1020.29 603.13 1020.79C576.183 976.079 546.084 964.531 516.892 953.332L516.889 953.331C485.478 941.282 453.001 928.822 424.757 873.795C396.515 818.764 400.242 775.2 403.847 733.072C407.515 690.217 411.306 645.904 382.503 589.785C353.702 533.665 320.664 520.992 288.714 508.737L288.712 508.736C257.3 496.686 224.823 484.227 196.581 429.199C168.338 374.167 172.062 330.603 175.667 288.474C176.293 281.155 176.923 273.794 177.394 266.338L200.403 234.672C200.559 250.086 199.377 264.89 198.207 279.519L198.207 279.523C194.802 322.149 191.281 366.227 220.078 422.335C248.871 478.438 281.634 491.343 313.317 503.822L313.317 503.822L313.318 503.822L313.318 503.822L313.318 503.822L313.326 503.825C344.484 516.094 376.698 528.78 404.942 583.814C433.187 638.85 429.724 682.187 426.374 724.097L426.374 724.101C422.968 766.726 419.447 810.803 448.243 866.909C477.035 923.01 509.795 935.914 541.475 948.391L541.49 948.397L541.492 948.398C570.401 959.784 600.221 971.529 626.934 1017.12ZM567.544 1018.17C576.915 1020.16 586.441 1021.11 595.947 1021.04C570.165 980.576 541.55 969.6 513.772 958.945C481.819 946.689 448.782 934.013 419.982 877.897C391.179 821.779 394.97 777.466 398.638 734.611C402.244 692.481 405.971 648.917 377.729 593.886C349.487 538.86 317.01 526.4 285.602 514.35L285.597 514.349L285.587 514.345C253.64 502.088 220.603 489.414 191.805 433.302C163.003 377.182 166.793 332.868 170.46 290.013L170.46 290.012C170.911 284.736 171.365 279.437 171.757 274.096L147.133 307.985C143.678 347.582 142.084 389.019 168.332 440.166C196.573 495.194 229.318 507.425 260.985 519.252L260.988 519.253C293.202 531.289 326.516 543.734 355.321 599.864C384.129 655.996 380.067 700.547 376.139 743.632C372.277 785.983 368.286 829.774 396.526 884.803C424.769 939.831 457.513 952.064 489.178 963.892C515.591 973.757 542.743 983.9 567.544 1018.17ZM557.59 1015.65C534.761 987.696 510.115 978.488 486.088 969.514L486.085 969.513C482.682 968.241 479.267 966.965 475.846 965.634L517.401 995.828C529.874 1004.89 543.479 1011.48 557.59 1015.65ZM409.145 917.169C403.203 909.204 397.392 899.891 391.753 888.903C362.946 832.771 367.007 788.22 370.935 745.135C374.796 702.783 378.788 658.993 350.548 603.963C322.306 548.939 289.563 536.707 257.896 524.877L257.894 524.876L257.888 524.873C225.673 512.838 192.361 500.393 163.557 444.268C138.163 394.784 138.31 354.301 141.392 315.887L117.346 348.98C116.519 379.844 120.431 412.817 140.09 451.127C168.333 506.156 201.343 518.161 233.268 529.769L233.273 529.771C265.755 541.586 299.342 553.801 328.156 609.944C356.969 666.092 352.638 710.887 348.448 754.207L348.448 754.212C344.654 793.449 340.741 833.92 362.265 883.105L409.145 917.169ZM89.9665 386.662L112.004 356.332C111.747 386.258 116.357 418.286 135.315 455.228C164.128 511.374 197.718 523.59 230.2 535.403L230.202 535.404C262.127 547.012 295.138 559.018 323.38 614.047C351.622 669.078 347.365 713.099 343.247 755.673C339.659 792.777 335.967 830.962 353.086 876.436L321.218 853.28C314.985 821.415 317.911 792.786 320.773 764.78C325.224 721.224 329.825 676.186 301.002 620.021C272.18 563.86 238.315 551.873 205.564 540.28L205.56 540.278C173.375 528.888 140.097 517.107 111.855 462.075C97.7775 434.644 91.8398 409.891 89.9665 386.662ZM85.1033 393.355L65.1042 420.879C68.3998 437.295 74.1554 454.554 83.6198 472.997C111.866 528.037 145.415 539.59 177.857 550.761C210.879 562.133 245.024 573.891 273.857 630.078C302.69 686.262 297.817 731.545 293.103 775.339L293.102 775.346C291.181 793.205 289.233 811.316 289.631 830.329L314.689 848.536C310.164 819.159 312.897 792.419 315.575 766.213L315.575 766.212C319.949 723.413 324.472 679.158 296.227 624.124C267.984 569.089 234.706 557.311 202.523 545.921C169.769 534.329 135.904 522.341 107.08 466.178C93.5326 439.779 87.3691 415.838 85.1033 393.355ZM42.2573 452.322L60.5983 427.08C64.0533 442.873 69.7851 459.449 78.8439 477.101C107.676 533.285 141.822 545.044 174.842 556.416L174.844 556.417L174.846 556.418C207.289 567.59 240.837 579.144 269.082 634.182C297.326 689.222 292.538 733.711 287.908 776.739L287.908 776.741L287.907 776.742C286.163 792.956 284.396 809.374 284.326 826.475L262.853 810.873C263.566 802.445 264.505 794.134 265.438 785.875C270.413 741.843 275.557 696.312 246.714 640.105C217.874 583.9 183.447 572.367 150.157 561.216L150.154 561.215C117.448 550.261 83.631 538.933 55.383 483.885C49.7882 472.982 45.4996 462.484 42.2573 452.322ZM37.9902 458.195L25.5664 475.293C23.9931 477.459 22.4951 479.656 21.0721 481.882C22.8978 486.099 24.9155 490.375 27.1415 494.713C55.3944 549.773 89.4808 560.876 122.449 571.613C156.012 582.543 190.72 593.85 219.574 650.079C247.684 704.864 243.268 749.728 238.179 792.944L258.088 807.41C258.731 800.631 259.49 793.918 260.244 787.24C265.132 743.985 270.185 699.258 241.937 644.21C213.69 589.164 179.873 577.836 147.169 566.88L147.166 566.879L147.157 566.876C113.868 555.725 79.4431 544.193 50.6043 487.99C45.3345 477.721 41.1993 467.808 37.9902 458.195ZM5.22981 517.206C8.02124 507.256 12.022 497.521 17.266 488.216C18.8326 491.709 20.5288 495.242 22.3636 498.818C51.2149 555.047 85.9189 566.352 119.482 577.285L119.487 577.286C152.453 588.023 186.541 599.127 214.794 654.186C241.291 705.825 238.259 748.585 233.537 789.571L212.784 774.492C215.63 739.485 213.839 702.397 191.713 659.293C162.897 603.153 127.968 592.099 94.1884 581.41L94.1818 581.408C63.6056 571.731 32.0692 561.749 5.22981 517.206ZM1.12372 567.133C1.98786 575.07 3.56713 582.923 5.84506 590.587C16.8024 595.47 27.9072 598.786 38.8904 602.066C73.2239 612.318 108.727 622.92 137.571 679.128C147.376 698.235 153.129 716.214 156.216 733.389L180.986 751.387C179.815 727.151 174.306 701.48 159.831 673.277C131.62 618.312 97.0443 607.681 63.6085 597.401C42.6315 590.952 21.2153 584.367 1.12372 567.133ZM15.0991 613.573C12.5954 608.726 10.4036 603.744 8.52893 598.658C17.6734 602.283 26.8824 605.033 36.0088 607.758L36.0099 607.758C69.7171 617.825 104.571 628.234 132.797 683.23C140.899 699.019 146.172 714.033 149.432 728.46L118.204 705.77C115.986 700.318 113.449 694.778 110.558 689.143C82.7527 634.951 48.5169 623.326 15.0991 613.573ZM19.5147 621.445C24.5309 629.709 30.5076 637.496 37.4172 644.629C44.465 649.274 51.3774 654.955 58.0789 662.083L108.48 698.704C107.617 696.896 106.717 695.077 105.778 693.249C80.6053 644.188 49.9487 630.763 19.5147 621.445ZM0.437412 557.746C21.4924 577.877 44.2554 584.876 66.5131 591.719L66.5154 591.719C100.567 602.187 135.777 613.012 164.601 669.179C180.689 700.522 185.945 728.758 186.448 755.356L207.941 770.973C210.107 738.18 207.474 703.395 186.941 663.393C158.733 608.441 124.431 597.584 91.2591 587.085L91.2567 587.084L91.2561 587.084C61.0812 577.536 29.9868 567.697 3.15327 525.684C0.928222 536.282 0.0361415 547.053 0.437412 557.746ZM863.185 812.299L875.775 800.052C854.727 786.495 833.37 766.972 812.27 725.852C783.494 669.778 783.511 628.713 783.527 589.001L783.527 588.997C783.542 549.862 783.558 509.393 755.238 454.205C726.92 399.023 698.091 383.34 670.211 368.174L670.204 368.17L670.202 368.168C641.91 352.78 612.656 336.869 583.881 280.793C555.105 224.717 555.12 183.653 555.136 143.942L555.136 143.938L555.136 143.938C555.148 113.703 555.16 82.6722 542.108 44.6744L515.61 25.4215C512.622 23.2498 509.572 21.2218 506.471 19.336C532.747 72.9425 532.471 113 532.203 151.777L532.203 151.783L532.203 151.786C531.93 191.172 531.649 231.9 559.984 287.127C588.32 342.353 617.431 357.817 645.586 372.773L645.591 372.776C674.162 387.954 703.706 403.649 732.502 459.775C761.3 515.903 761.014 557.236 760.737 597.208L760.737 597.209C760.464 636.595 760.184 677.32 788.519 732.547C813.199 780.654 838.47 798.589 863.185 812.299ZM880.549 795.408L893.921 782.399C876.259 768.952 858.403 749.556 840.628 714.917C811.861 658.859 811.609 618.039 811.367 578.562L811.367 578.556C811.127 539.645 810.878 499.408 782.561 444.225C754.24 389.037 725.677 373.13 698.054 357.748L698.05 357.746C670.025 342.137 641.05 325.998 612.287 269.944C583.518 213.884 583.267 173.062 583.024 133.585C582.902 113.813 582.772 93.6965 578.96 71.4513L550.143 50.5132C560.392 84.8937 560.381 113.727 560.37 141.88L560.37 141.887L560.37 141.891C560.355 181.029 560.339 221.5 588.66 276.687C616.98 331.875 645.811 347.557 673.692 362.722L673.695 362.724C701.983 378.109 731.24 394.022 760.017 450.099C788.794 506.177 788.777 547.239 788.76 586.952C788.744 626.09 788.728 666.559 817.047 721.749C838.132 762.837 859.5 782.026 880.549 795.408ZM912.857 763.978L898.631 777.817C880.987 764.547 863.147 745.389 845.405 710.813C817.087 655.626 816.839 615.39 816.599 576.476C816.357 536.999 816.105 496.179 787.338 440.121C758.573 384.065 729.597 367.927 701.576 352.32L701.571 352.317C673.944 336.932 645.382 321.025 617.064 265.84C588.744 210.653 588.496 170.414 588.256 131.5L588.256 131.498C588.146 113.718 588.031 95.6621 585.309 76.0644L610.025 94.0236C610.568 103.93 610.693 113.549 610.816 123.087C611.319 162.335 611.839 202.92 640.602 258.97C669.363 315.017 698.066 331.384 725.827 347.214L725.829 347.215L725.831 347.217C753.199 362.822 781.499 378.96 809.821 434.149C838.143 489.337 838.657 529.348 839.154 568.042L839.154 568.049C839.657 607.297 840.178 647.881 868.94 703.929C883.634 732.562 898.313 750.839 912.857 763.978ZM917.517 759.445L932.552 744.82C920.861 732.402 909.072 716.012 897.228 692.932C868.468 636.887 867.678 596.536 866.913 557.515L866.913 557.515L866.913 557.514C866.161 519.034 865.382 479.243 837.055 424.04C808.728 368.842 780.689 352.473 753.573 336.643L753.571 336.642C726.073 320.59 697.641 303.993 668.881 247.95C640.676 192.987 639.371 153.118 638.61 114.794L615.55 98.0379C615.851 105.797 615.95 113.405 616.048 120.963C616.544 159.66 617.057 199.674 645.379 254.866C673.701 310.054 701.999 326.193 729.372 341.8C757.133 357.628 785.837 373.995 814.598 430.045C843.361 486.093 843.883 526.676 844.386 565.925C844.881 604.621 845.395 644.634 873.718 699.824C888.365 728.367 903.007 746.464 917.517 759.445ZM952.943 724.983L937.174 740.324C925.531 728.042 913.792 711.797 902.004 688.827C873.677 633.623 872.898 593.833 872.146 555.352C871.382 516.33 870.592 475.98 841.831 419.936C813.072 363.891 784.638 347.293 757.142 331.243L757.141 331.242L757.14 331.242C730.026 315.414 701.986 299.045 673.658 243.845C647.365 192.607 644.805 154.648 643.97 118.688L667.838 136.03C670.209 165.087 676.634 196.947 697.136 236.899C725.894 292.941 754.06 309.773 781.294 326.046C808.161 342.097 835.939 358.7 864.274 413.914C892.607 469.128 893.652 508.701 894.662 546.969C895.687 585.767 896.747 625.887 925.504 681.931C934.715 699.881 943.865 713.808 952.943 724.983ZM957.541 720.51L973.956 704.542C967.278 695.164 960.551 684.124 953.776 670.922C925.02 614.88 923.691 574.991 922.407 536.414C921.14 498.359 919.829 459.005 891.489 403.774C863.148 348.545 835.625 331.71 809.014 315.434C782.036 298.936 754.144 281.874 725.385 225.83C712.776 201.257 705.441 179.789 701.07 160.177L673.688 140.281C676.483 167.086 683.327 196.574 701.913 232.794C730.247 288.007 758.027 304.61 784.892 320.661C812.13 336.935 840.294 353.767 869.052 409.809C897.81 465.85 898.869 505.971 899.893 544.768L899.893 544.769L899.893 544.769C900.904 583.038 901.949 622.608 930.283 677.825C939.431 695.651 948.521 709.453 957.541 720.51ZM995.51 683.574L978.541 700.082C971.926 690.81 965.263 679.888 958.555 666.816C930.215 611.586 928.905 572.233 927.638 534.176L927.638 534.168C926.353 495.595 925.023 455.706 896.268 399.668C867.511 343.626 839.619 326.565 812.64 310.064L812.636 310.062C786.025 293.785 758.503 276.952 730.164 221.723C719.506 200.953 712.671 182.429 708.223 165.374L742.232 190.086C745.463 197.964 749.234 206.174 753.644 214.77C782.401 270.814 810.028 288.108 836.742 304.829L836.743 304.83C863.108 321.334 890.366 338.398 918.714 393.641C947.061 448.886 948.639 488.019 950.163 525.866L950.163 525.871C951.709 564.222 953.308 603.879 982.063 659.92C986.573 668.709 991.055 676.544 995.51 683.574ZM955.392 523.589C956.917 561.434 958.495 600.568 986.842 655.814C991.285 664.472 995.7 672.192 1000.09 679.119L1017.52 662.159C1015.15 658.001 1012.76 653.598 1010.36 648.926C981.606 592.886 979.738 553.46 977.933 515.334L977.933 515.331C976.15 477.7 974.307 438.787 945.953 383.531C917.604 328.281 890.605 310.983 864.503 294.26L864.491 294.252L864.488 294.25C842.654 280.262 820.21 265.884 796.873 229.787L751.821 197.053C753.843 201.482 756.038 206.016 758.423 210.664C786.77 265.909 814.034 282.977 840.393 299.477L840.395 299.478C867.109 316.202 894.734 333.495 923.492 389.537C952.247 445.576 953.846 485.233 955.392 523.583L955.392 523.589ZM1015.14 644.819C986.787 589.563 984.944 550.649 983.162 513.018L983.162 513.016C981.356 474.89 979.489 435.464 950.734 379.424C921.979 323.387 894.628 305.864 868.171 288.915L868.163 288.909C850.204 277.403 831.825 265.628 812.873 241.413L957.848 346.753C962.921 354.552 968.044 363.383 973.221 373.472C1001.58 428.736 1003.69 467.423 1005.73 504.837L1005.73 504.846C1007.79 542.742 1009.93 581.929 1038.68 637.955C1038.86 638.302 1039.03 638.648 1039.21 638.993C1039.45 639.453 1039.69 639.911 1039.93 640.366L1022.11 657.7C1019.79 653.649 1017.47 649.362 1015.14 644.819ZM1010.95 502.482C1012.99 539.896 1015.1 578.583 1043.46 633.847C1043.81 634.537 1044.16 635.221 1044.52 635.899L1062.68 618.233C1038.06 566.894 1035.78 530.095 1033.58 494.447L1033.58 494.439L1033.58 494.434C1031.6 462.306 1029.56 429.23 1010.74 385.185L970.91 356.243C973.262 360.37 975.625 364.737 978 369.364C1006.75 425.391 1008.89 464.578 1010.95 502.473L1010.95 502.482ZM1084.44 592.29C1079.58 599.853 1073.86 607.044 1067.27 613.728C1043.2 563.34 1040.97 527.129 1038.8 492.046L1038.8 492.042C1036.96 462.099 1035.06 431.344 1019.9 391.843L1050.82 414.307C1051.22 414.599 1051.62 414.893 1052.02 415.188C1058.7 440.788 1060.22 462.802 1061.71 484.385L1061.71 484.387C1063.9 516.153 1066.16 548.842 1084.44 592.29ZM1088.28 585.921C1094.52 574.872 1099.03 563.141 1101.81 551.116C1093.17 522.046 1091.32 497.758 1089.5 473.99L1089.5 473.987C1089.04 467.967 1088.58 461.914 1088 455.756C1080.71 442.933 1071.13 431.137 1059.3 421.004C1064.23 443.121 1065.59 462.711 1066.92 481.962L1066.92 481.964C1069.04 512.705 1071.22 544.319 1088.28 585.921ZM1094.5 468.833C1103.86 490.635 1107.15 514.585 1104.17 537.963C1097.91 513.476 1096.29 492.299 1094.7 471.524L1094.62 470.444C1094.58 469.907 1094.54 469.37 1094.5 468.833Z" fill="#1F312C" fill-opacity="0.7"/>
</svg>
