<svg width="72" height="72" viewBox="0 0 72 72" fill="none" xmlns="http://www.w3.org/2000/svg">
<rect x="0.453063" y="0.453063" width="70.3389" height="70.3389" rx="35.1695" stroke="#30B778" stroke-width="0.906126"/>
<g clip-path="url(#clip0_309_10720)">
<path d="M53.1226 18.1226V19.2163C53.1226 21.119 52.9801 22.8849 52.6953 24.5142C52.4105 26.1434 51.9548 27.6986 51.3281 29.1797C50.7015 30.6608 49.9211 32.0736 48.9868 33.418C48.0526 34.7624 46.9076 36.1182 45.5518 37.4854C45.1188 37.9183 44.6802 38.3455 44.2358 38.7671C43.7915 39.1886 43.3301 39.5988 42.8516 39.9976H39.2627C40.1172 39.3823 40.9318 38.7443 41.7065 38.0835C42.4813 37.4227 43.2446 36.7163 43.9966 35.9644C45.1245 34.8136 46.11 33.6572 46.9531 32.4951C47.7962 31.333 48.5026 30.1196 49.0723 28.855C49.6419 27.5903 50.0749 26.2573 50.3711 24.856C50.6673 23.4546 50.8496 21.945 50.918 20.3271C49.3001 20.3841 47.7905 20.5607 46.3892 20.8569C44.9878 21.1532 43.6605 21.5918 42.4072 22.1729C41.154 22.7539 39.9406 23.4546 38.7671 24.2749C37.5936 25.0952 36.4372 26.0807 35.2979 27.2314C34.1585 28.3366 33.1217 29.4987 32.1875 30.7178C31.2533 31.9368 30.3703 33.2186 29.5386 34.563L35.6226 40.6299V44.8682C34.0503 45.7796 32.4609 46.6683 30.8545 47.5342L23.7109 40.3906C24.5768 38.7842 25.4655 37.1948 26.377 35.6226H22.4976V30.4614L32.2729 27.1973V27.2144C33.7199 25.6649 35.1554 24.3205 36.5796 23.1812C38.0037 22.0418 39.5077 21.0962 41.0913 20.3442C42.675 19.5923 44.3555 19.034 46.1328 18.6694C47.9102 18.3049 49.8755 18.1226 52.0288 18.1226H53.1226ZM34.751 42.8516L28.3936 36.4941C28.0632 37.0752 27.7384 37.6562 27.4194 38.2373C27.1004 38.8184 26.77 39.3994 26.4282 39.9805V39.9976L31.2476 44.8169H31.2646C31.8457 44.4865 32.4268 44.1618 33.0078 43.8428C33.5889 43.5238 34.1699 43.1934 34.751 42.8516ZM27.6587 33.4351C27.9891 32.911 28.3195 32.3926 28.6499 31.8799C28.9803 31.3672 29.3335 30.8602 29.7095 30.3589L24.6851 32.0337V33.4351H27.6587ZM44.3726 31.2476C44.3726 31.8514 44.2586 32.4154 44.0308 32.9395C43.8029 33.4635 43.4896 33.9307 43.0908 34.3408C42.6921 34.751 42.2306 35.0643 41.7065 35.2808C41.1825 35.4972 40.6128 35.6112 39.9976 35.6226C39.3937 35.6226 38.8298 35.5086 38.3057 35.2808C37.7816 35.0529 37.3145 34.7396 36.9043 34.3408C36.4941 33.9421 36.1808 33.4806 35.9644 32.9565C35.7479 32.4325 35.634 31.8628 35.6226 31.2476C35.6226 30.6437 35.7365 30.0798 35.9644 29.5557C36.1922 29.0316 36.5055 28.5645 36.9043 28.1543C37.3031 27.7441 37.7645 27.4308 38.2886 27.2144C38.8127 26.9979 39.3823 26.884 39.9976 26.8726C40.6014 26.8726 41.1654 26.9865 41.6895 27.2144C42.2135 27.4422 42.6807 27.7555 43.0908 28.1543C43.501 28.5531 43.8143 29.0145 44.0308 29.5386C44.2472 30.0627 44.3612 30.6323 44.3726 31.2476ZM37.8101 31.2476C37.8101 31.5552 37.867 31.84 37.981 32.1021C38.0949 32.3641 38.2487 32.592 38.4424 32.7856C38.6361 32.9793 38.8696 33.1388 39.1431 33.2642C39.4165 33.3895 39.7013 33.4465 39.9976 33.4351C40.3052 33.4351 40.59 33.3781 40.8521 33.2642C41.1141 33.1502 41.342 32.9964 41.5356 32.8027C41.7293 32.609 41.8888 32.3755 42.0142 32.1021C42.1395 31.8286 42.1965 31.5438 42.1851 31.2476C42.1851 30.9399 42.1281 30.6551 42.0142 30.3931C41.9002 30.131 41.7464 29.9032 41.5527 29.7095C41.359 29.5158 41.1255 29.3563 40.8521 29.231C40.5786 29.1056 40.2938 29.0487 39.9976 29.0601C39.6899 29.0601 39.4051 29.117 39.1431 29.231C38.881 29.3449 38.6532 29.4987 38.4595 29.6924C38.2658 29.8861 38.1063 30.1196 37.981 30.3931C37.8556 30.6665 37.7987 30.9513 37.8101 31.2476ZM22.4976 44.3726C23.1014 44.3726 23.6654 44.4865 24.1895 44.7144C24.7135 44.9422 25.1807 45.2555 25.5908 45.6543C26.001 46.0531 26.3143 46.5145 26.5308 47.0386C26.7472 47.5627 26.8612 48.1323 26.8726 48.7476C26.8726 49.3514 26.7586 49.9154 26.5308 50.4395C26.3029 50.9635 25.9896 51.4307 25.5908 51.8408C25.1921 52.251 24.7306 52.5643 24.2065 52.7808C23.6825 52.9972 23.1128 53.1112 22.4976 53.1226H18.1226V48.7476C18.1226 48.1437 18.2365 47.5798 18.4644 47.0557C18.6922 46.5316 19.0055 46.0645 19.4043 45.6543C19.8031 45.2441 20.2645 44.9308 20.7886 44.7144C21.3127 44.4979 21.8823 44.384 22.4976 44.3726ZM22.4976 50.9351C22.8052 50.9351 23.09 50.8781 23.3521 50.7642C23.6141 50.6502 23.842 50.4964 24.0356 50.3027C24.2293 50.109 24.3888 49.8755 24.5142 49.6021C24.6395 49.3286 24.6965 49.0438 24.6851 48.7476C24.6851 48.4399 24.6281 48.1551 24.5142 47.8931C24.4002 47.631 24.2464 47.4032 24.0527 47.2095C23.859 47.0158 23.6255 46.8563 23.3521 46.731C23.0786 46.6056 22.7938 46.5487 22.4976 46.5601C22.1899 46.5601 21.9051 46.617 21.6431 46.731C21.381 46.8449 21.1532 46.9987 20.9595 47.1924C20.7658 47.3861 20.6063 47.6196 20.481 47.8931C20.3556 48.1665 20.2987 48.4513 20.3101 48.7476V50.9351H22.4976ZM42.1851 48.7476V46.5601H53.1226V48.7476H42.1851ZM42.1851 44.3726V42.1851H53.1226V44.3726H42.1851ZM37.8101 53.1226V50.9351H39.9976V53.1226H37.8101ZM37.8101 44.3726V42.1851H39.9976V44.3726H37.8101ZM42.1851 53.1226V50.9351H53.1226V53.1226H42.1851ZM37.8101 48.7476V46.5601H39.9976V48.7476H37.8101Z" fill="#30B778"/>
</g>
<defs>
<clipPath id="clip0_309_10720">
<rect width="35" height="35" fill="white" transform="translate(18.1226 18.1226)"/>
</clipPath>
</defs>
</svg>
