<svg width="300" height="275" viewBox="0 0 300 275" fill="none" xmlns="http://www.w3.org/2000/svg">
<g clip-path="url(#clip0_309_10296)">
<path d="M885.083 5.75583C856.522 9.10818 826.988 12.5769 776.704 -10.6074C726.421 -33.7931 704.794 -60.8472 683.879 -87.0121C662.658 -113.562 640.714 -141.013 589.621 -164.571C538.528 -188.128 508.558 -184.61 479.581 -181.208C451.018 -177.856 421.485 -174.388 371.2 -197.573C320.915 -220.757 299.287 -247.814 278.372 -273.979C257.149 -300.527 235.206 -327.98 184.11 -351.537C172.899 -356.706 162.706 -360.57 153.317 -363.42H129.918C144.954 -361.038 162.121 -356.017 182.8 -346.481C233.086 -323.296 254.713 -296.24 275.629 -270.075C296.852 -243.527 318.796 -216.074 369.89 -192.517C420.982 -168.959 450.949 -172.478 479.932 -175.879C508.495 -179.23 538.029 -182.698 588.311 -159.515C638.595 -136.33 660.222 -109.275 681.137 -83.1115C702.358 -56.5628 724.303 -29.1102 775.394 -5.55417C826.484 18.0032 856.451 14.4864 885.434 11.0832C907.485 8.49576 930.126 5.85211 962.437 15.4438V9.95865C930.053 0.493988 907.272 3.15231 885.083 5.75583Z" fill="url(#paint0_linear_309_10296)" fill-opacity="0.3"/>
<path d="M870.495 26.449C841.864 30.0728 812.261 33.8209 761.985 10.6393C711.708 -12.5423 690.156 -39.8732 669.314 -66.3069C648.161 -93.1337 626.289 -120.874 575.19 -144.434C524.091 -167.994 494.047 -164.19 464.991 -160.512C436.361 -156.888 406.758 -153.142 356.48 -176.322C306.201 -199.504 284.649 -226.838 263.806 -253.272C242.653 -280.099 220.781 -307.839 169.68 -331.4C118.578 -354.963 88.5312 -351.161 59.4755 -347.483C32.6052 -344.084 4.87381 -340.576 -39.9993 -359.321V-353.726C4.91892 -335.219 32.8207 -338.736 59.8535 -342.158C88.4851 -345.782 118.091 -349.527 168.37 -326.346C218.648 -303.164 240.201 -275.831 261.044 -249.397C282.197 -222.57 304.069 -194.829 355.17 -171.267C406.27 -147.707 436.313 -151.509 465.37 -155.189C493.999 -158.811 523.605 -162.56 573.88 -139.379C624.156 -116.199 645.708 -88.8654 666.55 -62.4317C687.703 -35.6049 709.575 -7.86478 760.674 15.6953C811.774 39.2553 841.818 35.4523 870.873 31.775C896.128 28.5778 922.149 25.299 962.437 40.4748V34.9081C922.079 19.9194 895.909 23.2317 870.495 26.449Z" fill="url(#paint1_linear_309_10296)" fill-opacity="0.3"/>
<path d="M855.906 47.142C827.206 51.0372 797.532 55.0635 747.265 31.8872C696.995 8.70963 675.518 -18.9008 654.748 -45.6032C633.665 -72.7082 611.864 -100.734 560.757 -124.298C509.654 -147.863 479.531 -143.775 450.401 -139.819C421.706 -135.924 392.03 -131.896 341.76 -155.074C291.489 -178.253 270.011 -205.865 249.241 -232.567C228.158 -259.672 206.357 -287.701 155.247 -311.265C104.142 -334.83 74.0189 -330.741 44.8881 -326.789C21.0301 -323.551 -3.51558 -320.238 -39.9993 -332.525V-327.004C-3.42736 -314.873 21.2787 -318.208 45.2931 -321.468C73.9968 -325.362 103.67 -329.388 153.939 -306.21C204.211 -283.031 225.689 -255.42 246.459 -228.716C267.542 -201.611 289.343 -173.583 340.452 -150.019C391.557 -126.457 421.676 -130.544 450.809 -134.499C479.506 -138.394 509.181 -142.42 559.449 -119.244C609.719 -96.0649 631.196 -68.4532 651.967 -41.7521C673.049 -14.6472 694.85 13.3818 745.957 36.9445C797.062 60.5072 827.183 56.4194 856.313 52.4653C884.525 48.6369 913.696 44.6962 962.438 66.5875V60.9431C913.645 39.3194 884.301 43.2882 855.906 47.142Z" fill="url(#paint2_linear_309_10296)" fill-opacity="0.3"/>
<path d="M951.832 82.7996C900.718 59.2315 870.522 63.6068 841.317 67.8377C812.554 72.0031 782.809 76.3102 732.546 53.1366C682.282 29.963 660.881 2.07181 640.183 -24.8981C619.17 -52.2798 597.441 -80.5949 546.328 -104.162C495.214 -127.73 465.017 -123.354 435.813 -119.126C407.05 -114.958 377.304 -110.651 327.041 -133.826C276.776 -157.002 255.373 -184.892 234.674 -211.863C213.66 -239.248 191.931 -267.563 140.816 -291.13C89.7021 -314.698 59.5026 -310.324 30.2976 -306.094C9.74266 -303.119 -11.3165 -300.077 -39.9993 -307.034V-301.588C-11.1932 -294.721 10.0243 -297.779 30.7317 -300.779C59.4936 -304.945 89.2419 -309.253 139.508 -286.076C189.774 -262.9 211.176 -235.011 231.875 -208.039C252.889 -180.656 274.619 -152.341 325.733 -128.773C376.845 -105.206 407.042 -109.58 436.247 -113.809C465.012 -117.976 494.757 -122.283 545.02 -99.1097C595.284 -75.9348 616.686 -48.0449 637.384 -21.075C658.397 6.30939 680.125 34.6231 731.238 58.1899C782.349 81.7552 812.549 77.384 841.751 73.1531C870.517 68.9877 900.262 64.6793 950.524 87.8515C954.695 89.7744 958.65 91.7334 962.44 93.7191V87.9772C959.042 86.2295 955.523 84.5005 951.832 82.7996Z" fill="url(#paint3_linear_309_10296)" fill-opacity="0.3"/>
<path d="M937.401 102.935C886.28 79.3657 856.006 84.0245 826.729 88.5308C797.897 92.969 768.082 97.5569 717.826 74.386C667.569 51.2151 646.242 23.0457 625.618 -4.19427C604.674 -31.8555 583.017 -60.4581 531.899 -84.0275C480.781 -107.597 450.505 -102.939 421.227 -98.4304C392.395 -93.9949 362.579 -89.4057 312.323 -112.577C262.064 -135.749 240.736 -163.917 220.111 -191.158C199.166 -218.821 177.508 -247.423 126.387 -270.994C75.2649 -294.565 44.9893 -289.906 15.7102 -285.401C-1.20997 -282.797 -18.4729 -280.151 -39.9993 -283.082V-277.687C-18.3186 -274.793 -0.901222 -277.461 16.1683 -280.087C45.0024 -284.522 74.8168 -289.112 125.076 -265.938C175.335 -242.765 196.663 -214.597 217.288 -187.357C238.232 -159.694 259.891 -131.091 311.012 -107.521C362.13 -83.9526 392.405 -88.6114 421.684 -93.1177C450.519 -97.5545 480.333 -102.142 530.588 -78.9715C580.844 -55.7993 602.171 -27.6313 622.795 -0.391296C643.739 27.2699 665.396 55.8725 716.515 79.4419C767.631 103.011 797.907 98.3538 827.187 93.8475C856.019 89.4107 885.833 84.8214 936.09 107.992C945.91 112.521 954.614 117.242 962.436 122.108V116.207C954.94 111.64 946.66 107.203 937.401 102.935Z" fill="url(#paint4_linear_309_10296)" fill-opacity="0.3"/>
<path d="M922.971 123.071C871.845 99.4972 841.493 104.443 812.14 109.225C783.243 113.934 753.356 118.802 703.107 95.634C652.856 72.4658 631.604 44.0197 611.052 16.5096C590.178 -11.4284 568.593 -40.3212 517.467 -63.8919C466.344 -87.464 435.991 -82.5204 406.637 -77.7386C377.735 -73.0303 347.851 -68.1629 297.602 -91.3285C247.35 -114.499 226.098 -142.946 205.545 -170.454C184.67 -198.395 163.084 -227.286 111.956 -250.86C60.8278 -274.433 30.476 -269.488 1.12169 -264.707C-11.8077 -262.602 -24.9417 -260.472 -39.9993 -260.826V-255.454C-24.7652 -255.109 -11.4769 -257.266 1.60687 -259.398C30.5091 -264.106 60.3928 -268.973 110.646 -245.805C160.898 -222.636 182.151 -194.188 202.704 -166.679C223.578 -138.739 245.165 -109.849 296.292 -86.2752C347.419 -62.7018 377.77 -67.6481 407.124 -72.4299C436.023 -77.1369 465.906 -82.0083 516.158 -58.84C566.409 -35.6718 587.66 -7.2243 608.212 20.2845C629.087 48.2252 650.673 77.1152 701.798 100.689C752.924 124.261 783.275 119.316 812.627 114.534C841.527 109.826 871.412 104.957 921.661 128.123C938 135.658 951.258 143.749 962.438 152.185V146.036C951.496 138.003 938.623 130.286 922.971 123.071Z" fill="url(#paint5_linear_309_10296)" fill-opacity="0.3"/>
<path d="M908.538 143.206C857.404 119.63 826.978 124.861 797.551 129.918C768.584 134.897 738.63 140.046 688.386 116.882C638.143 93.7165 616.966 64.9922 596.486 37.2147C575.68 8.99585 554.168 -20.1831 503.035 -43.7578C451.901 -67.3326 421.474 -62.1041 392.047 -57.0455C363.08 -52.0645 333.127 -46.9176 282.883 -70.0832C232.637 -93.2487 211.459 -121.973 190.977 -149.752C170.172 -177.971 148.658 -207.15 97.523 -230.726C46.3887 -254.302 15.9588 -249.072 -13.4698 -244.015C-22.0556 -242.537 -30.7347 -241.052 -39.9993 -240.288V-234.918C-30.5523 -235.691 -21.7068 -237.204 -12.9545 -238.707C16.0149 -243.686 45.9697 -248.834 96.2148 -225.668C146.46 -202.502 167.638 -173.777 188.12 -146C208.926 -117.781 230.439 -88.602 281.573 -65.0246C332.705 -41.4512 363.131 -46.6796 392.561 -51.7382C421.527 -56.7193 451.48 -61.8661 501.726 -38.7005C551.969 -15.535 573.146 13.1893 593.627 40.9669C614.432 69.1857 635.945 98.3633 687.077 121.938C738.208 145.513 768.636 140.283 798.065 135.226C827.032 130.246 856.987 125.099 907.229 148.262C931.243 159.334 948.607 171.678 962.438 184.578V178.06C948.749 165.698 931.685 153.878 908.538 143.206Z" fill="url(#paint6_linear_309_10296)" fill-opacity="0.3"/>
<path d="M894.108 163.34C842.968 139.761 812.464 145.277 782.964 150.613C753.928 155.864 723.906 161.293 673.668 138.131C623.431 114.969 602.329 85.9661 581.921 57.9198C561.186 29.4242 539.745 -0.0435944 488.605 -23.621C437.467 -47.1998 406.963 -41.6838 377.46 -36.3484C348.422 -31.0986 318.399 -25.6709 268.163 -48.8325C217.924 -71.9954 196.82 -100.998 176.411 -129.045C155.675 -157.542 134.235 -187.009 83.0934 -210.588C31.9541 -234.166 1.44797 -228.65 -28.0547 -223.318C-32.0003 -222.604 -35.968 -221.89 -39.9988 -221.242V-215.853C-35.7835 -216.526 -31.6385 -217.272 -27.5164 -218.018C1.51914 -223.268 31.5441 -228.697 81.7832 -205.533C132.021 -182.37 153.125 -153.368 173.533 -125.32C194.27 -96.8231 215.711 -67.3567 266.853 -43.7766C317.991 -20.1978 348.495 -25.7137 377.998 -31.0491C407.036 -36.299 437.059 -41.7266 487.295 -18.5651C537.532 4.59648 558.634 33.5989 579.042 61.6452C599.778 90.1422 621.219 119.609 672.358 143.186C723.498 166.767 754.001 161.249 783.502 155.915C812.538 150.664 842.56 145.235 892.798 168.397C926.003 183.707 946.476 201.569 962.437 220.02V212.969C946.574 195.236 926.185 178.13 894.108 163.34Z" fill="url(#paint7_linear_309_10296)" fill-opacity="0.3"/>
<path d="M879.677 183.476C828.53 159.894 797.951 165.698 768.376 171.307C739.274 176.828 709.178 182.537 658.95 159.379C608.72 136.219 587.69 106.939 567.354 78.6222C546.688 49.8471 525.318 20.0932 474.173 -3.48686C423.027 -27.071 392.445 -21.2676 362.872 -15.658C333.768 -10.1341 303.673 -4.42827 253.445 -27.5858C203.213 -50.746 182.183 -80.0266 161.846 -108.343C141.18 -137.119 119.81 -166.873 68.6619 -190.456C19.0372 -213.334 -11.2293 -208.554 -39.9993 -203.126V-197.724C-11.5321 -203.106 18.3135 -208.008 67.3517 -185.399C117.584 -162.239 138.614 -132.958 158.95 -104.642C179.617 -75.8666 200.987 -46.1126 252.135 -22.5299C303.28 1.0529 333.861 -4.75053 363.436 -10.3601C392.538 -15.88 422.633 -21.5898 472.862 1.56773C523.093 24.7279 544.122 54.0085 564.458 82.3249C585.123 111.099 606.493 140.854 657.64 164.434C708.785 188.017 739.367 182.215 768.94 176.604C798.046 171.081 828.14 165.374 878.367 188.532C922.472 208.866 944.061 233.921 962.437 258.899V251.298C944.328 227.162 922.385 203.167 879.677 183.476Z" fill="url(#paint8_linear_309_10296)" fill-opacity="0.3"/>
<path d="M958.288 286.291C937.692 257.238 916.396 227.197 865.245 203.612C814.093 180.028 783.435 186.115 753.787 192.003C724.617 197.793 694.452 203.784 644.228 180.627C594.004 157.471 573.05 127.911 552.786 99.3273C532.191 70.2728 510.894 40.2327 459.743 16.6472C408.592 -6.93689 377.933 -0.84996 348.284 5.03772C319.113 10.8278 288.95 16.8197 238.725 -6.33649C188.498 -29.494 167.544 -59.054 147.279 -87.6379C126.682 -116.692 105.384 -146.734 54.2291 -170.319C12.8435 -189.401 -15.1255 -189.059 -40 -185.115V-179.727C-15.4523 -183.654 12.1127 -184.079 52.9189 -165.263C103.145 -142.106 124.101 -112.547 144.366 -83.962C164.962 -54.9074 186.261 -24.866 237.414 -1.28189C288.564 22.3022 319.221 16.2153 348.873 10.3303C378.042 4.53757 408.208 -1.45171 458.432 21.7045C508.656 44.8594 529.609 74.4194 549.872 103.003C570.468 132.058 591.765 162.099 642.917 185.683C694.069 209.269 724.726 203.179 754.375 197.293C783.547 191.503 813.71 185.514 863.932 208.668C914.156 231.825 935.108 261.382 955.373 289.967C957.703 293.255 960.045 296.556 962.436 299.857V292.131C961.045 290.18 959.665 288.233 958.288 286.291Z" fill="url(#paint9_linear_309_10296)" fill-opacity="0.3"/>
<path d="M943.721 306.994C923.195 277.662 901.971 247.333 850.814 223.745C799.656 200.157 768.922 206.532 739.198 212.695C709.962 218.759 679.726 225.028 629.507 201.874C579.289 178.721 558.41 148.885 538.219 120.031C517.693 90.6984 496.469 60.3695 445.309 36.7828C394.151 13.1933 363.417 19.569 333.693 25.7308C304.454 31.795 274.22 38.0624 224.003 14.9116C173.783 -8.24329 152.904 -38.0801 132.712 -66.9341C112.185 -96.2668 90.9591 -126.596 39.7977 -150.184C6.23612 -165.655 -18.5361 -168.236 -39.9993 -166.44V-161.065C-18.8729 -162.85 5.49432 -160.338 38.4895 -145.127C88.7096 -121.972 109.589 -92.1362 129.781 -63.2822C150.308 -33.9508 171.534 -3.62059 222.695 19.9675C273.852 43.5556 304.586 37.1812 334.312 31.0181C363.549 24.9566 393.782 18.6852 444.001 41.8387C494.219 64.9936 515.098 94.8304 535.289 123.683C555.815 153.014 577.04 183.343 628.199 206.933C679.358 230.521 710.094 224.147 739.816 217.983C769.054 211.919 799.289 205.65 849.506 228.804C899.722 251.956 920.601 281.793 940.791 310.644C947.575 320.342 954.444 330.145 962.438 339.779V332.497C955.656 324.04 949.656 315.474 943.721 306.994Z" fill="url(#paint10_linear_309_10296)" fill-opacity="0.3"/>
<path d="M929.156 327.7C908.7 298.091 887.547 267.473 836.383 243.882C785.218 220.291 754.409 226.952 724.611 233.39C695.303 239.723 664.998 246.273 614.789 223.123C564.578 199.974 543.774 169.859 523.655 140.738C503.198 111.127 482.046 80.509 430.879 56.9182C379.713 33.3274 348.902 39.988 319.108 46.4266C289.801 52.7582 259.497 59.3091 209.286 36.1596C159.072 13.0074 138.266 -17.1062 118.146 -46.229C97.6894 -75.8385 76.535 -106.456 25.3676 -130.048C-0.924282 -142.169 -21.8331 -146.294 -39.9993 -146.576V-141.201C-22.1769 -140.91 -1.67711 -136.856 24.0584 -124.991C74.2725 -101.84 95.0781 -71.7252 115.198 -42.6025C135.655 -12.993 156.809 17.6248 207.977 41.2169C259.141 64.8077 289.952 58.1484 319.749 51.7085C349.052 45.3755 379.358 38.8246 429.57 61.9755C479.782 85.125 500.587 115.241 520.707 144.364C541.162 173.974 562.315 204.59 613.48 228.182C664.646 251.773 695.457 245.114 725.253 238.674C754.558 232.339 784.863 225.79 835.074 248.941C885.284 272.09 906.089 302.204 926.207 331.327C936.756 346.595 947.499 362.129 962.438 376.83V370.109C948.96 356.351 938.97 341.908 929.156 327.7Z" fill="url(#paint11_linear_309_10296)" fill-opacity="0.3"/>
<path d="M914.588 348.405C894.203 318.516 873.123 287.611 821.952 264.019C770.78 240.424 739.895 247.37 710.024 254.086C680.648 260.691 650.275 267.521 600.072 244.373C549.868 221.226 529.137 190.833 509.089 161.44C488.703 131.552 467.623 100.647 416.451 77.0538C365.279 53.4617 334.392 60.407 304.521 67.1224C275.146 73.7268 244.773 80.5572 194.567 57.4104C144.361 34.2609 123.629 3.86775 103.581 -25.5251C83.1932 -55.4128 62.1119 -86.318 10.9386 -109.911C-8.65708 -118.946 -25.2715 -123.492 -39.9993 -125.299V-119.903C-25.6263 -118.103 -9.43096 -113.642 9.62737 -104.857C59.8334 -81.7074 80.5648 -51.3143 100.614 -21.924C121.001 7.96494 142.082 38.8702 193.256 62.4636C244.429 86.0571 275.317 79.1131 305.186 72.3963C334.559 65.7919 364.934 58.9615 415.141 82.1097C465.345 105.258 486.076 135.65 506.123 165.043C526.51 194.93 547.59 225.835 598.761 249.43C649.933 273.022 680.819 266.077 710.691 259.363C740.066 252.759 770.439 245.928 820.643 269.076C870.847 292.222 891.576 322.614 911.624 352.006C925.292 372.046 939.287 392.537 962.438 410.981V404.701C940.938 387.02 927.615 367.502 914.588 348.405Z" fill="url(#paint12_linear_309_10296)" fill-opacity="0.3"/>
<path d="M962.439 436.791C931.864 416.371 915.728 392.43 900.023 369.109C879.706 338.943 858.698 307.749 807.522 284.154C756.343 260.557 725.379 267.788 695.436 274.782C665.994 281.659 635.55 288.766 585.353 265.622C535.155 242.477 514.499 211.807 494.523 182.146C474.207 151.979 453.199 120.787 402.021 97.1904C350.842 73.5943 319.878 80.8258 289.936 87.8167C260.493 94.6939 230.05 101.804 179.851 78.6582C129.651 55.5114 108.994 24.8428 89.0173 -4.81882C68.6999 -34.9873 47.6908 -66.18 -3.48859 -89.7775C-16.9423 -95.9807 -28.9876 -100.036 -39.9963 -102.544V-97.1013C-29.3595 -94.6328 -17.7392 -90.6895 -4.79877 -84.7216C45.4013 -61.5761 66.0585 -30.9062 86.034 -1.24453C106.352 28.9226 127.361 60.1167 178.541 83.7128C229.717 107.309 260.682 100.077 290.626 93.0865C320.071 86.2094 350.514 79.1008 400.711 102.245C450.909 125.39 471.565 156.06 491.54 185.721C511.857 215.888 532.865 247.082 584.043 270.677C635.221 294.274 666.183 287.04 696.127 280.049C725.572 273.175 756.016 266.066 806.211 289.209C856.408 312.354 877.064 343.023 897.039 372.685C912.338 395.401 928.035 418.699 956.708 438.898H962.439V436.791Z" fill="url(#paint13_linear_309_10296)" fill-opacity="0.3"/>
<path d="M885.454 389.813C865.208 359.369 844.274 327.887 793.09 304.29C741.907 280.692 710.866 288.209 680.847 295.476C651.336 302.622 620.822 310.01 570.631 286.872C520.439 263.729 499.857 232.781 479.954 202.852C459.708 172.406 438.772 140.926 387.586 117.327C336.401 93.7273 305.362 101.244 275.344 108.513C245.831 115.659 215.317 123.048 165.126 99.9064C114.933 76.7636 94.3486 45.8169 74.4442 15.8878C54.197 -14.5588 33.2601 -46.0404 -17.9263 -69.6405C-25.7313 -73.2389 -33.0631 -76.1059 -40 -78.3684V-72.8431C-33.4551 -70.6715 -26.5613 -67.961 -19.2365 -64.5833C30.9575 -41.4404 51.5395 -10.4924 71.4449 19.438C91.6921 49.8833 112.63 81.3635 163.815 104.964C215 128.563 246.04 121.043 276.059 113.776C305.57 106.631 336.084 99.2418 386.276 122.382C436.468 145.525 457.05 176.473 476.954 206.403C497.2 236.849 518.136 268.329 569.321 291.928C620.504 315.525 651.544 308.011 681.564 300.741C711.074 293.595 741.588 286.206 791.78 309.347C841.97 332.489 862.551 363.435 882.453 393.366C892.624 408.659 902.972 424.212 917.237 438.9H923.988C907.681 423.217 896.459 406.361 885.454 389.813Z" fill="url(#paint14_linear_309_10296)" fill-opacity="0.3"/>
<path d="M870.888 410.517C850.712 379.795 829.85 348.026 778.659 324.424C727.469 300.823 696.351 308.625 666.261 316.171C636.684 323.588 606.098 331.256 555.913 308.118C505.728 284.978 485.22 253.753 465.388 223.554C445.212 192.832 424.349 161.064 373.157 137.461C321.967 113.859 290.849 121.661 260.757 129.206C231.179 136.623 200.594 144.293 150.409 121.154C100.222 98.0142 79.713 66.7893 59.8798 36.5901C39.7018 5.8654 18.838 -25.9023 -32.3544 -49.5052C-34.9587 -50.706 -37.4979 -51.8051 -40 -52.8481V-47.2399C-37.9189 -46.3587 -35.8158 -45.4427 -33.6646 -44.4519C16.5214 -21.3117 37.0293 9.91577 56.8635 40.1123C77.0415 70.837 97.9052 102.605 149.099 126.21C200.287 149.812 231.405 142.008 261.498 134.463C291.078 127.047 321.663 119.379 371.847 142.515C422.032 165.655 442.539 196.88 462.372 227.079C482.548 257.801 503.411 289.569 554.602 313.172C605.791 336.774 636.909 328.972 667.002 321.427C696.581 314.01 727.166 306.342 777.349 329.479C827.533 352.616 848.041 383.841 867.872 414.04C873.303 422.309 878.79 430.653 884.897 438.895H890.599C883.37 429.522 877.095 419.971 870.888 410.517Z" fill="url(#paint15_linear_309_10296)" fill-opacity="0.3"/>
<path d="M764.227 344.561C713.032 320.957 681.841 329.044 651.671 336.867C622.024 344.553 591.37 352.503 541.192 329.368C491.013 306.232 470.58 274.727 450.82 244.262C430.713 213.26 409.921 181.204 358.724 157.597C307.528 133.993 276.336 142.082 246.168 149.903C216.522 157.592 185.867 165.54 135.688 142.405C85.5068 119.268 65.0742 87.7633 45.3131 57.2967C26.1205 27.7059 6.28525 -2.841 -39.9993 -26.0868V-20.3703C4.34453 2.33262 23.6194 32.0237 42.2798 60.7948C62.3876 91.7976 83.1792 123.853 134.378 147.46C185.574 171.065 216.768 162.977 246.933 155.155C276.579 147.466 307.236 139.518 357.414 162.653C407.594 185.789 428.026 217.292 447.787 247.76C467.893 278.762 488.685 310.817 539.881 334.422C591.078 358.026 622.271 349.938 652.436 342.117C682.083 334.429 712.739 326.481 762.917 349.614C813.095 372.75 833.526 404.253 853.285 434.723C854.186 436.112 855.092 437.504 855.998 438.897H861.318C859.636 436.335 857.974 433.775 856.319 431.223C836.213 400.222 815.423 368.165 764.227 344.561Z" fill="url(#paint16_linear_309_10296)" fill-opacity="0.3"/>
<path d="M749.798 364.698C698.594 341.089 667.325 349.464 637.086 357.562C607.37 365.52 576.645 373.749 526.474 350.618C476.301 327.483 455.942 295.702 436.253 264.966C416.217 233.686 395.497 201.342 344.294 177.734C293.09 154.127 261.822 162.502 231.582 170.6C201.867 178.559 171.14 186.786 120.969 163.654C70.794 140.521 50.4346 108.738 30.7447 78.0004C13.7354 51.4477 -3.77521 24.1301 -39.9993 2.03833V7.94606C-5.6628 29.4241 11.2583 55.8136 27.6973 81.4757C47.735 112.755 68.4544 145.099 119.66 168.709C170.863 192.316 202.131 183.942 232.372 175.843C262.086 167.884 292.811 159.655 342.985 182.788C393.159 205.92 413.517 237.703 433.206 268.44C453.243 299.721 473.961 332.063 525.165 355.67C576.364 379.278 607.635 370.905 637.876 362.805C667.589 354.848 698.315 346.619 748.488 369.75C789.704 388.754 810.796 413.593 827.93 438.896H833.308C815.39 411.856 793.909 385.035 749.798 364.698Z" fill="url(#paint17_linear_309_10296)" fill-opacity="0.3"/>
<path d="M622.499 378.257C592.718 386.483 561.921 394.994 511.754 371.865C461.588 348.734 441.304 316.674 421.686 285.669C401.719 254.11 381.073 221.479 329.864 197.868C278.652 174.256 247.308 182.917 216.994 191.293C187.214 199.522 156.416 208.032 106.249 184.902C56.0803 161.77 35.795 129.71 16.1763 98.7042C1.65298 75.7459 -13.2462 52.222 -39.9993 32.0129V38.2135C-15.0356 57.6884 -0.785946 80.1854 13.1138 102.154C33.0814 133.713 53.7296 166.346 104.94 189.957C156.15 213.568 187.496 204.907 217.808 196.532C247.592 188.303 278.389 179.793 328.555 202.923C378.721 226.053 399.005 258.113 418.623 289.119C438.589 320.677 459.235 353.31 510.445 376.92C561.654 400.53 592.999 391.869 623.313 383.493C653.095 375.264 683.89 366.756 734.057 389.885C764.095 403.734 783.414 420.786 798.297 438.896H804.187C788.587 418.933 768.302 400.014 735.367 384.829C684.158 361.221 652.813 369.882 622.499 378.257Z" fill="url(#paint18_linear_309_10296)" fill-opacity="0.3"/>
<path d="M607.912 398.953C578.062 407.452 547.196 416.241 497.035 393.115C446.874 369.986 426.664 337.649 407.12 306.375C387.223 274.539 366.649 241.618 315.434 218.005C264.218 194.39 232.795 203.338 202.409 211.99C172.558 220.491 141.691 229.279 91.5314 206.152C41.3685 183.024 21.1574 150.685 1.61188 119.411C-10.0264 100.79 -21.9043 81.8035 -39.9993 64.5203V71.1781C-23.5373 87.532 -12.3972 105.35 -1.46861 122.835C18.4288 154.673 39.0038 187.593 90.2213 211.208C141.437 234.823 172.859 225.873 203.246 217.221C233.098 208.722 263.965 199.933 314.124 223.059C364.284 246.186 384.495 278.525 404.039 309.799C423.935 341.636 444.509 374.556 495.725 398.169C546.939 421.784 578.361 412.837 608.749 404.184C638.6 395.685 669.465 386.895 719.625 410.022C738.149 418.563 752.579 428.362 764.409 438.897H771.477C758.553 426.459 742.457 414.889 720.935 404.967C669.722 381.352 638.298 390.3 607.912 398.953Z" fill="url(#paint19_linear_309_10296)" fill-opacity="0.3"/>
<path d="M593.324 419.647C563.406 428.418 532.468 437.485 482.316 414.361C432.163 391.237 412.026 358.62 392.552 327.078C372.726 294.963 352.224 261.756 301.003 238.139C249.782 214.524 218.282 223.756 187.823 232.686C157.903 241.457 126.968 250.524 76.8127 227.4C26.6568 204.273 6.51882 171.656 -12.9555 140.115C-21.1464 126.847 -29.4596 113.395 -39.9993 100.507V107.865C-30.8671 119.522 -23.4099 131.594 -16.0511 143.514C3.77615 175.628 24.278 208.837 75.5025 232.453C126.724 256.071 158.221 246.837 188.683 237.909C218.6 229.138 249.538 220.071 299.693 243.195C349.846 266.319 369.983 298.936 389.457 330.478C409.283 362.592 429.785 395.8 481.006 419.417C532.227 443.032 563.723 433.8 594.185 424.87C624.104 416.1 655.042 407.032 705.194 430.156C711.227 432.938 716.815 435.859 722.03 438.896H731.602C724.131 434.023 715.832 429.401 706.504 425.1C655.283 401.484 623.785 410.719 593.324 419.647Z" fill="url(#paint20_linear_309_10296)" fill-opacity="0.3"/>
<path d="M467.596 435.61C417.447 412.489 397.385 379.594 377.983 347.782C358.227 315.389 337.797 281.893 286.57 258.274C235.341 234.654 203.767 244.174 173.233 253.38C143.246 262.42 112.239 271.769 62.0899 248.648C11.941 225.525 -8.12278 192.629 -27.5249 160.817C-31.5668 154.191 -35.6427 147.517 -39.9993 140.891V149.075C-36.7845 154.114 -33.701 159.167 -30.6345 164.195C-10.8775 196.588 9.55219 230.084 60.7807 253.704C112.01 277.325 143.585 267.805 174.118 258.598C204.105 249.558 235.113 240.21 285.26 263.33C335.409 286.453 355.471 319.348 374.873 351.16C394.143 382.755 414.067 415.393 462.569 438.899H475.153C472.679 437.877 470.169 436.798 467.596 435.61Z" fill="url(#paint21_linear_309_10296)" fill-opacity="0.3"/>
<path d="M363.416 368.487C343.731 335.817 323.375 302.033 272.141 278.412C220.905 254.787 189.255 264.594 158.647 274.077C128.594 283.388 97.515 293.016 47.3721 269.899C-0.966385 247.609 -21.2818 215.98 -39.9993 184.991V193.489C-21.7208 223.392 -0.678688 253.4 46.0639 274.95C97.2955 298.573 128.946 288.769 159.556 279.286C189.611 269.975 220.691 260.347 270.832 283.464C320.975 306.583 340.963 339.758 360.293 371.838C374.229 394.969 388.517 418.652 413.845 438.896H421.968C393.327 418.093 378.171 392.975 363.416 368.487Z" fill="url(#paint22_linear_309_10296)" fill-opacity="0.3"/>
<path d="M348.847 389.191C329.231 356.24 308.947 322.171 257.707 298.545C206.468 274.92 174.741 285.012 144.059 294.772C113.935 304.354 82.7852 314.26 32.6513 291.145C-3.69402 274.388 -24.1537 252.197 -39.9993 228.932V236.822C-24.2299 259.031 -3.67397 280.055 31.3421 296.199C82.5807 319.823 114.308 309.732 144.989 299.972C175.113 290.391 206.26 280.484 256.398 303.599C306.535 326.715 326.449 360.167 345.707 392.515C355.006 408.135 364.461 424.005 377.286 438.896H383.553C369.047 423.098 358.853 406 348.847 389.191Z" fill="url(#paint23_linear_309_10296)" fill-opacity="0.3"/>
<path d="M243.277 318.682C192.033 295.054 160.229 305.432 129.475 315.467C99.2843 325.32 68.0664 335.509 17.9336 312.393C-8.22402 300.333 -26.1255 285.381 -39.9993 269.207V276.289C-26.2067 291.659 -8.53678 305.848 16.6224 317.449C67.87 341.077 99.6723 330.698 130.426 320.662C160.618 310.81 191.837 300.623 241.967 323.737C292.098 346.85 311.938 380.579 331.125 413.198C336.159 421.757 341.244 430.39 346.886 438.897H352.299C345.722 429.336 339.968 419.568 334.28 409.896C314.735 376.669 294.524 342.31 243.277 318.682Z" fill="url(#paint24_linear_309_10296)" fill-opacity="0.3"/>
</g>
<defs>
<linearGradient id="paint0_linear_309_10296" x1="163.968" y1="-64.5486" x2="437.014" y2="-244.372" gradientUnits="userSpaceOnUse">
<stop stop-color="#525154"/>
<stop offset="1" stop-color="#525154" stop-opacity="0"/>
</linearGradient>
<linearGradient id="paint1_linear_309_10296" x1="1.00054" y1="-43.9372" x2="302.252" y2="-270.322" gradientUnits="userSpaceOnUse">
<stop stop-color="#525154"/>
<stop offset="1" stop-color="#525154" stop-opacity="0"/>
</linearGradient>
<linearGradient id="paint2_linear_309_10296" x1="1.00062" y1="-17.6803" x2="301.88" y2="-244.173" gradientUnits="userSpaceOnUse">
<stop stop-color="#525154"/>
<stop offset="1" stop-color="#525154" stop-opacity="0"/>
</linearGradient>
<linearGradient id="paint3_linear_309_10296" x1="1.00067" y1="8.59642" x2="304.071" y2="-217.255" gradientUnits="userSpaceOnUse">
<stop stop-color="#525154"/>
<stop offset="1" stop-color="#525154" stop-opacity="0"/>
</linearGradient>
<linearGradient id="paint4_linear_309_10296" x1="1.0005" y1="35.2937" x2="308.305" y2="-189.249" gradientUnits="userSpaceOnUse">
<stop stop-color="#525154"/>
<stop offset="1" stop-color="#525154" stop-opacity="0"/>
</linearGradient>
<linearGradient id="paint5_linear_309_10296" x1="1.00062" y1="63.3218" x2="313.261" y2="-159.581" gradientUnits="userSpaceOnUse">
<stop stop-color="#525154"/>
<stop offset="1" stop-color="#525154" stop-opacity="0"/>
</linearGradient>
<linearGradient id="paint6_linear_309_10296" x1="1.00057" y1="93.174" x2="319.146" y2="-127.619" gradientUnits="userSpaceOnUse">
<stop stop-color="#525154"/>
<stop offset="1" stop-color="#525154" stop-opacity="0"/>
</linearGradient>
<linearGradient id="paint7_linear_309_10296" x1="1.00102" y1="125.432" x2="326.143" y2="-92.6198" gradientUnits="userSpaceOnUse">
<stop stop-color="#525154"/>
<stop offset="1" stop-color="#525154" stop-opacity="0"/>
</linearGradient>
<linearGradient id="paint8_linear_309_10296" x1="1.00054" y1="160.399" x2="334.191" y2="-54.1753" gradientUnits="userSpaceOnUse">
<stop stop-color="#525154"/>
<stop offset="1" stop-color="#525154" stop-opacity="0"/>
</linearGradient>
<linearGradient id="paint9_linear_309_10296" x1="0.999803" y1="197.005" x2="342.482" y2="-13.6041" gradientUnits="userSpaceOnUse">
<stop stop-color="#525154"/>
<stop offset="1" stop-color="#525154" stop-opacity="0"/>
</linearGradient>
<linearGradient id="paint10_linear_309_10296" x1="1.00062" y1="232.793" x2="349.768" y2="26.0027" gradientUnits="userSpaceOnUse">
<stop stop-color="#525154"/>
<stop offset="1" stop-color="#525154" stop-opacity="0"/>
</linearGradient>
<linearGradient id="paint11_linear_309_10296" x1="1.00062" y1="266.319" x2="355.556" y2="62.8014" gradientUnits="userSpaceOnUse">
<stop stop-color="#525154"/>
<stop offset="1" stop-color="#525154" stop-opacity="0"/>
</linearGradient>
<linearGradient id="paint12_linear_309_10296" x1="1.00062" y1="297.752" x2="359.774" y2="96.7568" gradientUnits="userSpaceOnUse">
<stop stop-color="#525154"/>
<stop offset="1" stop-color="#525154" stop-opacity="0"/>
</linearGradient>
<linearGradient id="paint13_linear_309_10296" x1="1.00343" y1="324.58" x2="361.41" y2="124.595" gradientUnits="userSpaceOnUse">
<stop stop-color="#525154"/>
<stop offset="1" stop-color="#525154" stop-opacity="0"/>
</linearGradient>
<linearGradient id="paint14_linear_309_10296" x1="-0.572707" y1="329.685" x2="344.936" y2="136.704" gradientUnits="userSpaceOnUse">
<stop stop-color="#525154"/>
<stop offset="1" stop-color="#525154" stop-opacity="0"/>
</linearGradient>
<linearGradient id="paint15_linear_309_10296" x1="-1.93833" y1="335.069" x2="329.148" y2="147.282" gradientUnits="userSpaceOnUse">
<stop stop-color="#525154"/>
<stop offset="1" stop-color="#525154" stop-opacity="0"/>
</linearGradient>
<linearGradient id="paint16_linear_309_10296" x1="-3.13524" y1="340.722" x2="313.743" y2="156.631" gradientUnits="userSpaceOnUse">
<stop stop-color="#525154"/>
<stop offset="1" stop-color="#525154" stop-opacity="0"/>
</linearGradient>
<linearGradient id="paint17_linear_309_10296" x1="-4.28086" y1="346.659" x2="297.901" y2="165.61" gradientUnits="userSpaceOnUse">
<stop stop-color="#525154"/>
<stop offset="1" stop-color="#525154" stop-opacity="0"/>
</linearGradient>
<linearGradient id="paint18_linear_309_10296" x1="-5.47191" y1="352.988" x2="280.799" y2="174.977" gradientUnits="userSpaceOnUse">
<stop stop-color="#525154"/>
<stop offset="1" stop-color="#525154" stop-opacity="0"/>
</linearGradient>
<linearGradient id="paint19_linear_309_10296" x1="-6.80973" y1="359.852" x2="261.527" y2="185.532" gradientUnits="userSpaceOnUse">
<stop stop-color="#525154"/>
<stop offset="1" stop-color="#525154" stop-opacity="0"/>
</linearGradient>
<linearGradient id="paint20_linear_309_10296" x1="-8.44062" y1="367.449" x2="238.881" y2="198.429" gradientUnits="userSpaceOnUse">
<stop stop-color="#525154"/>
<stop offset="1" stop-color="#525154" stop-opacity="0"/>
</linearGradient>
<linearGradient id="paint21_linear_309_10296" x1="-18.9294" y1="375.978" x2="172.048" y2="277.034" gradientUnits="userSpaceOnUse">
<stop stop-color="#525154"/>
<stop offset="1" stop-color="#525154" stop-opacity="0"/>
</linearGradient>
<linearGradient id="paint22_linear_309_10296" x1="-21.1047" y1="385.287" x2="146.336" y2="293.981" gradientUnits="userSpaceOnUse">
<stop stop-color="#525154"/>
<stop offset="1" stop-color="#525154" stop-opacity="0"/>
</linearGradient>
<linearGradient id="paint23_linear_309_10296" x1="-22.6759" y1="394.565" x2="123.177" y2="306.383" gradientUnits="userSpaceOnUse">
<stop stop-color="#525154"/>
<stop offset="1" stop-color="#525154" stop-opacity="0"/>
</linearGradient>
<linearGradient id="paint24_linear_309_10296" x1="-23.9542" y1="403.069" x2="100.681" y2="316.712" gradientUnits="userSpaceOnUse">
<stop stop-color="#525154"/>
<stop offset="1" stop-color="#525154" stop-opacity="0"/>
</linearGradient>
<clipPath id="clip0_309_10296">
<rect width="300" height="275" fill="white"/>
</clipPath>
</defs>
</svg>
