<?xml version="1.0" encoding="utf-8"?>
<!-- Generator: Adobe Illustrator 26.3.1, SVG Export Plug-In . SVG Version: 6.00 Build 0)  -->
<svg version="1.1" id="Слой_1" xmlns="http://www.w3.org/2000/svg" xmlns:xlink="http://www.w3.org/1999/xlink" x="0px" y="0px"
	 viewBox="0 0 1080 1080" style="enable-background:new 0 0 1080 1080;" xml:space="preserve">
<style type="text/css">
	.st0{fill:#30B677;}
	.st1{fill:#FFFFFF;}
</style>
<circle class="st0" cx="540" cy="540" r="354.9"/>
<g>
	<g>
		<g>
			<g>
				<path class="st1" d="M806.3,457.9"/>
				<path class="st1" d="M880,705.1"/>
			</g>
		</g>
		<g>
			<path class="st1" d="M802.6,449.1c1.6,3.7-1.5,7.7-5.4,7c-12.6-2.2-37.6-5.3-69.1-3.5c-8.8,0.5-17.4,1.4-33.1,3.8
				c-2,0.3-3.9-0.6-5-2.3c-28.3-44-76.8-73.8-132.4-76.4c-2.6-0.1-5.2-0.2-7.8-0.2c-50.5,0-95.8,22.5-126.3,58
				C411,450.2,400.9,467,394,485.3c-6.9,18.3-10.7,38.2-10.7,58.9c0,11.8,1.2,23.3,3.5,34.4c0.5,2.5-0.9,4.9-3.3,5.8l-34.3,11.7
				L300,613c-2.9,1-6-0.8-6.5-3.8c-3.2-16.6-4.8-33.7-4.8-51.2c0-67.2,24.7-128.7,65.6-175.8c49.2-56.8,121.9-92.7,203-92.7h0.6
				C666.9,289.7,760.9,355.2,802.6,449.1z"/>
			<path class="st1" d="M666.5,462.4c-4.8,1.3-9.6,2.7-14.5,4.3c-1,0.3-2,0-2.7-0.7c-23.1-26.2-56.9-42.7-94.5-42.7
				c-69.7,0-126.2,56.5-126.2,126.2c0,5.8,0.4,11.4,1.1,17c0.2,1.2-0.5,2.3-1.7,2.7l-15.6,5.3c-1.4,0.5-3-0.4-3.3-1.9
				c-1.4-8-2.1-16.1-2.1-24.5c0-80.5,65.2-145.7,145.7-145.7c46.7,0,88.4,22,115,56.2C668.9,459.9,668.2,462,666.5,462.4z"/>
			<path class="st1" d="M704.7,595.2c0.7,2-1.2,3.8-3.2,3.1c-2.7-1-6.4-2.4-10.6-4c-4.8-2-10.3-4.2-15.9-6.8
				c-3.1-1.4-6.3-2.9-9.4-4.4c-4.2-2.1-8.3-4.2-11.9-6.4c-1.5-0.9-1.2-3,0.4-3.6l8.5-3l5.9-2.1l9.2-3.3c1.3-0.5,1.7-2,0.9-3.1
				c-0.8-1-1.8-2.4-3.2-3.8c-1.7-1.8-3.8-3.7-6.3-5.6c-9.1-6.6-24-11.7-45-1.8c-0.9,0.4-1.8,0.9-2.7,1.4c-2.4,1.2-3.3,4.1-2.2,6.5
				l28.9,61.8l4.3,9.2l7.9,16.9l7.4,15.7l14.1,30.1l3.6,7.7c0.9,2-1,4.2-3.1,3.4c-8.1-3-24.3-9.1-44.3-17.5
				c-5.9-2.5-12.2-5.1-18.7-8c-6.9-3-14-6.2-21.2-9.6c-3.4-1.6-6.8-3.2-10.2-4.8c-0.8-0.4-1.6-0.8-2.4-1.2
				c-23.6-11.5-47.9-24.7-68.7-38.8c-1.7-1.2-1.4-3.8,0.6-4.5c2.6-0.9,5.1-1.6,7.3-2.4c8.6-2.8,14.8-4.6,17.9-5.4
				c1.4-0.4,2.6-1.4,3.2-2.7l3.2-7l10.2-22.2c0.9-2-1-4.1-3.1-3.4l-41.3,14.1l-51.6,17.7l-17.3,5.9l-19.7,6.7l-20.9,7.1l-40.9,14
				l-55.7,19.1l-0.2,0.1l-44.3,15c-3.2,1.1-6.6-1.3-6.6-4.7v-18c0-2.1,1.4-4,3.4-4.7l38.6-13.1l0.2-0.1l54.8-18.7l39.2-13.4
				l21.3-7.3l19.7-6.8l14.5-5c2.4-0.8,3.8-3.2,3.3-5.7c-0.2-1-0.4-2-0.5-3.1c-0.8-4.3-1.3-8.7-1.5-13.2c-0.1-2-0.1-4-0.1-6
				c0-18.4,4.5-35.7,12.6-51l0,0l0,0c4.8-9.1,10.8-17.4,17.9-24.8c19.5-20.3,46.7-33.1,77-33.7c0.7,0,1.4,0,2.1,0
				c25.2,0,48.4,8.5,66.8,22.8c0.9,0.7,1.8,1.5,2.7,2.2c1.5,1.2,1.1,3.5-0.6,4.2c-16.5,6.8-33.1,15.5-49.6,26.6
				c-7.2,4.8-14.3,10-21.4,15.7c-2.8,2.3-5.5,4.5-8.3,6.9c-0.6,0.5-1.3,0.7-2,0.6l-10.2-1.7l0,0c-5.4-0.9-8.5,6.1-4.1,9.4l17.2,13.2
				c1.9,1.4,4.5,1.4,6.3-0.1c4.9-4.1,15.6-12.6,31.5-22.2c4.1-2.5,8.6-5,13.4-7.6c13.9-7.4,30.5-14.9,49.6-21.2
				c4.9-1.6,10-3.2,15.3-4.6c5-1.4,10.3-2.7,15.7-3.8c1.4-0.3,2.8,0.7,3,2.2c0.9,10.4,4.4,47.1,12.3,80.1c1.6,6.6,3.3,13.1,5.3,19.2
				C703.2,590.4,703.9,592.8,704.7,595.2z"/>
			<path class="st1" d="M537,662.7c2.5,0.5,2.7,4.1,0.3,4.8c-4.5,1.4-8.9,2.9-13.3,4.4c-9.8,3.3-19.3,6.7-28.4,10.2l0,0
				c-8.2,3.1-16.1,6.3-23.8,9.5c-17.8,7.5-34.1,15.2-49,23.1c-20.4,10.7-38.3,21.6-53.8,32.3c-1.1,0.8-2.7,1.5-3.8,0.8
				c-21.6-13.6-53.2-10.8-65.3-9.3c-2.5,0.3-3.9-2.8-1.9-4.4c11.5-9.3,23.4-18.1,35.5-26.3c0.1-0.1,0.2-0.1,0.3-0.2
				c17-11.5,34.4-22,51.4-31.4c13.7-7.5,27.3-14.4,40.4-20.6c6.7-3.2,13.3-6.2,19.7-9c6.7-3,13.3-5.7,19.5-8.3c5-2.1,9.8-4,14.5-5.8
				c0.9-0.4,1.9-0.1,2.6,0.6C496.9,647.7,515.9,658.3,537,662.7z"/>
		</g>
	</g>
</g>
<g>
</g>
<g>
</g>
<g>
</g>
<g>
</g>
<g>
</g>
<g>
</g>
</svg>
