<svg width="710" height="550" viewBox="0 0 710 550" fill="none" xmlns="http://www.w3.org/2000/svg">
<mask id="path-1-inside-1_309_10039" fill="white">
<path d="M331.688 74.1321C373.001 74.1321 413.254 87.2109 446.677 111.494L377.684 206.455C364.315 196.742 348.214 191.51 331.688 191.51L331.688 74.1321Z"/>
</mask>
<path d="M331.688 74.1321C373.001 74.1321 413.254 87.2109 446.677 111.494L377.684 206.455C364.315 196.742 348.214 191.51 331.688 191.51L331.688 74.1321Z" fill="#679CEE" stroke="#021A13" stroke-width="7.22327" mask="url(#path-1-inside-1_309_10039)"/>
<mask id="path-2-inside-2_309_10039" fill="white">
<path d="M216.7 428.03C183.277 403.747 158.399 369.506 145.633 330.215L257.266 293.943C262.373 309.66 272.324 323.356 285.693 333.07L216.7 428.03Z"/>
</mask>
<path d="M216.7 428.03C183.277 403.747 158.399 369.506 145.633 330.215L257.266 293.943C262.373 309.66 272.324 323.356 285.693 333.07L216.7 428.03Z" fill="#006E28" stroke="#021A13" stroke-width="7.22327" mask="url(#path-2-inside-2_309_10039)"/>
<mask id="path-3-inside-3_309_10039" fill="white">
<path d="M145.633 330.215C132.866 290.924 132.866 248.6 145.633 209.309L257.266 245.581C252.16 261.297 252.16 278.227 257.266 293.943L145.633 330.215Z"/>
</mask>
<path d="M145.633 330.215C132.866 290.924 132.866 248.6 145.633 209.309L257.266 245.581C252.16 261.297 252.16 278.227 257.266 293.943L145.633 330.215Z" fill="#3A39C5" stroke="#021A13" stroke-width="7.22327" mask="url(#path-3-inside-3_309_10039)"/>
<mask id="path-4-inside-4_309_10039" fill="white">
<path d="M145.633 209.309C158.399 170.018 183.277 135.777 216.7 111.494L285.693 206.455C272.324 216.168 262.373 229.865 257.266 245.581L145.633 209.309Z"/>
</mask>
<path d="M145.633 209.309C158.399 170.018 183.277 135.777 216.7 111.494L285.693 206.455C272.324 216.168 262.373 229.865 257.266 245.581L145.633 209.309Z" fill="#6AC18A" stroke="#021A13" stroke-width="7.22327" mask="url(#path-4-inside-4_309_10039)"/>
<mask id="path-5-inside-5_309_10039" fill="white">
<path d="M216.7 111.494C250.123 87.2109 290.375 74.1321 331.688 74.1321L331.688 191.51C315.163 191.51 299.062 196.742 285.693 206.455L216.7 111.494Z"/>
</mask>
<path d="M216.7 111.494C250.123 87.2109 290.375 74.1321 331.688 74.1321L331.688 191.51C315.163 191.51 299.062 196.742 285.693 206.455L216.7 111.494Z" fill="#0829B5" stroke="#021A13" stroke-width="7.22327" mask="url(#path-5-inside-5_309_10039)"/>
<mask id="path-6-inside-6_309_10039" fill="white">
<path d="M446.677 428.03C413.254 452.314 373.001 465.392 331.688 465.392C290.375 465.392 250.123 452.314 216.7 428.03L285.693 333.069C299.062 342.783 315.163 348.014 331.688 348.014C348.213 348.014 364.315 342.783 377.684 333.07L446.677 428.03Z"/>
</mask>
<path d="M446.677 428.03C413.254 452.314 373.001 465.392 331.688 465.392C290.375 465.392 250.123 452.314 216.7 428.03L285.693 333.069C299.062 342.783 315.163 348.014 331.688 348.014C348.213 348.014 364.315 342.783 377.684 333.07L446.677 428.03Z" fill="#01429D" stroke="#021A13" stroke-width="7.22327" mask="url(#path-6-inside-6_309_10039)"/>
<mask id="path-7-inside-7_309_10039" fill="white">
<path d="M446.676 111.494C471.652 129.641 491.979 153.441 505.995 180.948C520.011 208.456 527.318 238.89 527.318 269.762C527.318 300.635 520.011 331.069 505.995 358.577C491.979 386.084 471.652 409.884 446.676 428.031L377.683 333.07C387.673 325.811 395.804 316.291 401.41 305.288C407.017 294.285 409.939 282.111 409.939 269.763C409.939 257.414 407.017 245.24 401.41 234.237C395.804 223.234 387.673 213.714 377.683 206.455L446.676 111.494Z"/>
</mask>
<path d="M446.676 111.494C471.652 129.641 491.979 153.441 505.995 180.948C520.011 208.456 527.318 238.89 527.318 269.762C527.318 300.635 520.011 331.069 505.995 358.577C491.979 386.084 471.652 409.884 446.676 428.031L377.683 333.07C387.673 325.811 395.804 316.291 401.41 305.288C407.017 294.285 409.939 282.111 409.939 269.763C409.939 257.414 407.017 245.24 401.41 234.237C395.804 223.234 387.673 213.714 377.683 206.455L446.676 111.494Z" fill="#30B778" stroke="#021A13" stroke-width="7.22327" mask="url(#path-7-inside-7_309_10039)"/>
<g filter="url(#filter0_d_309_10039)">
<circle cx="331.687" cy="269.762" r="137.844" fill="#021A13"/>
</g>
<path fill-rule="evenodd" clip-rule="evenodd" d="M332.289 464.189C439.335 464.189 526.114 377.41 526.114 270.364C526.114 163.318 439.335 76.5398 332.289 76.5398C225.243 76.5398 138.465 163.318 138.465 270.364C138.465 377.41 225.243 464.189 332.289 464.189ZM332.289 458.169C436.011 458.169 520.094 374.086 520.094 270.364C520.094 166.642 436.011 82.5592 332.289 82.5592C228.567 82.5592 144.484 166.642 144.484 270.364C144.484 374.086 228.567 458.169 332.289 458.169Z" fill="#001C14" fill-opacity="0.4"/>
<path d="M268.694 234.426V236.251H264.008V251.617H261.763V236.251H257.052V234.426H268.694ZM277.351 251.839C276.085 251.839 274.934 251.551 273.898 250.975C272.879 250.4 272.073 249.586 271.481 248.534C270.905 247.465 270.618 246.232 270.618 244.834C270.618 243.453 270.914 242.236 271.506 241.184C272.114 240.115 272.936 239.301 273.972 238.742C275.008 238.167 276.167 237.879 277.45 237.879C278.732 237.879 279.891 238.167 280.927 238.742C281.963 239.301 282.777 240.107 283.369 241.159C283.977 242.212 284.281 243.437 284.281 244.834C284.281 246.232 283.969 247.465 283.344 248.534C282.736 249.586 281.905 250.4 280.853 250.975C279.801 251.551 278.633 251.839 277.351 251.839ZM277.351 249.866C278.157 249.866 278.913 249.677 279.62 249.298C280.327 248.92 280.894 248.353 281.322 247.597C281.766 246.84 281.988 245.919 281.988 244.834C281.988 243.749 281.774 242.828 281.346 242.072C280.919 241.316 280.36 240.757 279.669 240.395C278.979 240.017 278.231 239.828 277.425 239.828C276.603 239.828 275.846 240.017 275.156 240.395C274.482 240.757 273.939 241.316 273.528 242.072C273.117 242.828 272.911 243.749 272.911 244.834C272.911 245.936 273.109 246.865 273.503 247.621C273.914 248.378 274.457 248.945 275.131 249.323C275.805 249.685 276.545 249.866 277.351 249.866ZM289.97 239.951V247.917C289.97 248.575 290.11 249.043 290.389 249.323C290.669 249.586 291.154 249.718 291.844 249.718H293.497V251.617H291.474C290.225 251.617 289.288 251.329 288.663 250.753C288.038 250.178 287.726 249.233 287.726 247.917V239.951H285.974V238.101H287.726V234.698H289.97V238.101H293.497V239.951H289.97ZM295.378 244.81C295.378 243.428 295.657 242.22 296.216 241.184C296.775 240.132 297.54 239.318 298.51 238.742C299.496 238.167 300.59 237.879 301.79 237.879C302.974 237.879 304.002 238.134 304.873 238.644C305.744 239.153 306.394 239.795 306.821 240.567V238.101H309.09V251.617H306.821V249.101C306.377 249.89 305.712 250.548 304.824 251.074C303.952 251.584 302.933 251.839 301.765 251.839C300.565 251.839 299.48 251.543 298.51 250.951C297.54 250.359 296.775 249.529 296.216 248.46C295.657 247.391 295.378 246.174 295.378 244.81ZM306.821 244.834C306.821 243.815 306.616 242.927 306.205 242.171C305.794 241.414 305.235 240.839 304.528 240.444C303.837 240.033 303.073 239.828 302.234 239.828C301.395 239.828 300.631 240.025 299.94 240.42C299.25 240.814 298.699 241.39 298.288 242.146C297.877 242.902 297.671 243.79 297.671 244.81C297.671 245.845 297.877 246.75 298.288 247.523C298.699 248.279 299.25 248.863 299.94 249.274C300.631 249.668 301.395 249.866 302.234 249.866C303.073 249.866 303.837 249.668 304.528 249.274C305.235 248.863 305.794 248.279 306.205 247.523C306.616 246.75 306.821 245.854 306.821 244.834ZM315.128 233.366V251.617H312.883V233.366H315.128ZM330.979 251.789C329.844 251.789 328.825 251.592 327.92 251.197C327.032 250.786 326.334 250.227 325.824 249.52C325.314 248.797 325.051 247.967 325.035 247.029H327.427C327.509 247.835 327.838 248.517 328.414 249.076C329.006 249.619 329.861 249.89 330.979 249.89C332.047 249.89 332.886 249.627 333.494 249.101C334.119 248.558 334.431 247.868 334.431 247.029C334.431 246.372 334.251 245.837 333.889 245.426C333.527 245.015 333.075 244.703 332.532 244.489C331.99 244.275 331.258 244.045 330.337 243.798C329.203 243.502 328.29 243.206 327.6 242.911C326.926 242.615 326.342 242.154 325.849 241.529C325.372 240.888 325.133 240.033 325.133 238.964C325.133 238.027 325.372 237.197 325.849 236.473C326.325 235.75 326.991 235.191 327.846 234.796C328.718 234.402 329.713 234.204 330.831 234.204C332.442 234.204 333.757 234.607 334.777 235.413C335.813 236.218 336.396 237.287 336.528 238.619H334.062C333.979 237.961 333.634 237.386 333.026 236.893C332.417 236.383 331.612 236.128 330.609 236.128C329.671 236.128 328.907 236.375 328.315 236.868C327.723 237.345 327.427 238.019 327.427 238.89C327.427 239.515 327.6 240.025 327.945 240.42C328.307 240.814 328.742 241.118 329.252 241.332C329.778 241.529 330.51 241.76 331.447 242.023C332.582 242.335 333.494 242.647 334.185 242.96C334.875 243.256 335.467 243.724 335.961 244.366C336.454 244.99 336.701 245.845 336.701 246.931C336.701 247.769 336.479 248.558 336.035 249.298C335.591 250.038 334.933 250.638 334.062 251.099C333.19 251.559 332.162 251.789 330.979 251.789ZM351.99 238.101V251.617H349.745V249.619C349.318 250.31 348.718 250.852 347.945 251.247C347.189 251.625 346.35 251.814 345.429 251.814C344.377 251.814 343.432 251.6 342.593 251.173C341.754 250.729 341.088 250.071 340.595 249.2C340.118 248.328 339.88 247.268 339.88 246.018V238.101H342.1V245.722C342.1 247.054 342.437 248.082 343.111 248.805C343.785 249.512 344.706 249.866 345.873 249.866C347.073 249.866 348.019 249.496 348.709 248.756C349.4 248.016 349.745 246.939 349.745 245.525V238.101H351.99ZM358.024 240.592C358.468 239.819 359.125 239.178 359.997 238.668C360.885 238.142 361.912 237.879 363.08 237.879C364.28 237.879 365.365 238.167 366.335 238.742C367.322 239.318 368.094 240.132 368.654 241.184C369.213 242.22 369.492 243.428 369.492 244.81C369.492 246.174 369.213 247.391 368.654 248.46C368.094 249.529 367.322 250.359 366.335 250.951C365.365 251.543 364.28 251.839 363.08 251.839C361.929 251.839 360.909 251.584 360.021 251.074C359.15 250.548 358.484 249.898 358.024 249.126V258.029H355.779V238.101H358.024V240.592ZM367.198 244.81C367.198 243.79 366.993 242.902 366.582 242.146C366.171 241.39 365.612 240.814 364.905 240.42C364.214 240.025 363.45 239.828 362.611 239.828C361.789 239.828 361.024 240.033 360.317 240.444C359.627 240.839 359.068 241.422 358.64 242.195C358.229 242.952 358.024 243.831 358.024 244.834C358.024 245.854 358.229 246.75 358.64 247.523C359.068 248.279 359.627 248.863 360.317 249.274C361.024 249.668 361.789 249.866 362.611 249.866C363.45 249.866 364.214 249.668 364.905 249.274C365.612 248.863 366.171 248.279 366.582 247.523C366.993 246.75 367.198 245.845 367.198 244.81ZM374.691 240.592C375.135 239.819 375.792 239.178 376.664 238.668C377.552 238.142 378.579 237.879 379.747 237.879C380.947 237.879 382.032 238.167 383.002 238.742C383.989 239.318 384.762 240.132 385.321 241.184C385.88 242.22 386.159 243.428 386.159 244.81C386.159 246.174 385.88 247.391 385.321 248.46C384.762 249.529 383.989 250.359 383.002 250.951C382.032 251.543 380.947 251.839 379.747 251.839C378.596 251.839 377.576 251.584 376.688 251.074C375.817 250.548 375.151 249.898 374.691 249.126V258.029H372.446V238.101H374.691V240.592ZM383.865 244.81C383.865 243.79 383.66 242.902 383.249 242.146C382.838 241.39 382.279 240.814 381.572 240.42C380.881 240.025 380.117 239.828 379.278 239.828C378.456 239.828 377.691 240.033 376.984 240.444C376.294 240.839 375.735 241.422 375.307 242.195C374.896 242.952 374.691 243.831 374.691 244.834C374.691 245.854 374.896 246.75 375.307 247.523C375.735 248.279 376.294 248.863 376.984 249.274C377.691 249.668 378.456 249.866 379.278 249.866C380.117 249.866 380.881 249.668 381.572 249.274C382.279 248.863 382.838 248.279 383.249 247.523C383.66 246.75 383.865 245.845 383.865 244.81ZM391.358 233.366V251.617H389.113V233.366H391.358ZM406.824 238.101L398.685 257.98H396.367L399.03 251.469L393.58 238.101H396.071L400.313 249.052L404.506 238.101H406.824ZM214.307 294.551C216.359 292.841 217.994 291.419 219.213 290.287C220.431 289.132 221.446 287.935 222.259 286.696C223.071 285.456 223.477 284.237 223.477 283.04C223.477 281.95 223.221 281.095 222.708 280.475C222.195 279.856 221.404 279.546 220.335 279.546C219.266 279.546 218.443 279.909 217.866 280.636C217.289 281.341 216.99 282.314 216.968 283.553H212.608C212.693 280.988 213.452 279.043 214.884 277.718C216.338 276.393 218.176 275.73 220.399 275.73C222.836 275.73 224.706 276.382 226.01 277.686C227.314 278.968 227.966 280.668 227.966 282.784C227.966 284.451 227.517 286.044 226.619 287.561C225.721 289.079 224.695 290.404 223.541 291.537C222.387 292.648 220.88 293.995 219.02 295.577H228.479V299.296H212.64V295.962L214.307 294.551ZM230.762 280.379V276.243H238.489V299.617H233.872V280.379H230.762ZM248.342 294.904L244.591 303.913H241.705L243.789 294.904H248.342ZM251.065 287.625C251.065 283.927 251.727 281.031 253.052 278.936C254.399 276.842 256.622 275.794 259.721 275.794C262.821 275.794 265.033 276.842 266.358 278.936C267.705 281.031 268.378 283.927 268.378 287.625C268.378 291.345 267.705 294.262 266.358 296.378C265.033 298.495 262.821 299.553 259.721 299.553C256.622 299.553 254.399 298.495 253.052 296.378C251.727 294.262 251.065 291.345 251.065 287.625ZM263.954 287.625C263.954 286.044 263.847 284.718 263.633 283.65C263.441 282.559 263.035 281.672 262.415 280.988C261.816 280.304 260.918 279.962 259.721 279.962C258.524 279.962 257.616 280.304 256.996 280.988C256.398 281.672 255.991 282.559 255.778 283.65C255.585 284.718 255.489 286.044 255.489 287.625C255.489 289.25 255.585 290.618 255.778 291.729C255.97 292.819 256.376 293.707 256.996 294.391C257.616 295.053 258.524 295.384 259.721 295.384C260.918 295.384 261.827 295.053 262.447 294.391C263.067 293.707 263.473 292.819 263.665 291.729C263.857 290.618 263.954 289.25 263.954 287.625ZM271.792 287.625C271.792 283.927 272.455 281.031 273.78 278.936C275.127 276.842 277.35 275.794 280.449 275.794C283.549 275.794 285.761 276.842 287.086 278.936C288.433 281.031 289.106 283.927 289.106 287.625C289.106 291.345 288.433 294.262 287.086 296.378C285.761 298.495 283.549 299.553 280.449 299.553C277.35 299.553 275.127 298.495 273.78 296.378C272.455 294.262 271.792 291.345 271.792 287.625ZM284.682 287.625C284.682 286.044 284.575 284.718 284.361 283.65C284.169 282.559 283.762 281.672 283.143 280.988C282.544 280.304 281.646 279.962 280.449 279.962C279.252 279.962 278.344 280.304 277.724 280.988C277.125 281.672 276.719 282.559 276.506 283.65C276.313 284.718 276.217 286.044 276.217 287.625C276.217 289.25 276.313 290.618 276.506 291.729C276.698 292.819 277.104 293.707 277.724 294.391C278.344 295.053 279.252 295.384 280.449 295.384C281.646 295.384 282.555 295.053 283.175 294.391C283.794 293.707 284.201 292.819 284.393 291.729C284.585 290.618 284.682 289.25 284.682 287.625ZM292.52 287.625C292.52 283.927 293.183 281.031 294.508 278.936C295.855 276.842 298.078 275.794 301.177 275.794C304.277 275.794 306.489 276.842 307.814 278.936C309.161 281.031 309.834 283.927 309.834 287.625C309.834 291.345 309.161 294.262 307.814 296.378C306.489 298.495 304.277 299.553 301.177 299.553C298.078 299.553 295.855 298.495 294.508 296.378C293.183 294.262 292.52 291.345 292.52 287.625ZM305.409 287.625C305.409 286.044 305.303 284.718 305.089 283.65C304.896 282.559 304.49 281.672 303.87 280.988C303.272 280.304 302.374 279.962 301.177 279.962C299.98 279.962 299.072 280.304 298.452 280.988C297.853 281.672 297.447 282.559 297.233 283.65C297.041 284.718 296.945 286.044 296.945 287.625C296.945 289.25 297.041 290.618 297.233 291.729C297.426 292.819 297.832 293.707 298.452 294.391C299.072 295.053 299.98 295.384 301.177 295.384C302.374 295.384 303.283 295.053 303.902 294.391C304.522 293.707 304.928 292.819 305.121 291.729C305.313 290.618 305.409 289.25 305.409 287.625ZM318.667 294.904L314.915 303.913H312.03L314.114 294.904H318.667ZM321.389 287.625C321.389 283.927 322.052 281.031 323.377 278.936C324.724 276.842 326.947 275.794 330.046 275.794C333.145 275.794 335.358 276.842 336.683 278.936C338.029 281.031 338.703 283.927 338.703 287.625C338.703 291.345 338.029 294.262 336.683 296.378C335.358 298.495 333.145 299.553 330.046 299.553C326.947 299.553 324.724 298.495 323.377 296.378C322.052 294.262 321.389 291.345 321.389 287.625ZM334.278 287.625C334.278 286.044 334.171 284.718 333.958 283.65C333.765 282.559 333.359 281.672 332.739 280.988C332.141 280.304 331.243 279.962 330.046 279.962C328.849 279.962 327.94 280.304 327.321 280.988C326.722 281.672 326.316 282.559 326.102 283.65C325.91 284.718 325.814 286.044 325.814 287.625C325.814 289.25 325.91 290.618 326.102 291.729C326.295 292.819 326.701 293.707 327.321 294.391C327.94 295.053 328.849 295.384 330.046 295.384C331.243 295.384 332.151 295.053 332.771 294.391C333.391 293.707 333.797 292.819 333.99 291.729C334.182 290.618 334.278 289.25 334.278 287.625ZM342.117 287.625C342.117 283.927 342.78 281.031 344.105 278.936C345.451 276.842 347.674 275.794 350.774 275.794C353.873 275.794 356.085 276.842 357.411 278.936C358.757 281.031 359.431 283.927 359.431 287.625C359.431 291.345 358.757 294.262 357.411 296.378C356.085 298.495 353.873 299.553 350.774 299.553C347.674 299.553 345.451 298.495 344.105 296.378C342.78 294.262 342.117 291.345 342.117 287.625ZM355.006 287.625C355.006 286.044 354.899 284.718 354.685 283.65C354.493 282.559 354.087 281.672 353.467 280.988C352.869 280.304 351.971 279.962 350.774 279.962C349.577 279.962 348.668 280.304 348.048 280.988C347.45 281.672 347.044 282.559 346.83 283.65C346.638 284.718 346.542 286.044 346.542 287.625C346.542 289.25 346.638 290.618 346.83 291.729C347.022 292.819 347.429 293.707 348.048 294.391C348.668 295.053 349.577 295.384 350.774 295.384C351.971 295.384 352.879 295.053 353.499 294.391C354.119 293.707 354.525 292.819 354.717 291.729C354.91 290.618 355.006 289.25 355.006 287.625ZM362.845 287.625C362.845 283.927 363.507 281.031 364.833 278.936C366.179 276.842 368.402 275.794 371.502 275.794C374.601 275.794 376.813 276.842 378.139 278.936C379.485 281.031 380.159 283.927 380.159 287.625C380.159 291.345 379.485 294.262 378.139 296.378C376.813 298.495 374.601 299.553 371.502 299.553C368.402 299.553 366.179 298.495 364.833 296.378C363.507 294.262 362.845 291.345 362.845 287.625ZM375.734 287.625C375.734 286.044 375.627 284.718 375.413 283.65C375.221 282.559 374.815 281.672 374.195 280.988C373.596 280.304 372.699 279.962 371.502 279.962C370.305 279.962 369.396 280.304 368.776 280.988C368.178 281.672 367.772 282.559 367.558 283.65C367.366 284.718 367.269 286.044 367.269 287.625C367.269 289.25 367.366 290.618 367.558 291.729C367.75 292.819 368.156 293.707 368.776 294.391C369.396 295.053 370.305 295.384 371.502 295.384C372.699 295.384 373.607 295.053 374.227 294.391C374.847 293.707 375.253 292.819 375.445 291.729C375.638 290.618 375.734 289.25 375.734 287.625ZM388.991 294.904L385.24 303.913H382.354L384.438 294.904H388.991ZM391.714 287.625C391.714 283.927 392.376 281.031 393.701 278.936C395.048 276.842 397.271 275.794 400.37 275.794C403.47 275.794 405.682 276.842 407.007 278.936C408.354 281.031 409.027 283.927 409.027 287.625C409.027 291.345 408.354 294.262 407.007 296.378C405.682 298.495 403.47 299.553 400.37 299.553C397.271 299.553 395.048 298.495 393.701 296.378C392.376 294.262 391.714 291.345 391.714 287.625ZM404.603 287.625C404.603 286.044 404.496 284.718 404.282 283.65C404.09 282.559 403.684 281.672 403.064 280.988C402.465 280.304 401.567 279.962 400.37 279.962C399.173 279.962 398.265 280.304 397.645 280.988C397.047 281.672 396.64 282.559 396.427 283.65C396.234 284.718 396.138 286.044 396.138 287.625C396.138 289.25 396.234 290.618 396.427 291.729C396.619 292.819 397.025 293.707 397.645 294.391C398.265 295.053 399.173 295.384 400.37 295.384C401.567 295.384 402.476 295.053 403.096 294.391C403.716 293.707 404.122 292.819 404.314 291.729C404.506 290.618 404.603 289.25 404.603 287.625ZM412.441 287.625C412.441 283.927 413.104 281.031 414.429 278.936C415.776 276.842 417.999 275.794 421.098 275.794C424.198 275.794 426.41 276.842 427.735 278.936C429.082 281.031 429.755 283.927 429.755 287.625C429.755 291.345 429.082 294.262 427.735 296.378C426.41 298.495 424.198 299.553 421.098 299.553C417.999 299.553 415.776 298.495 414.429 296.378C413.104 294.262 412.441 291.345 412.441 287.625ZM425.331 287.625C425.331 286.044 425.224 284.718 425.01 283.65C424.818 282.559 424.411 281.672 423.792 280.988C423.193 280.304 422.295 279.962 421.098 279.962C419.901 279.962 418.993 280.304 418.373 280.988C417.774 281.672 417.368 282.559 417.155 283.65C416.962 284.718 416.866 286.044 416.866 287.625C416.866 289.25 416.962 290.618 417.155 291.729C417.347 292.819 417.753 293.707 418.373 294.391C418.993 295.053 419.901 295.384 421.098 295.384C422.295 295.384 423.204 295.053 423.824 294.391C424.443 293.707 424.85 292.819 425.042 291.729C425.234 290.618 425.331 289.25 425.331 287.625ZM433.169 287.625C433.169 283.927 433.832 281.031 435.157 278.936C436.504 276.842 438.727 275.794 441.826 275.794C444.926 275.794 447.138 276.842 448.463 278.936C449.81 281.031 450.483 283.927 450.483 287.625C450.483 291.345 449.81 294.262 448.463 296.378C447.138 298.495 444.926 299.553 441.826 299.553C438.727 299.553 436.504 298.495 435.157 296.378C433.832 294.262 433.169 291.345 433.169 287.625ZM446.058 287.625C446.058 286.044 445.952 284.718 445.738 283.65C445.545 282.559 445.139 281.672 444.519 280.988C443.921 280.304 443.023 279.962 441.826 279.962C440.629 279.962 439.721 280.304 439.101 280.988C438.502 281.672 438.096 282.559 437.882 283.65C437.69 284.718 437.594 286.044 437.594 287.625C437.594 289.25 437.69 290.618 437.882 291.729C438.075 292.819 438.481 293.707 439.101 294.391C439.721 295.053 440.629 295.384 441.826 295.384C443.023 295.384 443.932 295.053 444.551 294.391C445.171 293.707 445.577 292.819 445.77 291.729C445.962 290.618 446.058 289.25 446.058 287.625Z" fill="white"/>
<path d="M36.357 379.379V374.406H45.6471V402.508H40.0961V379.379H36.357ZM50.9785 388.091C50.9785 383.645 51.7751 380.163 53.3685 377.644C54.9875 375.126 57.6602 373.867 61.3865 373.867C65.1128 373.867 67.7726 375.126 69.366 377.644C70.985 380.163 71.7945 383.645 71.7945 388.091C71.7945 392.563 70.985 396.071 69.366 398.615C67.7726 401.159 65.1128 402.431 61.3865 402.431C57.6602 402.431 54.9875 401.159 53.3685 398.615C51.7751 396.071 50.9785 392.563 50.9785 388.091ZM66.4748 388.091C66.4748 386.189 66.3463 384.596 66.0894 383.311C65.8581 382 65.3698 380.934 64.6245 380.112C63.905 379.289 62.8256 378.878 61.3865 378.878C59.9474 378.878 58.8552 379.289 58.1099 380.112C57.3903 380.934 56.902 382 56.6451 383.311C56.4138 384.596 56.2981 386.189 56.2981 388.091C56.2981 390.044 56.4138 391.689 56.6451 393.025C56.8763 394.336 57.3646 395.402 58.1099 396.225C58.8552 397.021 59.9474 397.42 61.3865 397.42C62.8256 397.42 63.9178 397.021 64.6631 396.225C65.4083 395.402 65.8966 394.336 66.1279 393.025C66.3592 391.689 66.4748 390.044 66.4748 388.091ZM75.2825 381.307C75.2825 379.353 75.8479 377.824 76.9786 376.719C78.1351 375.614 79.6127 375.062 81.4117 375.062C83.2106 375.062 84.6754 375.614 85.8062 376.719C86.9626 377.824 87.5408 379.353 87.5408 381.307C87.5408 383.285 86.9626 384.827 85.8062 385.932C84.6754 387.037 83.2106 387.59 81.4117 387.59C79.6127 387.59 78.1351 387.037 76.9786 385.932C75.8479 384.827 75.2825 383.285 75.2825 381.307ZM100.03 375.524L84.881 402.508H79.6384L94.7493 375.524H100.03ZM81.3731 378.3C79.9597 378.3 79.253 379.302 79.253 381.307C79.253 383.337 79.9597 384.352 81.3731 384.352C82.067 384.352 82.6067 384.108 82.9921 383.619C83.3776 383.105 83.5704 382.335 83.5704 381.307C83.5704 379.302 82.8379 378.3 81.3731 378.3ZM92.2051 396.687C92.2051 394.708 92.7705 393.179 93.9013 392.1C95.0577 390.995 96.5354 390.442 98.3343 390.442C100.133 390.442 101.585 390.995 102.69 392.1C103.821 393.179 104.386 394.708 104.386 396.687C104.386 398.666 103.821 400.208 102.69 401.313C101.585 402.418 100.133 402.971 98.3343 402.971C96.5097 402.971 95.032 402.418 93.9013 401.313C92.7705 400.208 92.2051 398.666 92.2051 396.687ZM98.2958 393.681C96.8309 393.681 96.0985 394.683 96.0985 396.687C96.0985 398.717 96.8309 399.733 98.2958 399.733C99.7349 399.733 100.454 398.717 100.454 396.687C100.454 394.683 99.7349 393.681 98.2958 393.681Z" fill="#5CDD98"/>
<path d="M55.7484 426.167V444.508H53.3365V430.832L47.2406 444.508H45.5443L39.4219 430.805V444.508H37.01V426.167H39.6074L46.3925 441.328L53.1775 426.167H55.7484ZM58.9375 437.193C58.9375 435.709 59.2379 434.41 59.8387 433.297C60.4394 432.166 61.2611 431.291 62.3035 430.673C63.3637 430.055 64.5387 429.745 65.8286 429.745C67.1008 429.745 68.2051 430.019 69.1416 430.567C70.078 431.115 70.776 431.804 71.2354 432.634V429.984H73.6737V444.508H71.2354V441.805C70.7583 442.653 70.0427 443.36 69.0886 443.925C68.1521 444.473 67.0566 444.747 65.8021 444.747C64.5122 444.747 63.346 444.429 62.3035 443.792C61.2611 443.156 60.4394 442.264 59.8387 441.116C59.2379 439.967 58.9375 438.66 58.9375 437.193ZM71.2354 437.219C71.2354 436.124 71.0145 435.17 70.5728 434.357C70.1311 433.544 69.5303 432.926 68.7705 432.502C68.0284 432.06 67.2068 431.839 66.3056 431.839C65.4045 431.839 64.5829 432.051 63.8408 432.475C63.0987 432.899 62.5067 433.518 62.065 434.331C61.6233 435.143 61.4024 436.097 61.4024 437.193C61.4024 438.306 61.6233 439.278 62.065 440.108C62.5067 440.921 63.0987 441.548 63.8408 441.99C64.5829 442.414 65.4045 442.626 66.3056 442.626C67.2068 442.626 68.0284 442.414 68.7705 441.99C69.5303 441.548 70.1311 440.921 70.5728 440.108C71.0145 439.278 71.2354 438.315 71.2354 437.219ZM80.1614 432.343C80.5855 431.512 81.1862 430.867 81.9637 430.408C82.7588 429.949 83.7218 429.719 84.8526 429.719V432.21H84.2165C81.5131 432.21 80.1614 433.677 80.1614 436.61V444.508H77.7496V429.984H80.1614V432.343ZM95.747 444.508L90.0487 438.094V444.508H87.6368V424.895H90.0487V436.424L95.641 429.984H99.007L92.169 437.219L99.0335 444.508H95.747ZM114.529 436.689C114.529 437.149 114.503 437.635 114.45 438.147H102.841C102.929 439.578 103.415 440.7 104.298 441.513C105.2 442.308 106.286 442.706 107.558 442.706C108.601 442.706 109.467 442.467 110.156 441.99C110.863 441.495 111.357 440.842 111.64 440.029H114.237C113.849 441.425 113.071 442.564 111.905 443.448C110.739 444.314 109.29 444.747 107.558 444.747C106.18 444.747 104.943 444.437 103.848 443.819C102.77 443.201 101.922 442.326 101.304 441.195C100.685 440.047 100.376 438.721 100.376 437.219C100.376 435.718 100.676 434.401 101.277 433.27C101.878 432.14 102.717 431.274 103.795 430.673C104.89 430.055 106.145 429.745 107.558 429.745C108.937 429.745 110.156 430.046 111.216 430.646C112.276 431.247 113.089 432.078 113.654 433.138C114.237 434.18 114.529 435.364 114.529 436.689ZM112.038 436.186C112.038 435.267 111.834 434.481 111.428 433.827C111.022 433.156 110.465 432.652 109.758 432.316C109.069 431.963 108.301 431.786 107.452 431.786C106.233 431.786 105.191 432.175 104.325 432.952C103.477 433.73 102.991 434.808 102.867 436.186H112.038ZM120.655 431.972V440.532C120.655 441.239 120.805 441.743 121.105 442.043C121.405 442.326 121.927 442.467 122.669 442.467H124.445V444.508H122.271C120.928 444.508 119.921 444.199 119.25 443.58C118.578 442.962 118.243 441.946 118.243 440.532V431.972H116.361V429.984H118.243V426.326H120.655V429.984H124.445V431.972H120.655ZM128.613 427.625C128.153 427.625 127.764 427.466 127.446 427.148C127.128 426.83 126.969 426.441 126.969 425.982C126.969 425.522 127.128 425.134 127.446 424.816C127.764 424.498 128.153 424.339 128.613 424.339C129.054 424.339 129.425 424.498 129.726 424.816C130.044 425.134 130.203 425.522 130.203 425.982C130.203 426.441 130.044 426.83 129.726 427.148C129.425 427.466 129.054 427.625 128.613 427.625ZM129.779 429.984V444.508H127.367V429.984H129.779ZM140.966 429.719C142.733 429.719 144.164 430.258 145.26 431.336C146.355 432.396 146.903 433.933 146.903 435.947V444.508H144.517V436.292C144.517 434.843 144.155 433.739 143.431 432.979C142.706 432.201 141.717 431.813 140.462 431.813C139.19 431.813 138.174 432.21 137.414 433.005C136.672 433.8 136.301 434.958 136.301 436.477V444.508H133.889V429.984H136.301V432.051C136.778 431.309 137.423 430.735 138.236 430.328C139.066 429.922 139.976 429.719 140.966 429.719ZM156.832 429.745C158.087 429.745 159.182 430.019 160.119 430.567C161.073 431.115 161.78 431.804 162.239 432.634V429.984H164.678V444.826C164.678 446.151 164.395 447.326 163.83 448.351C163.264 449.394 162.451 450.206 161.391 450.79C160.349 451.373 159.129 451.664 157.734 451.664C155.825 451.664 154.235 451.214 152.963 450.312C151.691 449.411 150.94 448.183 150.71 446.628H153.095C153.36 447.512 153.908 448.219 154.739 448.749C155.569 449.296 156.567 449.57 157.734 449.57C159.059 449.57 160.137 449.155 160.967 448.325C161.815 447.494 162.239 446.328 162.239 444.826V441.778C161.762 442.626 161.055 443.333 160.119 443.898C159.182 444.464 158.087 444.747 156.832 444.747C155.543 444.747 154.368 444.429 153.307 443.792C152.265 443.156 151.443 442.264 150.843 441.116C150.242 439.967 149.941 438.66 149.941 437.193C149.941 435.709 150.242 434.41 150.843 433.297C151.443 432.166 152.265 431.291 153.307 430.673C154.368 430.055 155.543 429.745 156.832 429.745ZM162.239 437.219C162.239 436.124 162.018 435.17 161.577 434.357C161.135 433.544 160.534 432.926 159.774 432.502C159.032 432.06 158.211 431.839 157.31 431.839C156.408 431.839 155.587 432.051 154.845 432.475C154.103 432.899 153.511 433.518 153.069 434.331C152.627 435.143 152.406 436.097 152.406 437.193C152.406 438.306 152.627 439.278 153.069 440.108C153.511 440.921 154.103 441.548 154.845 441.99C155.587 442.414 156.408 442.626 157.31 442.626C158.211 442.626 159.032 442.414 159.774 441.99C160.534 441.548 161.135 440.921 161.577 440.108C162.018 439.278 162.239 438.315 162.239 437.219Z" fill="#DADBDF"/>
<path fill-rule="evenodd" clip-rule="evenodd" d="M177.176 413.738H175.851H175.851H35.3797V412.412H175.851V354.037C174.338 353.731 173.2 352.394 173.2 350.791C173.2 348.961 174.683 347.478 176.513 347.478C178.342 347.478 179.826 348.961 179.826 350.791C179.826 352.393 178.688 353.73 177.176 354.037V413.738Z" fill="white" fill-opacity="0.3"/>
<path d="M368.637 489.181C371.104 487.125 373.07 485.416 374.535 484.054C376 482.666 377.22 481.227 378.197 479.737C379.174 478.246 379.662 476.781 379.662 475.342C379.662 474.032 379.353 473.004 378.737 472.258C378.12 471.513 377.169 471.141 375.884 471.141C374.599 471.141 373.61 471.577 372.916 472.451C372.222 473.299 371.862 474.469 371.836 475.959H366.594C366.697 472.875 367.609 470.537 369.331 468.943C371.078 467.35 373.288 466.553 375.961 466.553C378.891 466.553 381.139 467.337 382.707 468.905C384.275 470.447 385.059 472.49 385.059 475.034C385.059 477.038 384.519 478.953 383.44 480.778C382.36 482.602 381.127 484.196 379.739 485.558C378.351 486.894 376.539 488.513 374.304 490.415H385.675V494.886H366.632V490.877L368.637 489.181ZM389.076 480.855C389.076 476.409 389.873 472.927 391.466 470.408C393.085 467.89 395.758 466.63 399.484 466.63C403.21 466.63 405.87 467.89 407.463 470.408C409.082 472.927 409.892 476.409 409.892 480.855C409.892 485.326 409.082 488.834 407.463 491.378C405.87 493.923 403.21 495.195 399.484 495.195C395.758 495.195 393.085 493.923 391.466 491.378C389.873 488.834 389.076 485.326 389.076 480.855ZM404.572 480.855C404.572 478.953 404.444 477.36 404.187 476.075C403.956 474.764 403.467 473.698 402.722 472.875C402.002 472.053 400.923 471.642 399.484 471.642C398.045 471.642 396.953 472.053 396.207 472.875C395.488 473.698 395 474.764 394.743 476.075C394.511 477.36 394.396 478.953 394.396 480.855C394.396 482.808 394.511 484.453 394.743 485.789C394.974 487.1 395.462 488.166 396.207 488.988C396.953 489.785 398.045 490.183 399.484 490.183C400.923 490.183 402.015 489.785 402.761 488.988C403.506 488.166 403.994 487.1 404.225 485.789C404.457 484.453 404.572 482.808 404.572 480.855ZM413.38 474.07C413.38 472.117 413.945 470.588 415.076 469.483C416.233 468.378 417.71 467.825 419.509 467.825C421.308 467.825 422.773 468.378 423.904 469.483C425.06 470.588 425.638 472.117 425.638 474.07C425.638 476.049 425.06 477.591 423.904 478.696C422.773 479.801 421.308 480.354 419.509 480.354C417.71 480.354 416.233 479.801 415.076 478.696C413.945 477.591 413.38 476.049 413.38 474.07ZM438.128 468.288L422.978 495.272H417.736L432.847 468.288H438.128ZM419.471 471.063C418.057 471.063 417.35 472.066 417.35 474.07C417.35 476.1 418.057 477.116 419.471 477.116C420.164 477.116 420.704 476.871 421.09 476.383C421.475 475.869 421.668 475.098 421.668 474.07C421.668 472.066 420.935 471.063 419.471 471.063ZM430.303 489.451C430.303 487.472 430.868 485.943 431.999 484.864C433.155 483.759 434.633 483.206 436.432 483.206C438.231 483.206 439.683 483.759 440.788 484.864C441.918 485.943 442.484 487.472 442.484 489.451C442.484 491.43 441.918 492.972 440.788 494.077C439.683 495.182 438.231 495.734 436.432 495.734C434.607 495.734 433.13 495.182 431.999 494.077C430.868 492.972 430.303 491.43 430.303 489.451ZM436.393 486.444C434.928 486.444 434.196 487.446 434.196 489.451C434.196 491.481 434.928 492.496 436.393 492.496C437.832 492.496 438.552 491.481 438.552 489.451C438.552 487.446 437.832 486.444 436.393 486.444Z" fill="#5CDD98"/>
<path d="M263.256 537.457C262.037 537.457 260.941 537.245 259.97 536.821C259.015 536.379 258.264 535.779 257.717 535.019C257.169 534.241 256.886 533.349 256.869 532.342H259.44C259.528 533.208 259.881 533.941 260.5 534.542C261.136 535.125 262.055 535.416 263.256 535.416C264.405 535.416 265.306 535.134 265.959 534.568C266.631 533.985 266.967 533.243 266.967 532.342C266.967 531.635 266.772 531.061 266.384 530.619C265.995 530.177 265.509 529.842 264.926 529.612C264.343 529.382 263.556 529.135 262.567 528.87C261.348 528.552 260.367 528.234 259.625 527.916C258.901 527.598 258.273 527.103 257.743 526.432C257.231 525.742 256.975 524.824 256.975 523.675C256.975 522.668 257.231 521.776 257.743 520.998C258.256 520.221 258.971 519.62 259.89 519.196C260.827 518.772 261.896 518.56 263.097 518.56C264.829 518.56 266.242 518.993 267.338 519.859C268.451 520.724 269.078 521.873 269.219 523.304H266.569C266.481 522.597 266.11 521.979 265.456 521.449C264.802 520.901 263.936 520.627 262.859 520.627C261.851 520.627 261.03 520.892 260.394 521.422C259.758 521.935 259.44 522.659 259.44 523.596C259.44 524.267 259.625 524.815 259.996 525.239C260.385 525.663 260.853 525.99 261.401 526.22C261.966 526.432 262.753 526.679 263.76 526.962C264.979 527.297 265.959 527.633 266.702 527.969C267.444 528.287 268.08 528.79 268.61 529.48C269.14 530.151 269.405 531.07 269.405 532.236C269.405 533.137 269.166 533.985 268.689 534.78C268.212 535.575 267.506 536.22 266.569 536.715C265.633 537.21 264.528 537.457 263.256 537.457ZM292.302 522.748L287.77 537.272H285.279L281.78 525.742L278.282 537.272H275.79L271.232 522.748H273.696L277.036 534.939L280.64 522.748H283.105L286.63 534.966L289.917 522.748H292.302ZM293.795 529.957C293.795 528.472 294.095 527.174 294.696 526.061C295.297 524.93 296.118 524.055 297.161 523.437C298.221 522.818 299.396 522.509 300.686 522.509C301.958 522.509 303.062 522.783 303.999 523.331C304.935 523.878 305.633 524.567 306.093 525.398V522.748H308.531V537.272H306.093V534.568C305.615 535.416 304.9 536.123 303.946 536.689C303.009 537.236 301.914 537.51 300.659 537.51C299.369 537.51 298.203 537.192 297.161 536.556C296.118 535.92 295.297 535.028 294.696 533.879C294.095 532.731 293.795 531.423 293.795 529.957ZM306.093 529.983C306.093 528.888 305.872 527.933 305.43 527.121C304.988 526.308 304.387 525.689 303.628 525.265C302.886 524.824 302.064 524.603 301.163 524.603C300.262 524.603 299.44 524.815 298.698 525.239C297.956 525.663 297.364 526.281 296.922 527.094C296.48 527.907 296.26 528.861 296.26 529.957C296.26 531.07 296.48 532.042 296.922 532.872C297.364 533.685 297.956 534.312 298.698 534.754C299.44 535.178 300.262 535.39 301.163 535.39C302.064 535.39 302.886 535.178 303.628 534.754C304.387 534.312 304.988 533.685 305.43 532.872C305.872 532.042 306.093 531.079 306.093 529.983ZM315.019 525.424C315.496 524.594 316.202 523.905 317.139 523.357C318.093 522.792 319.197 522.509 320.452 522.509C321.742 522.509 322.908 522.818 323.95 523.437C325.011 524.055 325.841 524.93 326.442 526.061C327.043 527.174 327.343 528.472 327.343 529.957C327.343 531.423 327.043 532.731 326.442 533.879C325.841 535.028 325.011 535.92 323.95 536.556C322.908 537.192 321.742 537.51 320.452 537.51C319.215 537.51 318.12 537.236 317.165 536.689C316.229 536.123 315.513 535.425 315.019 534.595V544.163H312.607V522.748H315.019V525.424ZM324.878 529.957C324.878 528.861 324.657 527.907 324.215 527.094C323.774 526.281 323.173 525.663 322.413 525.239C321.671 524.815 320.849 524.603 319.948 524.603C319.065 524.603 318.243 524.824 317.483 525.265C316.741 525.689 316.141 526.317 315.681 527.147C315.239 527.96 315.019 528.905 315.019 529.983C315.019 531.079 315.239 532.042 315.681 532.872C316.141 533.685 316.741 534.312 317.483 534.754C318.243 535.178 319.065 535.39 319.948 535.39C320.849 535.39 321.671 535.178 322.413 534.754C323.173 534.312 323.774 533.685 324.215 532.872C324.657 532.042 324.878 531.07 324.878 529.957ZM339.995 535.31H346.462V537.272H337.584V518.798H339.995V535.31ZM350.269 520.389C349.81 520.389 349.421 520.23 349.103 519.912C348.785 519.594 348.626 519.205 348.626 518.745C348.626 518.286 348.785 517.897 349.103 517.579C349.421 517.261 349.81 517.102 350.269 517.102C350.711 517.102 351.082 517.261 351.383 517.579C351.701 517.897 351.86 518.286 351.86 518.745C351.86 519.205 351.701 519.594 351.383 519.912C351.082 520.23 350.711 520.389 350.269 520.389ZM351.436 522.748V537.272H349.024V522.748H351.436ZM354.645 529.957C354.645 528.472 354.946 527.174 355.546 526.061C356.147 524.93 356.969 524.055 358.011 523.437C359.071 522.818 360.255 522.509 361.563 522.509C362.817 522.509 363.913 522.792 364.849 523.357C365.803 523.905 366.501 524.585 366.943 525.398V522.748H369.381V544.163H366.943V534.595C366.484 535.408 365.777 536.097 364.823 536.662C363.869 537.228 362.755 537.51 361.483 537.51C360.211 537.51 359.054 537.192 358.011 536.556C356.969 535.92 356.147 535.028 355.546 533.879C354.946 532.731 354.645 531.423 354.645 529.957ZM366.943 529.983C366.943 528.888 366.722 527.933 366.28 527.121C365.839 526.308 365.238 525.689 364.478 525.265C363.736 524.824 362.914 524.603 362.013 524.603C361.112 524.603 360.29 524.815 359.548 525.239C358.806 525.663 358.214 526.281 357.773 527.094C357.331 527.907 357.11 528.861 357.11 529.957C357.11 531.07 357.331 532.042 357.773 532.872C358.214 533.685 358.806 534.312 359.548 534.754C360.29 535.178 361.112 535.39 362.013 535.39C362.914 535.39 363.736 535.178 364.478 534.754C365.238 534.312 365.839 533.685 366.28 532.872C366.722 532.042 366.943 531.079 366.943 529.983ZM386.338 522.748V537.272H383.926V535.125C383.467 535.867 382.822 536.45 381.991 536.874C381.179 537.281 380.278 537.484 379.288 537.484C378.157 537.484 377.141 537.254 376.24 536.795C375.339 536.318 374.623 535.611 374.093 534.674C373.581 533.738 373.325 532.598 373.325 531.255V522.748H375.71V530.937C375.71 532.368 376.072 533.473 376.797 534.25C377.521 535.01 378.511 535.39 379.765 535.39C381.055 535.39 382.071 534.992 382.813 534.197C383.555 533.402 383.926 532.245 383.926 530.725V522.748H386.338ZM391.656 520.389C391.197 520.389 390.808 520.23 390.49 519.912C390.172 519.594 390.013 519.205 390.013 518.745C390.013 518.286 390.172 517.897 390.49 517.579C390.808 517.261 391.197 517.102 391.656 517.102C392.098 517.102 392.469 517.261 392.769 517.579C393.087 517.897 393.246 518.286 393.246 518.745C393.246 519.205 393.087 519.594 392.769 519.912C392.469 520.23 392.098 520.389 391.656 520.389ZM392.822 522.748V537.272H390.41V522.748H392.822ZM396.032 529.957C396.032 528.472 396.332 527.174 396.933 526.061C397.534 524.93 398.355 524.055 399.398 523.437C400.458 522.818 401.642 522.509 402.949 522.509C404.08 522.509 405.131 522.774 406.103 523.304C407.075 523.817 407.817 524.497 408.33 525.345V517.659H410.768V537.272H408.33V534.542C407.852 535.408 407.146 536.123 406.209 536.689C405.273 537.236 404.177 537.51 402.923 537.51C401.633 537.51 400.458 537.192 399.398 536.556C398.355 535.92 397.534 535.028 396.933 533.879C396.332 532.731 396.032 531.423 396.032 529.957ZM408.33 529.983C408.33 528.888 408.109 527.933 407.667 527.121C407.225 526.308 406.624 525.689 405.865 525.265C405.123 524.824 404.301 524.603 403.4 524.603C402.499 524.603 401.677 524.815 400.935 525.239C400.193 525.663 399.601 526.281 399.159 527.094C398.717 527.907 398.497 528.861 398.497 529.957C398.497 531.07 398.717 532.042 399.159 532.872C399.601 533.685 400.193 534.312 400.935 534.754C401.677 535.178 402.499 535.39 403.4 535.39C404.301 535.39 405.123 535.178 405.865 534.754C406.624 534.312 407.225 533.685 407.667 532.872C408.109 532.042 408.33 531.079 408.33 529.983ZM416.089 520.389C415.63 520.389 415.241 520.23 414.923 519.912C414.605 519.594 414.446 519.205 414.446 518.745C414.446 518.286 414.605 517.897 414.923 517.579C415.241 517.261 415.63 517.102 416.089 517.102C416.531 517.102 416.902 517.261 417.203 517.579C417.521 517.897 417.68 518.286 417.68 518.745C417.68 519.205 417.521 519.594 417.203 519.912C416.902 520.23 416.531 520.389 416.089 520.389ZM417.256 522.748V537.272H414.844V522.748H417.256ZM424.308 524.735V533.296C424.308 534.003 424.458 534.506 424.759 534.807C425.059 535.09 425.58 535.231 426.322 535.231H428.098V537.272H425.925C424.582 537.272 423.575 536.963 422.903 536.344C422.232 535.726 421.896 534.71 421.896 533.296V524.735H420.015V522.748H421.896V519.09H424.308V522.748H428.098V524.735H424.308ZM443.53 522.748L434.784 544.11H432.293L435.155 537.113L429.298 522.748H431.975L436.533 534.515L441.039 522.748H443.53Z" fill="#DADBDF"/>
<path fill-rule="evenodd" clip-rule="evenodd" d="M301.856 506.501H303.181H303.181H443.652V505.176H303.181V446.801C304.694 446.495 305.832 445.157 305.832 443.554C305.832 441.725 304.349 440.241 302.519 440.241C300.689 440.241 299.206 441.725 299.206 443.554C299.206 445.157 300.344 446.494 301.856 446.801V506.501Z" fill="white" fill-opacity="0.3"/>
<path d="M1.38773 242.1V237.127H10.6778V265.229H5.12691V242.1H1.38773ZM16.0092 250.812C16.0092 246.366 16.8059 242.884 18.3992 240.365C20.0182 237.847 22.6909 236.587 26.4172 236.587C30.1436 236.587 32.8034 237.847 34.3967 240.365C36.0157 242.884 36.8253 246.366 36.8253 250.812C36.8253 255.283 36.0157 258.791 34.3967 261.335C32.8034 263.88 30.1436 265.152 26.4172 265.152C22.6909 265.152 20.0182 263.88 18.3992 261.335C16.8059 258.791 16.0092 255.283 16.0092 250.812ZM31.5056 250.812C31.5056 248.91 31.3771 247.317 31.1201 246.032C30.8888 244.721 30.4006 243.655 29.6553 242.832C28.9357 242.01 27.8564 241.599 26.4172 241.599C24.9781 241.599 23.8859 242.01 23.1407 242.832C22.4211 243.655 21.9328 244.721 21.6758 246.032C21.4445 247.317 21.3289 248.91 21.3289 250.812C21.3289 252.765 21.4445 254.41 21.6758 255.746C21.9071 257.057 22.3954 258.123 23.1407 258.945C23.8859 259.742 24.9781 260.14 26.4172 260.14C27.8564 260.14 28.9486 259.742 29.6938 258.945C30.4391 258.123 30.9274 257.057 31.1587 255.746C31.39 254.41 31.5056 252.765 31.5056 250.812ZM40.3133 244.027C40.3133 242.074 40.8786 240.545 42.0094 239.44C43.1658 238.335 44.6435 237.782 46.4424 237.782C48.2413 237.782 49.7062 238.335 50.8369 239.44C51.9934 240.545 52.5716 242.074 52.5716 244.027C52.5716 246.006 51.9934 247.548 50.8369 248.653C49.7062 249.758 48.2413 250.311 46.4424 250.311C44.6435 250.311 43.1658 249.758 42.0094 248.653C40.8786 247.548 40.3133 246.006 40.3133 244.027ZM65.0612 238.245L49.9118 265.229H44.6692L59.7801 238.245H65.0612ZM46.4039 241.021C44.9904 241.021 44.2837 242.023 44.2837 244.027C44.2837 246.057 44.9904 247.073 46.4039 247.073C47.0977 247.073 47.6374 246.828 48.0229 246.34C48.4084 245.826 48.6011 245.055 48.6011 244.027C48.6011 242.023 47.8687 241.021 46.4039 241.021ZM57.2359 259.408C57.2359 257.429 57.8013 255.9 58.932 254.821C60.0885 253.716 61.5662 253.163 63.3651 253.163C65.164 253.163 66.616 253.716 67.721 254.821C68.8518 255.9 69.4171 257.429 69.4171 259.408C69.4171 261.387 68.8518 262.929 67.721 264.034C66.616 265.139 65.164 265.691 63.3651 265.691C61.5405 265.691 60.0628 265.139 58.932 264.034C57.8013 262.929 57.2359 261.387 57.2359 259.408ZM63.3265 256.401C61.8617 256.401 61.1293 257.403 61.1293 259.408C61.1293 261.438 61.8617 262.453 63.3265 262.453C64.7657 262.453 65.4852 261.438 65.4852 259.408C65.4852 257.403 64.7657 256.401 63.3265 256.401Z" fill="#5CDD98"/>
<path d="M7.79217 288.755C9.80647 288.755 11.5469 289.135 13.0135 289.895C14.4977 290.637 15.6285 291.706 16.406 293.102C17.2011 294.498 17.5986 296.141 17.5986 298.032C17.5986 299.922 17.2011 301.566 16.406 302.962C15.6285 304.34 14.4977 305.4 13.0135 306.142C11.5469 306.867 9.80647 307.229 7.79217 307.229H2.04081V288.755H7.79217ZM7.79217 305.241C10.1775 305.241 11.9975 304.614 13.252 303.359C14.5065 302.087 15.1338 300.311 15.1338 298.032C15.1338 295.735 14.4977 293.941 13.2255 292.652C11.971 291.362 10.1599 290.717 7.79217 290.717H4.45267V305.241H7.79217ZM34.0319 299.41C34.0319 299.869 34.0054 300.355 33.9524 300.868H22.3437C22.432 302.299 22.9179 303.421 23.8014 304.234C24.7025 305.029 25.7892 305.426 27.0614 305.426C28.1039 305.426 28.9697 305.188 29.6588 304.711C30.3656 304.216 30.8603 303.562 31.143 302.75H33.7404C33.3517 304.145 32.5742 305.285 31.408 306.169C30.2419 307.034 28.793 307.467 27.0614 307.467C25.6832 307.467 24.4463 307.158 23.3508 306.54C22.273 305.921 21.4249 305.047 20.8065 303.916C20.188 302.767 19.8788 301.442 19.8788 299.94C19.8788 298.438 20.1792 297.122 20.78 295.991C21.3807 294.86 22.22 293.994 23.2978 293.394C24.3933 292.775 25.6478 292.466 27.0614 292.466C28.4396 292.466 29.6588 292.766 30.7189 293.367C31.7791 293.968 32.5919 294.798 33.1573 295.859C33.7404 296.901 34.0319 298.085 34.0319 299.41ZM31.5406 298.907C31.5406 297.988 31.3374 297.201 30.931 296.548C30.5246 295.876 29.968 295.373 29.2612 295.037C28.5721 294.684 27.8035 294.507 26.9554 294.507C25.7362 294.507 24.6937 294.896 23.8279 295.673C22.9798 296.45 22.4939 297.528 22.3702 298.907H31.5406ZM42.6223 305.002L47.128 292.705H49.6989L44.0005 307.229H41.1911L35.4928 292.705H38.0902L42.6223 305.002ZM70.5085 288.755V290.717H65.4727V307.229H63.0608V290.717H57.9986V288.755H70.5085ZM86.7293 299.41C86.7293 299.869 86.7028 300.355 86.6498 300.868H75.0411C75.1294 302.299 75.6153 303.421 76.4988 304.234C77.3999 305.029 78.4866 305.426 79.7588 305.426C80.8013 305.426 81.6671 305.188 82.3562 304.711C83.0629 304.216 83.5577 303.562 83.8404 302.75H86.4378C86.049 304.145 85.2716 305.285 84.1054 306.169C82.9392 307.034 81.4904 307.467 79.7588 307.467C78.3806 307.467 77.1437 307.158 76.0482 306.54C74.9704 305.921 74.1223 305.047 73.5038 303.916C72.8854 302.767 72.5762 301.442 72.5762 299.94C72.5762 298.438 72.8766 297.122 73.4773 295.991C74.0781 294.86 74.9174 293.994 75.9952 293.394C77.0907 292.775 78.3452 292.466 79.7588 292.466C81.137 292.466 82.3562 292.766 83.4163 293.367C84.4765 293.968 85.2893 294.798 85.8547 295.859C86.4378 296.901 86.7293 298.085 86.7293 299.41ZM84.2379 298.907C84.2379 297.988 84.0347 297.201 83.6283 296.548C83.222 295.876 82.6654 295.373 81.9586 295.037C81.2695 294.684 80.5009 294.507 79.6528 294.507C78.4336 294.507 77.3911 294.896 76.5253 295.673C75.6772 296.45 75.1912 297.528 75.0676 298.907H84.2379ZM89.0118 299.914C89.0118 298.429 89.3121 297.131 89.9129 296.018C90.5137 294.887 91.3353 294.012 92.3778 293.394C93.4379 292.775 94.6129 292.466 95.9028 292.466C97.175 292.466 98.2793 292.74 99.2158 293.288C100.152 293.835 100.85 294.525 101.31 295.355V292.705H103.748V307.229H101.31V304.525C100.833 305.373 100.117 306.08 99.1628 306.646C98.2263 307.193 97.1308 307.467 95.8763 307.467C94.5864 307.467 93.4203 307.149 92.3778 306.513C91.3353 305.877 90.5137 304.985 89.9129 303.836C89.3121 302.688 89.0118 301.38 89.0118 299.914ZM101.31 299.94C101.31 298.845 101.089 297.891 100.647 297.078C100.205 296.265 99.6045 295.647 98.8447 295.222C98.1026 294.781 97.281 294.56 96.3799 294.56C95.4787 294.56 94.6571 294.772 93.915 295.196C93.1729 295.62 92.581 296.238 92.1392 297.051C91.6975 297.864 91.4766 298.818 91.4766 299.914C91.4766 301.027 91.6975 301.999 92.1392 302.829C92.581 303.642 93.1729 304.269 93.915 304.711C94.6571 305.135 95.4787 305.347 96.3799 305.347C97.281 305.347 98.1026 305.135 98.8447 304.711C99.6045 304.269 100.205 303.642 100.647 302.829C101.089 301.999 101.31 301.036 101.31 299.94ZM125.29 292.44C126.421 292.44 127.428 292.678 128.311 293.155C129.195 293.615 129.893 294.312 130.405 295.249C130.918 296.185 131.174 297.325 131.174 298.668V307.229H128.788V299.013C128.788 297.564 128.426 296.459 127.702 295.7C126.995 294.922 126.032 294.533 124.813 294.533C123.558 294.533 122.56 294.94 121.818 295.753C121.076 296.548 120.705 297.705 120.705 299.225V307.229H118.319V299.013C118.319 297.564 117.957 296.459 117.233 295.7C116.526 294.922 115.563 294.533 114.344 294.533C113.089 294.533 112.091 294.94 111.349 295.753C110.607 296.548 110.236 297.705 110.236 299.225V307.229H107.824V292.705H110.236V294.798C110.713 294.039 111.349 293.456 112.144 293.049C112.957 292.643 113.849 292.44 114.821 292.44C116.04 292.44 117.118 292.713 118.054 293.261C118.991 293.809 119.689 294.613 120.148 295.673C120.555 294.648 121.226 293.853 122.162 293.288C123.099 292.722 124.141 292.44 125.29 292.44Z" fill="#DADBDF"/>
<path fill-rule="evenodd" clip-rule="evenodd" d="M150.949 275.086C151.285 273.574 152.748 272.436 154.503 272.436C156.505 272.436 158.129 273.919 158.129 275.749C158.129 277.579 156.505 279.062 154.503 279.062C152.748 279.062 151.285 277.924 150.949 276.412H0.018158V275.086H150.949Z" fill="white" fill-opacity="0.3"/>
<path d="M1.38773 109.673V104.7H10.6778V132.802H5.12691V109.673H1.38773ZM16.0092 118.385C16.0092 113.939 16.8059 110.457 18.3992 107.938C20.0182 105.42 22.6909 104.161 26.4172 104.161C30.1436 104.161 32.8034 105.42 34.3967 107.938C36.0157 110.457 36.8253 113.939 36.8253 118.385C36.8253 122.857 36.0157 126.364 34.3967 128.909C32.8034 131.453 30.1436 132.725 26.4172 132.725C22.6909 132.725 20.0182 131.453 18.3992 128.909C16.8059 126.364 16.0092 122.857 16.0092 118.385ZM31.5056 118.385C31.5056 116.483 31.3771 114.89 31.1201 113.605C30.8888 112.294 30.4006 111.228 29.6553 110.406C28.9357 109.583 27.8564 109.172 26.4172 109.172C24.9781 109.172 23.8859 109.583 23.1407 110.406C22.4211 111.228 21.9328 112.294 21.6758 113.605C21.4445 114.89 21.3289 116.483 21.3289 118.385C21.3289 120.338 21.4445 121.983 21.6758 123.319C21.9071 124.63 22.3954 125.696 23.1407 126.519C23.8859 127.315 24.9781 127.714 26.4172 127.714C27.8564 127.714 28.9486 127.315 29.6938 126.519C30.4391 125.696 30.9274 124.63 31.1587 123.319C31.39 121.983 31.5056 120.338 31.5056 118.385ZM40.3133 111.601C40.3133 109.647 40.8786 108.118 42.0094 107.013C43.1658 105.908 44.6435 105.356 46.4424 105.356C48.2413 105.356 49.7062 105.908 50.8369 107.013C51.9934 108.118 52.5716 109.647 52.5716 111.601C52.5716 113.579 51.9934 115.121 50.8369 116.226C49.7062 117.331 48.2413 117.884 46.4424 117.884C44.6435 117.884 43.1658 117.331 42.0094 116.226C40.8786 115.121 40.3133 113.579 40.3133 111.601ZM65.0612 105.818L49.9118 132.802H44.6692L59.7801 105.818H65.0612ZM46.4039 108.594C44.9904 108.594 44.2837 109.596 44.2837 111.601C44.2837 113.631 44.9904 114.646 46.4039 114.646C47.0977 114.646 47.6374 114.402 48.0229 113.913C48.4084 113.399 48.6011 112.628 48.6011 111.601C48.6011 109.596 47.8687 108.594 46.4039 108.594ZM57.2359 126.981C57.2359 125.002 57.8013 123.473 58.932 122.394C60.0885 121.289 61.5662 120.736 63.3651 120.736C65.164 120.736 66.616 121.289 67.721 122.394C68.8518 123.473 69.4171 125.002 69.4171 126.981C69.4171 128.96 68.8518 130.502 67.721 131.607C66.616 132.712 65.164 133.265 63.3651 133.265C61.5405 133.265 60.0628 132.712 58.932 131.607C57.8013 130.502 57.2359 128.96 57.2359 126.981ZM63.3265 123.974C61.8617 123.974 61.1293 124.977 61.1293 126.981C61.1293 129.011 61.8617 130.027 63.3265 130.027C64.7657 130.027 65.4852 129.011 65.4852 126.981C65.4852 124.977 64.7657 123.974 63.3265 123.974Z" fill="#5CDD98"/>
<path d="M12.4834 156.329V158.29H4.45267V164.518H10.9726V166.48H4.45267V174.802H2.04081V156.329H12.4834ZM21.7308 175.041C20.3702 175.041 19.1334 174.731 18.0202 174.113C16.9247 173.494 16.0589 172.62 15.4228 171.489C14.8044 170.34 14.4952 169.015 14.4952 167.513C14.4952 166.029 14.8132 164.722 15.4493 163.591C16.1031 162.442 16.9866 161.568 18.0997 160.967C19.2129 160.348 20.4586 160.039 21.8368 160.039C23.215 160.039 24.4607 160.348 25.5739 160.967C26.687 161.568 27.5617 162.433 28.1978 163.564C28.8515 164.695 29.1784 166.012 29.1784 167.513C29.1784 169.015 28.8427 170.34 28.1712 171.489C27.5175 172.62 26.6252 173.494 25.4943 174.113C24.3635 174.731 23.109 175.041 21.7308 175.041ZM21.7308 172.92C22.5966 172.92 23.4094 172.717 24.1691 172.311C24.9289 171.904 25.5385 171.295 25.9979 170.482C26.475 169.669 26.7135 168.68 26.7135 167.513C26.7135 166.347 26.4838 165.358 26.0244 164.545C25.565 163.732 24.9643 163.131 24.2222 162.743C23.48 162.336 22.6761 162.133 21.8103 162.133C20.9268 162.133 20.114 162.336 19.3719 162.743C18.6475 163.131 18.0644 163.732 17.6227 164.545C17.1809 165.358 16.9601 166.347 16.9601 167.513C16.9601 168.697 17.1721 169.696 17.5962 170.508C18.0379 171.321 18.621 171.931 19.3454 172.337C20.0699 172.726 20.865 172.92 21.7308 172.92ZM45.2305 160.278V174.802H42.8186V172.655C42.3592 173.397 41.7143 173.98 40.8838 174.404C40.0711 174.811 39.1699 175.014 38.1804 175.014C37.0496 175.014 36.0336 174.784 35.1325 174.325C34.2313 173.848 33.5157 173.141 32.9857 172.205C32.4732 171.268 32.217 170.128 32.217 168.786V160.278H34.6024V168.468C34.6024 169.899 34.9646 171.003 35.6891 171.781C36.4135 172.54 37.403 172.92 38.6575 172.92C39.9474 172.92 40.9634 172.523 41.7055 171.728C42.4476 170.932 42.8186 169.775 42.8186 168.256V160.278H45.2305ZM56.3794 160.013C58.1463 160.013 59.5775 160.552 60.673 161.63C61.7685 162.69 62.3162 164.227 62.3162 166.241V174.802H59.9309V166.586C59.9309 165.137 59.5687 164.033 58.8442 163.273C58.1198 162.495 57.1303 162.107 55.8758 162.107C54.6036 162.107 53.5876 162.504 52.8278 163.299C52.0857 164.094 51.7147 165.252 51.7147 166.771V174.802H49.3028V160.278H51.7147V162.345C52.1917 161.603 52.8367 161.029 53.6494 160.622C54.4799 160.216 55.3899 160.013 56.3794 160.013ZM65.3549 167.487C65.3549 166.003 65.6553 164.704 66.256 163.591C66.8568 162.46 67.6784 161.585 68.7209 160.967C69.7811 160.348 70.9649 160.039 72.2724 160.039C73.4033 160.039 74.4546 160.304 75.4264 160.834C76.3982 161.347 77.1403 162.027 77.6527 162.875V155.189H80.0911V174.802H77.6527V172.072C77.1757 172.938 76.4689 173.653 75.5324 174.219C74.5959 174.767 73.5004 175.041 72.2459 175.041C70.9561 175.041 69.7811 174.722 68.7209 174.086C67.6784 173.45 66.8568 172.558 66.256 171.409C65.6553 170.261 65.3549 168.953 65.3549 167.487ZM77.6527 167.513C77.6527 166.418 77.4319 165.464 76.9901 164.651C76.5484 163.838 75.9476 163.22 75.1879 162.796C74.4458 162.354 73.6241 162.133 72.723 162.133C71.8219 162.133 71.0002 162.345 70.2581 162.769C69.516 163.193 68.9241 163.812 68.4824 164.624C68.0406 165.437 67.8198 166.391 67.8198 167.487C67.8198 168.6 68.0406 169.572 68.4824 170.402C68.9241 171.215 69.516 171.842 70.2581 172.284C71.0002 172.708 71.8219 172.92 72.723 172.92C73.6241 172.92 74.4458 172.708 75.1879 172.284C75.9476 171.842 76.5484 171.215 76.9901 170.402C77.4319 169.572 77.6527 168.609 77.6527 167.513ZM83.2658 167.487C83.2658 166.003 83.5662 164.704 84.1669 163.591C84.7677 162.46 85.5893 161.585 86.6318 160.967C87.692 160.348 88.867 160.039 90.1568 160.039C91.429 160.039 92.5333 160.313 93.4698 160.861C94.4063 161.409 95.1042 162.098 95.5636 162.928V160.278H98.002V174.802H95.5636V172.099C95.0866 172.947 94.371 173.653 93.4168 174.219C92.4803 174.767 91.3848 175.041 90.1303 175.041C88.8405 175.041 87.6743 174.722 86.6318 174.086C85.5893 173.45 84.7677 172.558 84.1669 171.409C83.5662 170.261 83.2658 168.953 83.2658 167.487ZM95.5636 167.513C95.5636 166.418 95.3428 165.464 94.901 164.651C94.4593 163.838 93.8585 163.22 93.0988 162.796C92.3567 162.354 91.535 162.133 90.6339 162.133C89.7328 162.133 88.9111 162.345 88.169 162.769C87.4269 163.193 86.835 163.812 86.3933 164.624C85.9515 165.437 85.7307 166.391 85.7307 167.487C85.7307 168.6 85.9515 169.572 86.3933 170.402C86.835 171.215 87.4269 171.842 88.169 172.284C88.9111 172.708 89.7328 172.92 90.6339 172.92C91.535 172.92 92.3567 172.708 93.0988 172.284C93.8585 171.842 94.4593 171.215 94.901 170.402C95.3428 169.572 95.5636 168.609 95.5636 167.513ZM105.02 162.266V170.826C105.02 171.533 105.17 172.037 105.47 172.337C105.771 172.62 106.292 172.761 107.034 172.761H108.81V174.802H106.636C105.294 174.802 104.286 174.493 103.615 173.874C102.944 173.256 102.608 172.24 102.608 170.826V162.266H100.726V160.278H102.608V156.62H105.02V160.278H108.81V162.266H105.02ZM112.978 157.919C112.518 157.919 112.13 157.76 111.812 157.442C111.494 157.124 111.335 156.735 111.335 156.276C111.335 155.816 111.494 155.428 111.812 155.11C112.13 154.791 112.518 154.632 112.978 154.632C113.42 154.632 113.791 154.791 114.091 155.11C114.409 155.428 114.568 155.816 114.568 156.276C114.568 156.735 114.409 157.124 114.091 157.442C113.791 157.76 113.42 157.919 112.978 157.919ZM114.144 160.278V174.802H111.732V160.278H114.144ZM124.589 175.041C123.228 175.041 121.992 174.731 120.878 174.113C119.783 173.494 118.917 172.62 118.281 171.489C117.663 170.34 117.353 169.015 117.353 167.513C117.353 166.029 117.671 164.722 118.308 163.591C118.961 162.442 119.845 161.568 120.958 160.967C122.071 160.348 123.317 160.039 124.695 160.039C126.073 160.039 127.319 160.348 128.432 160.967C129.545 161.568 130.42 162.433 131.056 163.564C131.71 164.695 132.037 166.012 132.037 167.513C132.037 169.015 131.701 170.34 131.029 171.489C130.376 172.62 129.483 173.494 128.353 174.113C127.222 174.731 125.967 175.041 124.589 175.041ZM124.589 172.92C125.455 172.92 126.268 172.717 127.027 172.311C127.787 171.904 128.397 171.295 128.856 170.482C129.333 169.669 129.572 168.68 129.572 167.513C129.572 166.347 129.342 165.358 128.883 164.545C128.423 163.732 127.822 163.131 127.08 162.743C126.338 162.336 125.534 162.133 124.669 162.133C123.785 162.133 122.972 162.336 122.23 162.743C121.506 163.131 120.923 163.732 120.481 164.545C120.039 165.358 119.818 166.347 119.818 167.513C119.818 168.697 120.03 169.696 120.454 170.508C120.896 171.321 121.479 171.931 122.204 172.337C122.928 172.726 123.723 172.92 124.589 172.92ZM142.284 160.013C144.051 160.013 145.483 160.552 146.578 161.63C147.674 162.69 148.221 164.227 148.221 166.241V174.802H145.836V166.586C145.836 165.137 145.474 164.033 144.749 163.273C144.025 162.495 143.035 162.107 141.781 162.107C140.509 162.107 139.493 162.504 138.733 163.299C137.991 164.094 137.62 165.252 137.62 166.771V174.802H135.208V160.278H137.62V162.345C138.097 161.603 138.742 161.029 139.554 160.622C140.385 160.216 141.295 160.013 142.284 160.013Z" fill="#DADBDF"/>
<path fill-rule="evenodd" clip-rule="evenodd" d="M199.085 142.753C199.38 141.194 200.867 140.009 202.658 140.009C204.66 140.009 206.284 141.493 206.284 143.322C206.284 145.152 204.66 146.635 202.658 146.635C200.892 146.635 199.422 145.483 199.098 143.957H0.0185699V142.753H199.085Z" fill="white" fill-opacity="0.3"/>
<path fill-rule="evenodd" clip-rule="evenodd" d="M261.513 43.8577H260.188V103.558C258.675 103.865 257.537 105.202 257.537 106.805C257.537 108.634 259.02 110.118 260.85 110.118C262.68 110.118 264.163 108.634 264.163 106.805C264.163 105.202 263.025 103.865 261.513 103.558V43.8577ZM260.056 44.0349H60.2125V45.2388H260.056V44.0349Z" fill="white" fill-opacity="0.3"/>
<path d="M61.7037 10.8711V5.89838H70.9938V34H65.4428V10.8711H61.7037ZM76.3252 19.583C76.3252 15.1371 77.1218 11.6549 78.7151 9.13643C80.3342 6.61794 83.0068 5.3587 86.7332 5.3587C90.4595 5.3587 93.1193 6.61794 94.7126 9.13643C96.3317 11.6549 97.1412 15.1371 97.1412 19.583C97.1412 24.0546 96.3317 27.5625 94.7126 30.1066C93.1193 32.6508 90.4595 33.9229 86.7332 33.9229C83.0068 33.9229 80.3342 32.6508 78.7151 30.1066C77.1218 27.5625 76.3252 24.0546 76.3252 19.583ZM91.8215 19.583C91.8215 17.6813 91.693 16.0879 91.436 14.803C91.2048 13.4924 90.7165 12.4259 89.9712 11.6035C89.2516 10.7811 88.1723 10.37 86.7332 10.37C85.294 10.37 84.2018 10.7811 83.4566 11.6035C82.737 12.4259 82.2487 13.4924 81.9917 14.803C81.7604 16.0879 81.6448 17.6813 81.6448 19.583C81.6448 21.5361 81.7604 23.1808 81.9917 24.5171C82.223 25.8278 82.7113 26.8943 83.4566 27.7166C84.2018 28.5133 85.294 28.9116 86.7332 28.9116C88.1723 28.9116 89.2645 28.5133 90.0098 27.7166C90.755 26.8943 91.2433 25.8278 91.4746 24.5171C91.7059 23.1808 91.8215 21.5361 91.8215 19.583ZM100.629 12.7985C100.629 10.8454 101.195 9.31632 102.325 8.21127C103.482 7.10622 104.959 6.5537 106.758 6.5537C108.557 6.5537 110.022 7.10622 111.153 8.21127C112.309 9.31632 112.887 10.8454 112.887 12.7985C112.887 14.7773 112.309 16.3192 111.153 17.4243C110.022 18.5293 108.557 19.0819 106.758 19.0819C104.959 19.0819 103.482 18.5293 102.325 17.4243C101.195 16.3192 100.629 14.7773 100.629 12.7985ZM125.377 7.01628L110.228 34H104.985L120.096 7.01628H125.377ZM106.72 9.79174C105.306 9.79174 104.6 10.794 104.6 12.7985C104.6 14.8287 105.306 15.8438 106.72 15.8438C107.414 15.8438 107.953 15.5997 108.339 15.1114C108.724 14.5974 108.917 13.8265 108.917 12.7985C108.917 10.794 108.185 9.79174 106.72 9.79174ZM117.552 28.1792C117.552 26.2004 118.117 24.6713 119.248 23.592C120.404 22.4869 121.882 21.9344 123.681 21.9344C125.48 21.9344 126.932 22.4869 128.037 23.592C129.168 24.6713 129.733 26.2004 129.733 28.1792C129.733 30.158 129.168 31.7 128.037 32.805C126.932 33.9101 125.48 34.4626 123.681 34.4626C121.856 34.4626 120.379 33.9101 119.248 32.805C118.117 31.7 117.552 30.158 117.552 28.1792ZM123.642 25.1725C122.178 25.1725 121.445 26.1747 121.445 28.1792C121.445 30.2094 122.178 31.2245 123.642 31.2245C125.082 31.2245 125.801 30.2094 125.801 28.1792C125.801 26.1747 125.082 25.1725 123.642 25.1725Z" fill="#5CDD98"/>
<path d="M64.7686 59.488V65.6634H71.5006V67.6512H64.7686V74.0122H72.2957V76H62.3567V57.5002H72.2957V59.488H64.7686ZM75.0441 68.6849C75.0441 67.2007 75.3444 65.902 75.9452 64.7888C76.5459 63.658 77.3676 62.7833 78.4101 62.1649C79.4702 61.5465 80.6452 61.2373 81.9351 61.2373C83.2073 61.2373 84.3116 61.5112 85.2481 62.0589C86.1846 62.6067 86.8825 63.2958 87.3419 64.1262V61.4758H89.7803V76H87.3419V73.2966C86.8648 74.1447 86.1492 74.8515 85.1951 75.4169C84.2586 75.9647 83.1631 76.2385 81.9086 76.2385C80.6187 76.2385 79.4526 75.9205 78.4101 75.2844C77.3676 74.6483 76.5459 73.756 75.9452 72.6075C75.3444 71.459 75.0441 70.1515 75.0441 68.6849ZM87.3419 68.7114C87.3419 67.6159 87.121 66.6618 86.6793 65.849C86.2376 65.0362 85.6368 64.4178 84.877 63.9937C84.1349 63.552 83.3133 63.3311 82.4122 63.3311C81.511 63.3311 80.6894 63.5431 79.9473 63.9672C79.2052 64.3913 78.6133 65.0097 78.1715 65.8225C77.7298 66.6353 77.5089 67.5894 77.5089 68.6849C77.5089 69.7981 77.7298 70.7699 78.1715 71.6003C78.6133 72.4131 79.2052 73.0404 79.9473 73.4821C80.6894 73.9062 81.511 74.1182 82.4122 74.1182C83.3133 74.1182 84.1349 73.9062 84.877 73.4821C85.6368 73.0404 86.2376 72.4131 86.6793 71.6003C87.121 70.7699 87.3419 69.8069 87.3419 68.7114ZM96.268 63.8347C96.692 63.0042 97.2928 62.3593 98.0702 61.8999C98.8653 61.4405 99.8283 61.2108 100.959 61.2108V63.7022H100.323C97.6197 63.7022 96.268 65.1687 96.268 68.1018V76H93.8561V61.4758H96.268V63.8347ZM106.155 56.3871V76H103.743V56.3871H106.155ZM122.776 61.4758L114.029 82.838H111.538L114.4 75.841L108.543 61.4758H111.22L115.779 73.2436L120.284 61.4758H122.776ZM134.678 57.5267V76H132.266V57.5267H134.678ZM145.865 61.2108C147.632 61.2108 149.063 61.7497 150.159 62.8275C151.254 63.8877 151.802 65.4249 151.802 67.4392V76H149.417V67.7838C149.417 66.3349 149.054 65.2305 148.33 64.4708C147.606 63.6933 146.616 63.3046 145.362 63.3046C144.089 63.3046 143.073 63.7022 142.314 64.4973C141.572 65.2924 141.2 66.4497 141.2 67.9693V76H138.789V61.4758H141.2V63.5431C141.678 62.801 142.322 62.2268 143.135 61.8204C143.966 61.414 144.876 61.2108 145.865 61.2108ZM161.149 73.7737L165.654 61.4758H168.225L162.527 76H159.717L154.019 61.4758H156.616L161.149 73.7737ZM183.851 68.1813C183.851 68.6407 183.824 69.1266 183.771 69.639H172.162C172.251 71.0703 172.737 72.1923 173.62 73.005C174.521 73.8002 175.608 74.1977 176.88 74.1977C177.923 74.1977 178.788 73.9592 179.477 73.4821C180.184 72.9874 180.679 72.3336 180.962 71.5208H183.559C183.17 72.9167 182.393 74.0564 181.227 74.9398C180.06 75.8056 178.612 76.2385 176.88 76.2385C175.502 76.2385 174.265 75.9293 173.169 75.3109C172.092 74.6925 171.244 73.8178 170.625 72.687C170.007 71.5385 169.697 70.2133 169.697 68.7114C169.697 67.2095 169.998 65.8931 170.599 64.7623C171.199 63.6315 172.039 62.7657 173.116 62.1649C174.212 61.5465 175.466 61.2373 176.88 61.2373C178.258 61.2373 179.477 61.5377 180.538 62.1384C181.598 62.7392 182.411 63.5696 182.976 64.6298C183.559 65.6723 183.851 66.8561 183.851 68.1813ZM181.359 67.6777C181.359 66.7589 181.156 65.9727 180.75 65.3189C180.343 64.6475 179.787 64.1439 179.08 63.8082C178.391 63.4548 177.622 63.2781 176.774 63.2781C175.555 63.2781 174.512 63.6668 173.647 64.4443C172.798 65.2217 172.313 66.2995 172.189 67.6777H181.359ZM192.176 76.2385C191.063 76.2385 190.064 76.053 189.181 75.682C188.298 75.2932 187.6 74.7631 187.087 74.0917C186.575 73.4026 186.292 72.6163 186.239 71.7329H188.73C188.801 72.4573 189.137 73.0492 189.738 73.5086C190.356 73.968 191.16 74.1977 192.149 74.1977C193.068 74.1977 193.793 73.9945 194.323 73.5881C194.853 73.1817 195.118 72.6693 195.118 72.0509C195.118 71.4148 194.835 70.9466 194.27 70.6462C193.704 70.3281 192.83 70.0189 191.646 69.7186C190.568 69.4358 189.685 69.1531 188.995 68.8704C188.324 68.57 187.741 68.1372 187.246 67.5717C186.769 66.9886 186.531 66.2289 186.531 65.2924C186.531 64.5503 186.751 63.87 187.193 63.2516C187.635 62.6332 188.262 62.1473 189.075 61.7939C189.888 61.4228 190.815 61.2373 191.858 61.2373C193.466 61.2373 194.764 61.6437 195.754 62.4565C196.743 63.2693 197.274 64.3824 197.344 65.796H194.932C194.879 65.0362 194.57 64.4266 194.005 63.9672C193.457 63.5078 192.715 63.2781 191.778 63.2781C190.913 63.2781 190.223 63.4636 189.711 63.8347C189.199 64.2057 188.942 64.6916 188.942 65.2924C188.942 65.7695 189.093 66.167 189.393 66.4851C189.711 66.7854 190.1 67.0328 190.559 67.2272C191.036 67.4039 191.69 67.6071 192.52 67.8368C193.563 68.1195 194.411 68.4022 195.065 68.6849C195.719 68.9499 196.275 69.3563 196.735 69.9041C197.212 70.4518 197.459 71.1674 197.477 72.0509C197.477 72.846 197.256 73.5616 196.814 74.1977C196.372 74.8338 195.745 75.3374 194.932 75.7085C194.137 76.0618 193.218 76.2385 192.176 76.2385ZM203.823 63.4636V72.0244C203.823 72.7312 203.974 73.2348 204.274 73.5351C204.574 73.8178 205.096 73.9592 205.838 73.9592H207.613V76H205.44C204.097 76 203.09 75.6908 202.419 75.0724C201.747 74.4539 201.412 73.4379 201.412 72.0244V63.4636H199.53V61.4758H201.412V57.8183H203.823V61.4758H207.613V63.4636H203.823ZM216.87 76.2385C215.51 76.2385 214.273 75.9293 213.16 75.3109C212.064 74.6925 211.198 73.8178 210.562 72.687C209.944 71.5385 209.635 70.2133 209.635 68.7114C209.635 67.2272 209.953 65.9197 210.589 64.7888C211.242 63.6403 212.126 62.7657 213.239 62.1649C214.352 61.5465 215.598 61.2373 216.976 61.2373C218.354 61.2373 219.6 61.5465 220.713 62.1649C221.826 62.7657 222.701 63.6315 223.337 64.7623C223.991 65.8931 224.318 67.2095 224.318 68.7114C224.318 70.2133 223.982 71.5385 223.311 72.687C222.657 73.8178 221.765 74.6925 220.634 75.3109C219.503 75.9293 218.248 76.2385 216.87 76.2385ZM216.87 74.1182C217.736 74.1182 218.549 73.915 219.309 73.5086C220.068 73.1022 220.678 72.4926 221.137 71.6799C221.614 70.8671 221.853 69.8776 221.853 68.7114C221.853 67.5452 221.623 66.5557 221.164 65.743C220.704 64.9302 220.104 64.3294 219.362 63.9407C218.619 63.5343 217.815 63.3311 216.95 63.3311C216.066 63.3311 215.253 63.5343 214.511 63.9407C213.787 64.3294 213.204 64.9302 212.762 65.743C212.32 66.5557 212.099 67.5452 212.099 68.7114C212.099 69.8952 212.311 70.8936 212.736 71.7064C213.177 72.5191 213.76 73.1287 214.485 73.5351C215.209 73.9239 216.004 74.1182 216.87 74.1182ZM229.901 63.8347C230.325 63.0042 230.926 62.3593 231.703 61.8999C232.498 61.4405 233.461 61.2108 234.592 61.2108V63.7022H233.956C231.253 63.7022 229.901 65.1687 229.901 68.1018V76H227.489V61.4758H229.901V63.8347ZM242.518 76.2385C241.405 76.2385 240.406 76.053 239.523 75.682C238.64 75.2932 237.942 74.7631 237.429 74.0917C236.917 73.4026 236.634 72.6163 236.581 71.7329H239.072C239.143 72.4573 239.479 73.0492 240.08 73.5086C240.698 73.968 241.502 74.1977 242.491 74.1977C243.41 74.1977 244.135 73.9945 244.665 73.5881C245.195 73.1817 245.46 72.6693 245.46 72.0509C245.46 71.4148 245.177 70.9466 244.612 70.6462C244.046 70.3281 243.172 70.0189 241.988 69.7186C240.91 69.4358 240.027 69.1531 239.337 68.8704C238.666 68.57 238.083 68.1372 237.588 67.5717C237.111 66.9886 236.873 66.2289 236.873 65.2924C236.873 64.5503 237.093 63.87 237.535 63.2516C237.977 62.6332 238.604 62.1473 239.417 61.7939C240.23 61.4228 241.157 61.2373 242.2 61.2373C243.808 61.2373 245.107 61.6437 246.096 62.4565C247.085 63.2693 247.616 64.3824 247.686 65.796H245.274C245.221 65.0362 244.912 64.4266 244.347 63.9672C243.799 63.5078 243.057 63.2781 242.12 63.2781C241.255 63.2781 240.566 63.4636 240.053 63.8347C239.541 64.2057 239.284 64.6916 239.284 65.2924C239.284 65.7695 239.435 66.167 239.735 66.4851C240.053 66.7854 240.442 67.0328 240.901 67.2272C241.378 67.4039 242.032 67.6071 242.863 67.8368C243.905 68.1195 244.753 68.4022 245.407 68.6849C246.061 68.9499 246.617 69.3563 247.077 69.9041C247.554 70.4518 247.801 71.1674 247.819 72.0509C247.819 72.846 247.598 73.5616 247.156 74.1977C246.714 74.8338 246.087 75.3374 245.274 75.7085C244.479 76.0618 243.56 76.2385 242.518 76.2385Z" fill="#DADBDF"/>
<path fill-rule="evenodd" clip-rule="evenodd" d="M375.872 43.8577H377.197V103.558C378.709 103.865 379.848 105.202 379.848 106.805C379.848 108.634 378.364 110.118 376.535 110.118C374.705 110.118 373.222 108.634 373.222 106.805C373.222 105.202 374.36 103.865 375.872 103.558V43.8577ZM377.328 44.0349H577.172V45.2388H377.328V44.0349Z" fill="white" fill-opacity="0.3"/>
<path d="M507.583 10.8711V5.89838H516.873V34H511.322V10.8711H507.583ZM522.205 19.583C522.205 15.1371 523.001 11.6549 524.595 9.13643C526.214 6.61794 528.886 5.3587 532.613 5.3587C536.339 5.3587 538.999 6.61794 540.592 9.13643C542.211 11.6549 543.021 15.1371 543.021 19.583C543.021 24.0546 542.211 27.5625 540.592 30.1066C538.999 32.6508 536.339 33.9229 532.613 33.9229C528.886 33.9229 526.214 32.6508 524.595 30.1066C523.001 27.5625 522.205 24.0546 522.205 19.583ZM537.701 19.583C537.701 17.6813 537.573 16.0879 537.316 14.803C537.084 13.4924 536.596 12.4259 535.851 11.6035C535.131 10.7811 534.052 10.37 532.613 10.37C531.174 10.37 530.081 10.7811 529.336 11.6035C528.616 12.4259 528.128 13.4924 527.871 14.803C527.64 16.0879 527.524 17.6813 527.524 19.583C527.524 21.5361 527.64 23.1808 527.871 24.5171C528.103 25.8278 528.591 26.8943 529.336 27.7166C530.081 28.5133 531.174 28.9116 532.613 28.9116C534.052 28.9116 535.144 28.5133 535.889 27.7166C536.635 26.8943 537.123 25.8278 537.354 24.5171C537.585 23.1808 537.701 21.5361 537.701 19.583ZM546.509 12.7985C546.509 10.8454 547.074 9.31632 548.205 8.21127C549.361 7.10622 550.839 6.5537 552.638 6.5537C554.437 6.5537 555.902 7.10622 557.032 8.21127C558.189 9.31632 558.767 10.8454 558.767 12.7985C558.767 14.7773 558.189 16.3192 557.032 17.4243C555.902 18.5293 554.437 19.0819 552.638 19.0819C550.839 19.0819 549.361 18.5293 548.205 17.4243C547.074 16.3192 546.509 14.7773 546.509 12.7985ZM571.257 7.01628L556.107 34H550.865L565.975 7.01628H571.257ZM552.599 9.79174C551.186 9.79174 550.479 10.794 550.479 12.7985C550.479 14.8287 551.186 15.8438 552.599 15.8438C553.293 15.8438 553.833 15.5997 554.218 15.1114C554.604 14.5974 554.797 13.8265 554.797 12.7985C554.797 10.794 554.064 9.79174 552.599 9.79174ZM563.431 28.1792C563.431 26.2004 563.997 24.6713 565.127 23.592C566.284 22.4869 567.762 21.9344 569.56 21.9344C571.359 21.9344 572.811 22.4869 573.916 23.592C575.047 24.6713 575.613 26.2004 575.613 28.1792C575.613 30.158 575.047 31.7 573.916 32.805C572.811 33.9101 571.359 34.4626 569.56 34.4626C567.736 34.4626 566.258 33.9101 565.127 32.805C563.997 31.7 563.431 30.158 563.431 28.1792ZM569.522 25.1725C568.057 25.1725 567.325 26.1747 567.325 28.1792C567.325 30.2094 568.057 31.2245 569.522 31.2245C570.961 31.2245 571.681 30.2094 571.681 28.1792C571.681 26.1747 570.961 25.1725 569.522 25.1725Z" fill="#5CDD98"/>
<path d="M484.788 76L480.388 68.4464H477.472V76H475.061V57.5267H481.024C482.42 57.5267 483.595 57.7653 484.549 58.2423C485.521 58.7194 486.245 59.3643 486.722 60.1771C487.199 60.9899 487.438 61.9176 487.438 62.96C487.438 64.2322 487.067 65.3542 486.325 66.326C485.6 67.2979 484.505 67.9428 483.038 68.2608L487.676 76H484.788ZM477.472 66.5116H481.024C482.332 66.5116 483.312 66.1935 483.966 65.5574C484.62 64.9037 484.947 64.0379 484.947 62.96C484.947 61.8645 484.62 61.0164 483.966 60.4157C483.33 59.8149 482.349 59.5145 481.024 59.5145H477.472V66.5116ZM504.438 68.1813C504.438 68.6407 504.411 69.1266 504.358 69.639H492.749C492.838 71.0703 493.324 72.1923 494.207 73.005C495.108 73.8002 496.195 74.1977 497.467 74.1977C498.509 74.1977 499.375 73.9592 500.064 73.4821C500.771 72.9874 501.266 72.3336 501.549 71.5208H504.146C503.757 72.9167 502.98 74.0564 501.814 74.9398C500.647 75.8056 499.199 76.2385 497.467 76.2385C496.089 76.2385 494.852 75.9293 493.756 75.3109C492.679 74.6925 491.83 73.8178 491.212 72.687C490.594 71.5385 490.284 70.2133 490.284 68.7114C490.284 67.2095 490.585 65.8931 491.186 64.7623C491.786 63.6315 492.626 62.7657 493.703 62.1649C494.799 61.5465 496.053 61.2373 497.467 61.2373C498.845 61.2373 500.064 61.5377 501.125 62.1384C502.185 62.7392 502.997 63.5696 503.563 64.6298C504.146 65.6723 504.438 66.8561 504.438 68.1813ZM501.946 67.6777C501.946 66.7589 501.743 65.9727 501.337 65.3189C500.93 64.6475 500.374 64.1439 499.667 63.8082C498.978 63.4548 498.209 63.2781 497.361 63.2781C496.142 63.2781 495.099 63.6668 494.234 64.4443C493.385 65.2217 492.899 66.2995 492.776 67.6777H501.946ZM512.763 76.2385C511.65 76.2385 510.651 76.053 509.768 75.682C508.884 75.2932 508.187 74.7631 507.674 74.0917C507.162 73.4026 506.879 72.6163 506.826 71.7329H509.317C509.388 72.4573 509.724 73.0492 510.325 73.5086C510.943 73.968 511.747 74.1977 512.736 74.1977C513.655 74.1977 514.38 73.9945 514.91 73.5881C515.44 73.1817 515.705 72.6693 515.705 72.0509C515.705 71.4148 515.422 70.9466 514.857 70.6462C514.291 70.3281 513.417 70.0189 512.233 69.7186C511.155 69.4358 510.272 69.1531 509.582 68.8704C508.911 68.57 508.328 68.1372 507.833 67.5717C507.356 66.9886 507.118 66.2289 507.118 65.2924C507.118 64.5503 507.338 63.87 507.78 63.2516C508.222 62.6332 508.849 62.1473 509.662 61.7939C510.475 61.4228 511.402 61.2373 512.445 61.2373C514.053 61.2373 515.351 61.6437 516.341 62.4565C517.33 63.2693 517.861 64.3824 517.931 65.796H515.519C515.466 65.0362 515.157 64.4266 514.592 63.9672C514.044 63.5078 513.302 63.2781 512.365 63.2781C511.5 63.2781 510.81 63.4636 510.298 63.8347C509.786 64.2057 509.529 64.6916 509.529 65.2924C509.529 65.7695 509.68 66.167 509.98 66.4851C510.298 66.7854 510.687 67.0328 511.146 67.2272C511.623 67.4039 512.277 67.6071 513.107 67.8368C514.15 68.1195 514.998 68.4022 515.652 68.6849C516.306 68.9499 516.862 69.3563 517.322 69.9041C517.799 70.4518 518.046 71.1674 518.064 72.0509C518.064 72.846 517.843 73.5616 517.401 74.1977C516.959 74.8338 516.332 75.3374 515.519 75.7085C514.724 76.0618 513.805 76.2385 512.763 76.2385ZM534.72 68.1813C534.72 68.6407 534.694 69.1266 534.641 69.639H523.032C523.121 71.0703 523.606 72.1923 524.49 73.005C525.391 73.8002 526.478 74.1977 527.75 74.1977C528.792 74.1977 529.658 73.9592 530.347 73.4821C531.054 72.9874 531.549 72.3336 531.831 71.5208H534.429C534.04 72.9167 533.263 74.0564 532.097 74.9398C530.93 75.8056 529.481 76.2385 527.75 76.2385C526.372 76.2385 525.135 75.9293 524.039 75.3109C522.961 74.6925 522.113 73.8178 521.495 72.687C520.877 71.5385 520.567 70.2133 520.567 68.7114C520.567 67.2095 520.868 65.8931 521.468 64.7623C522.069 63.6315 522.908 62.7657 523.986 62.1649C525.082 61.5465 526.336 61.2373 527.75 61.2373C529.128 61.2373 530.347 61.5377 531.407 62.1384C532.468 62.7392 533.28 63.5696 533.846 64.6298C534.429 65.6723 534.72 66.8561 534.72 68.1813ZM532.229 67.6777C532.229 66.7589 532.026 65.9727 531.619 65.3189C531.213 64.6475 530.656 64.1439 529.95 63.8082C529.261 63.4548 528.492 63.2781 527.644 63.2781C526.425 63.2781 525.382 63.6668 524.516 64.4443C523.668 65.2217 523.182 66.2995 523.059 67.6777H532.229ZM540.316 63.8347C540.74 63.0042 541.341 62.3593 542.118 61.8999C542.913 61.4405 543.876 61.2108 545.007 61.2108V63.7022H544.371C541.668 63.7022 540.316 65.1687 540.316 68.1018V76H537.904V61.4758H540.316V63.8347ZM553.198 73.7737L557.704 61.4758H560.275L554.576 76H551.767L546.068 61.4758H548.666L553.198 73.7737ZM575.9 68.1813C575.9 68.6407 575.873 69.1266 575.82 69.639H564.212C564.3 71.0703 564.786 72.1923 565.669 73.005C566.571 73.8002 567.657 74.1977 568.929 74.1977C569.972 74.1977 570.838 73.9592 571.527 73.4821C572.234 72.9874 572.728 72.3336 573.011 71.5208H575.608C575.22 72.9167 574.442 74.0564 573.276 74.9398C572.11 75.8056 570.661 76.2385 568.929 76.2385C567.551 76.2385 566.314 75.9293 565.219 75.3109C564.141 74.6925 563.293 73.8178 562.674 72.687C562.056 71.5385 561.747 70.2133 561.747 68.7114C561.747 67.2095 562.047 65.8931 562.648 64.7623C563.249 63.6315 564.088 62.7657 565.166 62.1649C566.261 61.5465 567.516 61.2373 568.929 61.2373C570.308 61.2373 571.527 61.5377 572.587 62.1384C573.647 62.7392 574.46 63.5696 575.025 64.6298C575.608 65.6723 575.9 66.8561 575.9 68.1813ZM573.409 67.6777C573.409 66.7589 573.205 65.9727 572.799 65.3189C572.393 64.6475 571.836 64.1439 571.129 63.8082C570.44 63.4548 569.672 63.2781 568.823 63.2781C567.604 63.2781 566.562 63.6668 565.696 64.4443C564.848 65.2217 564.362 66.2995 564.238 67.6777H573.409Z" fill="#DADBDF"/>
<path fill-rule="evenodd" clip-rule="evenodd" d="M508.298 176.284H509.623V235.984C511.136 236.291 512.274 237.628 512.274 239.231C512.274 241.061 510.791 242.544 508.961 242.544C507.131 242.544 505.648 241.061 505.648 239.231C505.648 237.629 506.786 236.292 508.298 235.985V176.284ZM509.755 176.461H709.598V177.665H509.755V176.461Z" fill="white" fill-opacity="0.3"/>
<path d="M630.855 145.726C630.984 143.156 631.883 141.177 633.554 139.79C635.25 138.376 637.473 137.67 640.223 137.67C642.099 137.67 643.705 138.004 645.041 138.672C646.377 139.314 647.38 140.201 648.048 141.332C648.742 142.437 649.089 143.696 649.089 145.109C649.089 146.728 648.665 148.103 647.817 149.234C646.994 150.339 646.005 151.084 644.848 151.47V151.624C646.339 152.087 647.495 152.909 648.318 154.091C649.166 155.273 649.59 156.789 649.59 158.64C649.59 160.182 649.23 161.557 648.51 162.764C647.817 163.972 646.776 164.923 645.388 165.617C644.026 166.285 642.381 166.619 640.454 166.619C637.55 166.619 635.186 165.887 633.361 164.422C631.536 162.957 630.573 160.798 630.47 157.946H635.712C635.764 159.205 636.188 160.22 636.985 160.991C637.807 161.736 638.925 162.109 640.338 162.109C641.649 162.109 642.651 161.749 643.345 161.03C644.065 160.285 644.424 159.334 644.424 158.177C644.424 156.635 643.936 155.53 642.96 154.862C641.983 154.194 640.467 153.86 638.411 153.86H637.293V149.427H638.411C642.06 149.427 643.885 148.206 643.885 145.765C643.885 144.66 643.551 143.799 642.882 143.182C642.24 142.565 641.302 142.257 640.068 142.257C638.861 142.257 637.923 142.591 637.254 143.259C636.612 143.902 636.239 144.724 636.137 145.726H630.855ZM653.855 152.009C653.855 147.564 654.651 144.081 656.245 141.563C657.864 139.044 660.536 137.785 664.263 137.785C667.989 137.785 670.649 139.044 672.242 141.563C673.861 144.081 674.671 147.564 674.671 152.009C674.671 156.481 673.861 159.989 672.242 162.533C670.649 165.077 667.989 166.349 664.263 166.349C660.536 166.349 657.864 165.077 656.245 162.533C654.651 159.989 653.855 156.481 653.855 152.009ZM669.351 152.009C669.351 150.108 669.222 148.514 668.965 147.23C668.734 145.919 668.246 144.852 667.501 144.03C666.781 143.208 665.702 142.796 664.263 142.796C662.823 142.796 661.731 143.208 660.986 144.03C660.266 144.852 659.778 145.919 659.521 147.23C659.29 148.514 659.174 150.108 659.174 152.009C659.174 153.963 659.29 155.607 659.521 156.944C659.752 158.254 660.241 159.321 660.986 160.143C661.731 160.94 662.823 161.338 664.263 161.338C665.702 161.338 666.794 160.94 667.539 160.143C668.284 159.321 668.773 158.254 669.004 156.944C669.235 155.607 669.351 153.963 669.351 152.009ZM678.159 145.225C678.159 143.272 678.724 141.743 679.855 140.638C681.011 139.533 682.489 138.98 684.288 138.98C686.087 138.98 687.551 139.533 688.682 140.638C689.839 141.743 690.417 143.272 690.417 145.225C690.417 147.204 689.839 148.746 688.682 149.851C687.551 150.956 686.087 151.508 684.288 151.508C682.489 151.508 681.011 150.956 679.855 149.851C678.724 148.746 678.159 147.204 678.159 145.225ZM702.906 139.443L687.757 166.427H682.514L697.625 139.443H702.906ZM684.249 142.218C682.836 142.218 682.129 143.221 682.129 145.225C682.129 147.255 682.836 148.27 684.249 148.27C684.943 148.27 685.483 148.026 685.868 147.538C686.254 147.024 686.446 146.253 686.446 145.225C686.446 143.221 685.714 142.218 684.249 142.218ZM695.081 160.606C695.081 158.627 695.647 157.098 696.777 156.019C697.934 154.913 699.411 154.361 701.21 154.361C703.009 154.361 704.461 154.913 705.566 156.019C706.697 157.098 707.262 158.627 707.262 160.606C707.262 162.585 706.697 164.126 705.566 165.232C704.461 166.337 703.009 166.889 701.21 166.889C699.386 166.889 697.908 166.337 696.777 165.232C695.647 164.126 695.081 162.585 695.081 160.606ZM701.172 157.599C699.707 157.599 698.975 158.601 698.975 160.606C698.975 162.636 699.707 163.651 701.172 163.651C702.611 163.651 703.331 162.636 703.331 160.606C703.331 158.601 702.611 157.599 701.172 157.599Z" fill="#5CDD98"/>
<path d="M624.722 204.318H616.665L615.181 208.427H612.636L619.315 190.059H622.098L628.751 208.427H626.206L624.722 204.318ZM624.033 202.357L620.693 193.028L617.354 202.357H624.033ZM632.907 191.543C632.448 191.543 632.059 191.384 631.741 191.066C631.423 190.748 631.264 190.36 631.264 189.9C631.264 189.441 631.423 189.052 631.741 188.734C632.059 188.416 632.448 188.257 632.907 188.257C633.349 188.257 633.72 188.416 634.02 188.734C634.338 189.052 634.497 189.441 634.497 189.9C634.497 190.36 634.338 190.748 634.02 191.066C633.72 191.384 633.349 191.543 632.907 191.543ZM634.073 193.902V208.427H631.661V193.902H634.073ZM640.596 196.261C641.02 195.431 641.621 194.786 642.398 194.326C643.193 193.867 644.156 193.637 645.287 193.637V196.129H644.651C641.948 196.129 640.596 197.595 640.596 200.528V208.427H638.184V193.902H640.596V196.261ZM647.17 201.111C647.17 199.627 647.47 198.328 648.071 197.215C648.672 196.084 649.494 195.21 650.536 194.591C651.596 193.973 652.78 193.664 654.088 193.664C655.218 193.664 656.27 193.929 657.242 194.459C658.213 194.971 658.955 195.652 659.468 196.5V188.814H661.906V208.427H659.468V205.697C658.991 206.562 658.284 207.278 657.348 207.843C656.411 208.391 655.316 208.665 654.061 208.665C652.771 208.665 651.596 208.347 650.536 207.711C649.494 207.075 648.672 206.183 648.071 205.034C647.47 203.885 647.17 202.578 647.17 201.111ZM659.468 201.138C659.468 200.042 659.247 199.088 658.805 198.275C658.364 197.463 657.763 196.844 657.003 196.42C656.261 195.978 655.439 195.758 654.538 195.758C653.637 195.758 652.815 195.97 652.073 196.394C651.331 196.818 650.739 197.436 650.298 198.249C649.856 199.062 649.635 200.016 649.635 201.111C649.635 202.225 649.856 203.196 650.298 204.027C650.739 204.84 651.331 205.467 652.073 205.909C652.815 206.333 653.637 206.545 654.538 206.545C655.439 206.545 656.261 206.333 657.003 205.909C657.763 205.467 658.364 204.84 658.805 204.027C659.247 203.196 659.468 202.233 659.468 201.138ZM668.394 196.261C668.818 195.431 669.419 194.786 670.196 194.326C670.991 193.867 671.954 193.637 673.085 193.637V196.129H672.449C669.746 196.129 668.394 197.595 668.394 200.528V208.427H665.982V193.902H668.394V196.261ZM682.204 208.665C680.843 208.665 679.606 208.356 678.493 207.737C677.398 207.119 676.532 206.244 675.896 205.114C675.277 203.965 674.968 202.64 674.968 201.138C674.968 199.654 675.286 198.346 675.922 197.215C676.576 196.067 677.46 195.192 678.573 194.591C679.686 193.973 680.932 193.664 682.31 193.664C683.688 193.664 684.934 193.973 686.047 194.591C687.16 195.192 688.035 196.058 688.671 197.189C689.324 198.32 689.651 199.636 689.651 201.138C689.651 202.64 689.316 203.965 688.644 205.114C687.99 206.244 687.098 207.119 685.967 207.737C684.836 208.356 683.582 208.665 682.204 208.665ZM682.204 206.545C683.07 206.545 683.882 206.342 684.642 205.935C685.402 205.529 686.012 204.919 686.471 204.106C686.948 203.294 687.187 202.304 687.187 201.138C687.187 199.972 686.957 198.982 686.497 198.169C686.038 197.357 685.437 196.756 684.695 196.367C683.953 195.961 683.149 195.758 682.283 195.758C681.4 195.758 680.587 195.961 679.845 196.367C679.12 196.756 678.537 197.357 678.096 198.169C677.654 198.982 677.433 199.972 677.433 201.138C677.433 202.322 677.645 203.32 678.069 204.133C678.511 204.946 679.094 205.555 679.818 205.962C680.543 206.35 681.338 206.545 682.204 206.545ZM695.234 196.579C695.711 195.749 696.418 195.06 697.355 194.512C698.309 193.947 699.413 193.664 700.668 193.664C701.958 193.664 703.124 193.973 704.166 194.591C705.226 195.21 706.057 196.084 706.658 197.215C707.258 198.328 707.559 199.627 707.559 201.111C707.559 202.578 707.258 203.885 706.658 205.034C706.057 206.183 705.226 207.075 704.166 207.711C703.124 208.347 701.958 208.665 700.668 208.665C699.431 208.665 698.335 208.391 697.381 207.843C696.445 207.278 695.729 206.58 695.234 205.75V215.318H692.823V193.902H695.234V196.579ZM705.094 201.111C705.094 200.016 704.873 199.062 704.431 198.249C703.99 197.436 703.389 196.818 702.629 196.394C701.887 195.97 701.065 195.758 700.164 195.758C699.281 195.758 698.459 195.978 697.699 196.42C696.957 196.844 696.356 197.472 695.897 198.302C695.455 199.115 695.234 200.06 695.234 201.138C695.234 202.233 695.455 203.196 695.897 204.027C696.356 204.84 696.957 205.467 697.699 205.909C698.459 206.333 699.281 206.545 700.164 206.545C701.065 206.545 701.887 206.333 702.629 205.909C703.389 205.467 703.99 204.84 704.431 204.027C704.873 203.196 705.094 202.225 705.094 201.111Z" fill="#DADBDF"/>
<defs>
<filter id="filter0_d_309_10039" x="164.95" y="103.025" width="333.474" height="333.474" filterUnits="userSpaceOnUse" color-interpolation-filters="sRGB">
<feFlood flood-opacity="0" result="BackgroundImageFix"/>
<feColorMatrix in="SourceAlpha" type="matrix" values="0 0 0 0 0 0 0 0 0 0 0 0 0 0 0 0 0 0 127 0" result="hardAlpha"/>
<feOffset/>
<feGaussianBlur stdDeviation="14.4465"/>
<feComposite in2="hardAlpha" operator="out"/>
<feColorMatrix type="matrix" values="0 0 0 0 1 0 0 0 0 1 0 0 0 0 1 0 0 0 0.3 0"/>
<feBlend mode="normal" in2="BackgroundImageFix" result="effect1_dropShadow_309_10039"/>
<feBlend mode="normal" in="SourceGraphic" in2="effect1_dropShadow_309_10039" result="shape"/>
</filter>
</defs>
</svg>
